%TF.GenerationSoftware,KiCad,Pcbnew,9.0.1*%
%TF.CreationDate,2025-05-21T15:04:46-07:00*%
%TF.ProjectId,pcb,7063622e-6b69-4636-9164-5f7063625858,Rev 1 first mill*%
%TF.SameCoordinates,Original*%
%TF.FileFunction,Soldermask,Top*%
%TF.FilePolarity,Negative*%
%FSLAX46Y46*%
G04 Gerber Fmt 4.6, Leading zero omitted, Abs format (unit mm)*
G04 Created by KiCad (PCBNEW 9.0.1) date 2025-05-21 15:04:46*
%MOMM*%
%LPD*%
G01*
G04 APERTURE LIST*
G04 Aperture macros list*
%AMRoundRect*
0 Rectangle with rounded corners*
0 $1 Rounding radius*
0 $2 $3 $4 $5 $6 $7 $8 $9 X,Y pos of 4 corners*
0 Add a 4 corners polygon primitive as box body*
4,1,4,$2,$3,$4,$5,$6,$7,$8,$9,$2,$3,0*
0 Add four circle primitives for the rounded corners*
1,1,$1+$1,$2,$3*
1,1,$1+$1,$4,$5*
1,1,$1+$1,$6,$7*
1,1,$1+$1,$8,$9*
0 Add four rect primitives between the rounded corners*
20,1,$1+$1,$2,$3,$4,$5,0*
20,1,$1+$1,$4,$5,$6,$7,0*
20,1,$1+$1,$6,$7,$8,$9,0*
20,1,$1+$1,$8,$9,$2,$3,0*%
G04 Aperture macros list end*
%ADD10RoundRect,0.219250X0.657750X-1.047750X0.657750X1.047750X-0.657750X1.047750X-0.657750X-1.047750X0*%
%ADD11R,1.700000X1.700000*%
%ADD12C,1.700000*%
%ADD13RoundRect,0.250000X0.250000X0.475000X-0.250000X0.475000X-0.250000X-0.475000X0.250000X-0.475000X0*%
%ADD14R,1.800000X1.800000*%
%ADD15C,1.800000*%
%ADD16RoundRect,0.250000X-0.475000X0.250000X-0.475000X-0.250000X0.475000X-0.250000X0.475000X0.250000X0*%
%ADD17RoundRect,0.250001X-1.149999X-1.149999X1.149999X-1.149999X1.149999X1.149999X-1.149999X1.149999X0*%
%ADD18C,2.800000*%
%ADD19RoundRect,0.250000X-0.350000X-0.450000X0.350000X-0.450000X0.350000X0.450000X-0.350000X0.450000X0*%
%ADD20RoundRect,0.102000X-2.050000X-1.750000X2.050000X-1.750000X2.050000X1.750000X-2.050000X1.750000X0*%
%ADD21R,3.800000X1.450000*%
%ADD22R,3.800000X1.400000*%
%ADD23R,1.800000X1.000000*%
%ADD24RoundRect,0.250000X-0.450000X0.350000X-0.450000X-0.350000X0.450000X-0.350000X0.450000X0.350000X0*%
%ADD25R,3.000000X1.400000*%
%ADD26R,3.500000X1.450000*%
%ADD27R,3.300000X1.450000*%
%ADD28R,3.300000X1.400000*%
%ADD29RoundRect,0.250000X-1.950000X-1.000000X1.950000X-1.000000X1.950000X1.000000X-1.950000X1.000000X0*%
%ADD30R,3.000000X3.000000*%
%ADD31C,3.000000*%
%ADD32RoundRect,0.150000X-0.825000X-0.150000X0.825000X-0.150000X0.825000X0.150000X-0.825000X0.150000X0*%
%ADD33C,1.524000*%
%ADD34RoundRect,0.250001X1.044999X-0.872499X1.044999X0.872499X-1.044999X0.872499X-1.044999X-0.872499X0*%
%ADD35RoundRect,0.250001X1.149999X1.149999X-1.149999X1.149999X-1.149999X-1.149999X1.149999X-1.149999X0*%
%ADD36RoundRect,0.250000X0.475000X-0.250000X0.475000X0.250000X-0.475000X0.250000X-0.475000X-0.250000X0*%
G04 APERTURE END LIST*
D10*
%TO.C,D1*%
X118420000Y-69875000D03*
X118420000Y-65605000D03*
%TD*%
D11*
%TO.C,U2*%
X155380000Y-51740000D03*
D12*
X157920000Y-51740000D03*
X155380000Y-54280000D03*
X157920000Y-54280000D03*
X155380000Y-56820000D03*
X157920000Y-56820000D03*
X155380000Y-59360000D03*
X157920000Y-59360000D03*
X155380000Y-61900000D03*
X157920000Y-61900000D03*
X155380000Y-64440000D03*
X157920000Y-64440000D03*
X155380000Y-66980000D03*
X157920000Y-66980000D03*
X155380000Y-69520000D03*
X157920000Y-69520000D03*
X155380000Y-72060000D03*
X157920000Y-72060000D03*
X155380000Y-74600000D03*
X157920000Y-74600000D03*
X155380000Y-77140000D03*
X157920000Y-77140000D03*
X155380000Y-79680000D03*
X157920000Y-79680000D03*
X155380000Y-82220000D03*
X157920000Y-82220000D03*
X155380000Y-84760000D03*
X157920000Y-84760000D03*
X155380000Y-87300000D03*
X157920000Y-87300000D03*
X155380000Y-89840000D03*
X157920000Y-89840000D03*
X155380000Y-92380000D03*
X157920000Y-92380000D03*
X155380000Y-94920000D03*
X157920000Y-94920000D03*
X155380000Y-97460000D03*
X157920000Y-97460000D03*
%TD*%
D13*
%TO.C,C11*%
X74420000Y-96740000D03*
X72520000Y-96740000D03*
%TD*%
D14*
%TO.C,U4*%
X109120000Y-76040000D03*
D15*
X107420000Y-79740000D03*
X105720000Y-76040000D03*
X104020000Y-79740000D03*
X102320000Y-76040000D03*
%TD*%
D16*
%TO.C,C2*%
X150920000Y-133240000D03*
X150920000Y-135140000D03*
%TD*%
D17*
%TO.C,J2*%
X86420000Y-55240000D03*
D18*
X91420000Y-55240000D03*
%TD*%
D19*
%TO.C,R6*%
X87920000Y-110240000D03*
X89920000Y-110240000D03*
%TD*%
%TO.C,R2*%
X149420000Y-119740000D03*
X151420000Y-119740000D03*
%TD*%
D11*
%TO.C,U5*%
X111550000Y-129690000D03*
D12*
X109010000Y-129690000D03*
X106470000Y-129690000D03*
X103930000Y-129690000D03*
%TD*%
D20*
%TO.C,L1*%
X118170000Y-79240000D03*
X127670000Y-79240000D03*
%TD*%
D21*
%TO.C,SW4*%
X177320000Y-124965000D03*
D22*
X187520000Y-124990000D03*
D21*
X177320000Y-129465000D03*
X187520000Y-129465000D03*
%TD*%
D23*
%TO.C,Y2*%
X77920000Y-93490000D03*
X77920000Y-90990000D03*
%TD*%
D24*
%TO.C,R7*%
X87920000Y-98240000D03*
X87920000Y-100240000D03*
%TD*%
D22*
%TO.C,SW1*%
X128840000Y-124990000D03*
X139040000Y-124990000D03*
D21*
X128840000Y-129465000D03*
X139040000Y-129465000D03*
%TD*%
D25*
%TO.C,SW3*%
X160610000Y-124940000D03*
D26*
X170860000Y-124965000D03*
D27*
X160760000Y-129415000D03*
D28*
X170460000Y-129440000D03*
%TD*%
D29*
%TO.C,C8*%
X103820000Y-65740000D03*
X112220000Y-65740000D03*
%TD*%
D19*
%TO.C,R4*%
X180420000Y-119740000D03*
X182420000Y-119740000D03*
%TD*%
D30*
%TO.C,BT1*%
X76920000Y-108240000D03*
D31*
X76920000Y-128730000D03*
%TD*%
D32*
%TO.C,U3*%
X79945000Y-98085000D03*
X79945000Y-99355000D03*
X79945000Y-100625000D03*
X79945000Y-101895000D03*
X84895000Y-101895000D03*
X84895000Y-100625000D03*
X84895000Y-99355000D03*
X84895000Y-98085000D03*
%TD*%
D33*
%TO.C,U6*%
X91920000Y-85240000D03*
X91920000Y-82700000D03*
X91920000Y-80160000D03*
X91920000Y-77620000D03*
X91920000Y-75080000D03*
X91920000Y-72540000D03*
X91920000Y-70000000D03*
X91920000Y-67460000D03*
X74140000Y-67460000D03*
X74140000Y-70000000D03*
X74140000Y-72540000D03*
X74140000Y-75080000D03*
X74140000Y-77620000D03*
X74140000Y-80160000D03*
X74140000Y-82700000D03*
X74140000Y-85240000D03*
%TD*%
D19*
%TO.C,R1*%
X133420000Y-119740000D03*
X135420000Y-119740000D03*
%TD*%
D22*
%TO.C,SW2*%
X145360000Y-124990000D03*
D27*
X155310000Y-124965000D03*
D21*
X145360000Y-129465000D03*
D27*
X155310000Y-129465000D03*
%TD*%
D13*
%TO.C,C10*%
X74370000Y-90740000D03*
X72470000Y-90740000D03*
%TD*%
D22*
%TO.C,SW5*%
X195820000Y-124990000D03*
X206020000Y-124990000D03*
D21*
X195820000Y-129465000D03*
X206020000Y-129465000D03*
%TD*%
D34*
%TO.C,C9*%
X127920000Y-93947500D03*
X127920000Y-87532500D03*
%TD*%
D16*
%TO.C,C4*%
X182440000Y-133240000D03*
X182440000Y-135140000D03*
%TD*%
D19*
%TO.C,R5*%
X199670000Y-119490000D03*
X201670000Y-119490000D03*
%TD*%
D16*
%TO.C,C1*%
X133920000Y-133240000D03*
X133920000Y-135140000D03*
%TD*%
D35*
%TO.C,J1*%
X147920000Y-54240000D03*
D18*
X142920000Y-54240000D03*
%TD*%
D16*
%TO.C,C6*%
X218920000Y-133240000D03*
X218920000Y-135140000D03*
%TD*%
D19*
%TO.C,R3*%
X164420000Y-119640000D03*
X166420000Y-119640000D03*
%TD*%
D11*
%TO.C,U1*%
X216880000Y-51940000D03*
D12*
X219420000Y-51940000D03*
X216880000Y-54480000D03*
X219420000Y-54480000D03*
X216880000Y-57020000D03*
X219420000Y-57020000D03*
X216880000Y-59560000D03*
X219420000Y-59560000D03*
X216880000Y-62100000D03*
X219420000Y-62100000D03*
X216880000Y-64640000D03*
X219420000Y-64640000D03*
X216880000Y-67180000D03*
X219420000Y-67180000D03*
X216880000Y-69720000D03*
X219420000Y-69720000D03*
X216880000Y-72260000D03*
X219420000Y-72260000D03*
X216880000Y-74800000D03*
X219420000Y-74800000D03*
X216880000Y-77340000D03*
X219420000Y-77340000D03*
X216880000Y-79880000D03*
X219420000Y-79880000D03*
X216880000Y-82420000D03*
X219420000Y-82420000D03*
X216880000Y-84960000D03*
X219420000Y-84960000D03*
X216880000Y-87500000D03*
X219420000Y-87500000D03*
X216880000Y-90040000D03*
X219420000Y-90040000D03*
X216880000Y-92580000D03*
X219420000Y-92580000D03*
X216880000Y-95120000D03*
X219420000Y-95120000D03*
X216880000Y-97660000D03*
X219420000Y-97660000D03*
%TD*%
D16*
%TO.C,C3*%
X165440000Y-133240000D03*
X165440000Y-135140000D03*
%TD*%
D36*
%TO.C,C7*%
X97280000Y-91030000D03*
X97280000Y-89130000D03*
%TD*%
D19*
%TO.C,R8*%
X217920000Y-119240000D03*
X219920000Y-119240000D03*
%TD*%
D21*
%TO.C,SW6*%
X213360000Y-124965000D03*
D22*
X223560000Y-124990000D03*
D21*
X213360000Y-129465000D03*
D22*
X223560000Y-129490000D03*
%TD*%
D16*
%TO.C,C5*%
X201420000Y-133240000D03*
X201420000Y-135140000D03*
%TD*%
M02*
