%TF.GenerationSoftware,KiCad,Pcbnew,9.0.1*%
%TF.CreationDate,2025-05-21T15:04:57-07:00*%
%TF.ProjectId,pcb,7063622e-6b69-4636-9164-5f7063625858,Rev 1 first mill*%
%TF.SameCoordinates,Original*%
%TF.FileFunction,Legend,Top*%
%TF.FilePolarity,Positive*%
%FSLAX46Y46*%
G04 Gerber Fmt 4.6, Leading zero omitted, Abs format (unit mm)*
G04 Created by KiCad (PCBNEW 9.0.1) date 2025-05-21 15:04:57*
%MOMM*%
%LPD*%
G01*
G04 APERTURE LIST*
%ADD10C,0.100000*%
%ADD11C,0.300000*%
%ADD12C,0.200000*%
%ADD13C,0.150000*%
%ADD14C,0.127000*%
%ADD15C,0.120000*%
G04 APERTURE END LIST*
D10*
X220480000Y-137320000D02*
X220050000Y-137730000D01*
X220480000Y-137320000D02*
X220040000Y-136810000D01*
X218185000Y-137320000D02*
X220480000Y-137320000D01*
X201150000Y-137320000D02*
X201870000Y-137670000D01*
X201150000Y-137320000D02*
X201920000Y-136960000D01*
X203730000Y-137320000D02*
X201150000Y-137320000D01*
X182410000Y-136900000D02*
X182770000Y-137320000D01*
X181990000Y-137340000D02*
X182410000Y-136900000D01*
X182410000Y-136900000D02*
X181990000Y-137340000D01*
X182390000Y-138090000D02*
X182410000Y-136900000D01*
X165640000Y-137870000D02*
X166110000Y-137450000D01*
X165210000Y-137410000D02*
X165640000Y-137870000D01*
X165640000Y-137870000D02*
X165210000Y-137410000D01*
X165630000Y-136440000D02*
X165640000Y-137870000D01*
D11*
X147813082Y-138049400D02*
X147955939Y-138120828D01*
X147955939Y-138120828D02*
X148241653Y-138120828D01*
X148241653Y-138120828D02*
X148384510Y-138049400D01*
X148384510Y-138049400D02*
X148455939Y-137906542D01*
X148455939Y-137906542D02*
X148455939Y-137835114D01*
X148455939Y-137835114D02*
X148384510Y-137692257D01*
X148384510Y-137692257D02*
X148241653Y-137620828D01*
X148241653Y-137620828D02*
X148027368Y-137620828D01*
X148027368Y-137620828D02*
X147884510Y-137549400D01*
X147884510Y-137549400D02*
X147813082Y-137406542D01*
X147813082Y-137406542D02*
X147813082Y-137335114D01*
X147813082Y-137335114D02*
X147884510Y-137192257D01*
X147884510Y-137192257D02*
X148027368Y-137120828D01*
X148027368Y-137120828D02*
X148241653Y-137120828D01*
X148241653Y-137120828D02*
X148384510Y-137192257D01*
X149670225Y-138049400D02*
X149527368Y-138120828D01*
X149527368Y-138120828D02*
X149241654Y-138120828D01*
X149241654Y-138120828D02*
X149098796Y-138049400D01*
X149098796Y-138049400D02*
X149027368Y-137906542D01*
X149027368Y-137906542D02*
X149027368Y-137335114D01*
X149027368Y-137335114D02*
X149098796Y-137192257D01*
X149098796Y-137192257D02*
X149241654Y-137120828D01*
X149241654Y-137120828D02*
X149527368Y-137120828D01*
X149527368Y-137120828D02*
X149670225Y-137192257D01*
X149670225Y-137192257D02*
X149741654Y-137335114D01*
X149741654Y-137335114D02*
X149741654Y-137477971D01*
X149741654Y-137477971D02*
X149027368Y-137620828D01*
X150598796Y-138120828D02*
X150455939Y-138049400D01*
X150455939Y-138049400D02*
X150384510Y-137906542D01*
X150384510Y-137906542D02*
X150384510Y-136620828D01*
X151741653Y-138049400D02*
X151598796Y-138120828D01*
X151598796Y-138120828D02*
X151313082Y-138120828D01*
X151313082Y-138120828D02*
X151170224Y-138049400D01*
X151170224Y-138049400D02*
X151098796Y-137906542D01*
X151098796Y-137906542D02*
X151098796Y-137335114D01*
X151098796Y-137335114D02*
X151170224Y-137192257D01*
X151170224Y-137192257D02*
X151313082Y-137120828D01*
X151313082Y-137120828D02*
X151598796Y-137120828D01*
X151598796Y-137120828D02*
X151741653Y-137192257D01*
X151741653Y-137192257D02*
X151813082Y-137335114D01*
X151813082Y-137335114D02*
X151813082Y-137477971D01*
X151813082Y-137477971D02*
X151098796Y-137620828D01*
X153098796Y-138049400D02*
X152955938Y-138120828D01*
X152955938Y-138120828D02*
X152670224Y-138120828D01*
X152670224Y-138120828D02*
X152527367Y-138049400D01*
X152527367Y-138049400D02*
X152455938Y-137977971D01*
X152455938Y-137977971D02*
X152384510Y-137835114D01*
X152384510Y-137835114D02*
X152384510Y-137406542D01*
X152384510Y-137406542D02*
X152455938Y-137263685D01*
X152455938Y-137263685D02*
X152527367Y-137192257D01*
X152527367Y-137192257D02*
X152670224Y-137120828D01*
X152670224Y-137120828D02*
X152955938Y-137120828D01*
X152955938Y-137120828D02*
X153098796Y-137192257D01*
X153527367Y-137120828D02*
X154098795Y-137120828D01*
X153741652Y-136620828D02*
X153741652Y-137906542D01*
X153741652Y-137906542D02*
X153813081Y-138049400D01*
X153813081Y-138049400D02*
X153955938Y-138120828D01*
X153955938Y-138120828D02*
X154098795Y-138120828D01*
X133564510Y-138280828D02*
X133564510Y-136780828D01*
X133564510Y-137352257D02*
X133707368Y-137280828D01*
X133707368Y-137280828D02*
X133993082Y-137280828D01*
X133993082Y-137280828D02*
X134135939Y-137352257D01*
X134135939Y-137352257D02*
X134207368Y-137423685D01*
X134207368Y-137423685D02*
X134278796Y-137566542D01*
X134278796Y-137566542D02*
X134278796Y-137995114D01*
X134278796Y-137995114D02*
X134207368Y-138137971D01*
X134207368Y-138137971D02*
X134135939Y-138209400D01*
X134135939Y-138209400D02*
X133993082Y-138280828D01*
X133993082Y-138280828D02*
X133707368Y-138280828D01*
X133707368Y-138280828D02*
X133564510Y-138209400D01*
X135564511Y-138280828D02*
X135564511Y-137495114D01*
X135564511Y-137495114D02*
X135493082Y-137352257D01*
X135493082Y-137352257D02*
X135350225Y-137280828D01*
X135350225Y-137280828D02*
X135064511Y-137280828D01*
X135064511Y-137280828D02*
X134921653Y-137352257D01*
X135564511Y-138209400D02*
X135421653Y-138280828D01*
X135421653Y-138280828D02*
X135064511Y-138280828D01*
X135064511Y-138280828D02*
X134921653Y-138209400D01*
X134921653Y-138209400D02*
X134850225Y-138066542D01*
X134850225Y-138066542D02*
X134850225Y-137923685D01*
X134850225Y-137923685D02*
X134921653Y-137780828D01*
X134921653Y-137780828D02*
X135064511Y-137709400D01*
X135064511Y-137709400D02*
X135421653Y-137709400D01*
X135421653Y-137709400D02*
X135564511Y-137637971D01*
X136921654Y-138209400D02*
X136778796Y-138280828D01*
X136778796Y-138280828D02*
X136493082Y-138280828D01*
X136493082Y-138280828D02*
X136350225Y-138209400D01*
X136350225Y-138209400D02*
X136278796Y-138137971D01*
X136278796Y-138137971D02*
X136207368Y-137995114D01*
X136207368Y-137995114D02*
X136207368Y-137566542D01*
X136207368Y-137566542D02*
X136278796Y-137423685D01*
X136278796Y-137423685D02*
X136350225Y-137352257D01*
X136350225Y-137352257D02*
X136493082Y-137280828D01*
X136493082Y-137280828D02*
X136778796Y-137280828D01*
X136778796Y-137280828D02*
X136921654Y-137352257D01*
X137564510Y-138280828D02*
X137564510Y-136780828D01*
X137707368Y-137709400D02*
X138135939Y-138280828D01*
X138135939Y-137280828D02*
X137564510Y-137852257D01*
D12*
X151420000Y-47240000D02*
X222920000Y-47240000D01*
X222920000Y-100740000D01*
X151420000Y-100740000D01*
X151420000Y-47240000D01*
X94470000Y-107790000D02*
X122370000Y-107790000D01*
X122370000Y-135590000D01*
X94470000Y-135590000D01*
X94470000Y-107790000D01*
D13*
X134253333Y-118194819D02*
X133920000Y-117718628D01*
X133681905Y-118194819D02*
X133681905Y-117194819D01*
X133681905Y-117194819D02*
X134062857Y-117194819D01*
X134062857Y-117194819D02*
X134158095Y-117242438D01*
X134158095Y-117242438D02*
X134205714Y-117290057D01*
X134205714Y-117290057D02*
X134253333Y-117385295D01*
X134253333Y-117385295D02*
X134253333Y-117528152D01*
X134253333Y-117528152D02*
X134205714Y-117623390D01*
X134205714Y-117623390D02*
X134158095Y-117671009D01*
X134158095Y-117671009D02*
X134062857Y-117718628D01*
X134062857Y-117718628D02*
X133681905Y-117718628D01*
X135205714Y-118194819D02*
X134634286Y-118194819D01*
X134920000Y-118194819D02*
X134920000Y-117194819D01*
X134920000Y-117194819D02*
X134824762Y-117337676D01*
X134824762Y-117337676D02*
X134729524Y-117432914D01*
X134729524Y-117432914D02*
X134634286Y-117480533D01*
D10*
X179723884Y-50312419D02*
X179723884Y-49312419D01*
X179723884Y-49312419D02*
X180057217Y-50026704D01*
X180057217Y-50026704D02*
X180390550Y-49312419D01*
X180390550Y-49312419D02*
X180390550Y-50312419D01*
X180866741Y-50312419D02*
X180866741Y-49645752D01*
X180866741Y-49312419D02*
X180819122Y-49360038D01*
X180819122Y-49360038D02*
X180866741Y-49407657D01*
X180866741Y-49407657D02*
X180914360Y-49360038D01*
X180914360Y-49360038D02*
X180866741Y-49312419D01*
X180866741Y-49312419D02*
X180866741Y-49407657D01*
X181771502Y-50264800D02*
X181676264Y-50312419D01*
X181676264Y-50312419D02*
X181485788Y-50312419D01*
X181485788Y-50312419D02*
X181390550Y-50264800D01*
X181390550Y-50264800D02*
X181342931Y-50217180D01*
X181342931Y-50217180D02*
X181295312Y-50121942D01*
X181295312Y-50121942D02*
X181295312Y-49836228D01*
X181295312Y-49836228D02*
X181342931Y-49740990D01*
X181342931Y-49740990D02*
X181390550Y-49693371D01*
X181390550Y-49693371D02*
X181485788Y-49645752D01*
X181485788Y-49645752D02*
X181676264Y-49645752D01*
X181676264Y-49645752D02*
X181771502Y-49693371D01*
X182200074Y-50312419D02*
X182200074Y-49645752D01*
X182200074Y-49836228D02*
X182247693Y-49740990D01*
X182247693Y-49740990D02*
X182295312Y-49693371D01*
X182295312Y-49693371D02*
X182390550Y-49645752D01*
X182390550Y-49645752D02*
X182485788Y-49645752D01*
X182961979Y-50312419D02*
X182866741Y-50264800D01*
X182866741Y-50264800D02*
X182819122Y-50217180D01*
X182819122Y-50217180D02*
X182771503Y-50121942D01*
X182771503Y-50121942D02*
X182771503Y-49836228D01*
X182771503Y-49836228D02*
X182819122Y-49740990D01*
X182819122Y-49740990D02*
X182866741Y-49693371D01*
X182866741Y-49693371D02*
X182961979Y-49645752D01*
X182961979Y-49645752D02*
X183104836Y-49645752D01*
X183104836Y-49645752D02*
X183200074Y-49693371D01*
X183200074Y-49693371D02*
X183247693Y-49740990D01*
X183247693Y-49740990D02*
X183295312Y-49836228D01*
X183295312Y-49836228D02*
X183295312Y-50121942D01*
X183295312Y-50121942D02*
X183247693Y-50217180D01*
X183247693Y-50217180D02*
X183200074Y-50264800D01*
X183200074Y-50264800D02*
X183104836Y-50312419D01*
X183104836Y-50312419D02*
X182961979Y-50312419D01*
X184152455Y-50264800D02*
X184057217Y-50312419D01*
X184057217Y-50312419D02*
X183866741Y-50312419D01*
X183866741Y-50312419D02*
X183771503Y-50264800D01*
X183771503Y-50264800D02*
X183723884Y-50217180D01*
X183723884Y-50217180D02*
X183676265Y-50121942D01*
X183676265Y-50121942D02*
X183676265Y-49836228D01*
X183676265Y-49836228D02*
X183723884Y-49740990D01*
X183723884Y-49740990D02*
X183771503Y-49693371D01*
X183771503Y-49693371D02*
X183866741Y-49645752D01*
X183866741Y-49645752D02*
X184057217Y-49645752D01*
X184057217Y-49645752D02*
X184152455Y-49693371D01*
X184723884Y-50312419D02*
X184628646Y-50264800D01*
X184628646Y-50264800D02*
X184581027Y-50217180D01*
X184581027Y-50217180D02*
X184533408Y-50121942D01*
X184533408Y-50121942D02*
X184533408Y-49836228D01*
X184533408Y-49836228D02*
X184581027Y-49740990D01*
X184581027Y-49740990D02*
X184628646Y-49693371D01*
X184628646Y-49693371D02*
X184723884Y-49645752D01*
X184723884Y-49645752D02*
X184866741Y-49645752D01*
X184866741Y-49645752D02*
X184961979Y-49693371D01*
X184961979Y-49693371D02*
X185009598Y-49740990D01*
X185009598Y-49740990D02*
X185057217Y-49836228D01*
X185057217Y-49836228D02*
X185057217Y-50121942D01*
X185057217Y-50121942D02*
X185009598Y-50217180D01*
X185009598Y-50217180D02*
X184961979Y-50264800D01*
X184961979Y-50264800D02*
X184866741Y-50312419D01*
X184866741Y-50312419D02*
X184723884Y-50312419D01*
X185485789Y-49645752D02*
X185485789Y-50312419D01*
X185485789Y-49740990D02*
X185533408Y-49693371D01*
X185533408Y-49693371D02*
X185628646Y-49645752D01*
X185628646Y-49645752D02*
X185771503Y-49645752D01*
X185771503Y-49645752D02*
X185866741Y-49693371D01*
X185866741Y-49693371D02*
X185914360Y-49788609D01*
X185914360Y-49788609D02*
X185914360Y-50312419D01*
X186247694Y-49645752D02*
X186628646Y-49645752D01*
X186390551Y-49312419D02*
X186390551Y-50169561D01*
X186390551Y-50169561D02*
X186438170Y-50264800D01*
X186438170Y-50264800D02*
X186533408Y-50312419D01*
X186533408Y-50312419D02*
X186628646Y-50312419D01*
X186961980Y-50312419D02*
X186961980Y-49645752D01*
X186961980Y-49836228D02*
X187009599Y-49740990D01*
X187009599Y-49740990D02*
X187057218Y-49693371D01*
X187057218Y-49693371D02*
X187152456Y-49645752D01*
X187152456Y-49645752D02*
X187247694Y-49645752D01*
X187723885Y-50312419D02*
X187628647Y-50264800D01*
X187628647Y-50264800D02*
X187581028Y-50217180D01*
X187581028Y-50217180D02*
X187533409Y-50121942D01*
X187533409Y-50121942D02*
X187533409Y-49836228D01*
X187533409Y-49836228D02*
X187581028Y-49740990D01*
X187581028Y-49740990D02*
X187628647Y-49693371D01*
X187628647Y-49693371D02*
X187723885Y-49645752D01*
X187723885Y-49645752D02*
X187866742Y-49645752D01*
X187866742Y-49645752D02*
X187961980Y-49693371D01*
X187961980Y-49693371D02*
X188009599Y-49740990D01*
X188009599Y-49740990D02*
X188057218Y-49836228D01*
X188057218Y-49836228D02*
X188057218Y-50121942D01*
X188057218Y-50121942D02*
X188009599Y-50217180D01*
X188009599Y-50217180D02*
X187961980Y-50264800D01*
X187961980Y-50264800D02*
X187866742Y-50312419D01*
X187866742Y-50312419D02*
X187723885Y-50312419D01*
X188628647Y-50312419D02*
X188533409Y-50264800D01*
X188533409Y-50264800D02*
X188485790Y-50169561D01*
X188485790Y-50169561D02*
X188485790Y-49312419D01*
X189152457Y-50312419D02*
X189057219Y-50264800D01*
X189057219Y-50264800D02*
X189009600Y-50169561D01*
X189009600Y-50169561D02*
X189009600Y-49312419D01*
X189914362Y-50264800D02*
X189819124Y-50312419D01*
X189819124Y-50312419D02*
X189628648Y-50312419D01*
X189628648Y-50312419D02*
X189533410Y-50264800D01*
X189533410Y-50264800D02*
X189485791Y-50169561D01*
X189485791Y-50169561D02*
X189485791Y-49788609D01*
X189485791Y-49788609D02*
X189533410Y-49693371D01*
X189533410Y-49693371D02*
X189628648Y-49645752D01*
X189628648Y-49645752D02*
X189819124Y-49645752D01*
X189819124Y-49645752D02*
X189914362Y-49693371D01*
X189914362Y-49693371D02*
X189961981Y-49788609D01*
X189961981Y-49788609D02*
X189961981Y-49883847D01*
X189961981Y-49883847D02*
X189485791Y-49979085D01*
X190390553Y-50312419D02*
X190390553Y-49645752D01*
X190390553Y-49836228D02*
X190438172Y-49740990D01*
X190438172Y-49740990D02*
X190485791Y-49693371D01*
X190485791Y-49693371D02*
X190581029Y-49645752D01*
X190581029Y-49645752D02*
X190676267Y-49645752D01*
X191628649Y-49645752D02*
X192009601Y-49645752D01*
X191771506Y-49312419D02*
X191771506Y-50169561D01*
X191771506Y-50169561D02*
X191819125Y-50264800D01*
X191819125Y-50264800D02*
X191914363Y-50312419D01*
X191914363Y-50312419D02*
X192009601Y-50312419D01*
X192485792Y-50312419D02*
X192390554Y-50264800D01*
X192390554Y-50264800D02*
X192342935Y-50217180D01*
X192342935Y-50217180D02*
X192295316Y-50121942D01*
X192295316Y-50121942D02*
X192295316Y-49836228D01*
X192295316Y-49836228D02*
X192342935Y-49740990D01*
X192342935Y-49740990D02*
X192390554Y-49693371D01*
X192390554Y-49693371D02*
X192485792Y-49645752D01*
X192485792Y-49645752D02*
X192628649Y-49645752D01*
X192628649Y-49645752D02*
X192723887Y-49693371D01*
X192723887Y-49693371D02*
X192771506Y-49740990D01*
X192771506Y-49740990D02*
X192819125Y-49836228D01*
X192819125Y-49836228D02*
X192819125Y-50121942D01*
X192819125Y-50121942D02*
X192771506Y-50217180D01*
X192771506Y-50217180D02*
X192723887Y-50264800D01*
X192723887Y-50264800D02*
X192628649Y-50312419D01*
X192628649Y-50312419D02*
X192485792Y-50312419D01*
X193247697Y-49645752D02*
X193247697Y-50645752D01*
X193247697Y-49693371D02*
X193342935Y-49645752D01*
X193342935Y-49645752D02*
X193533411Y-49645752D01*
X193533411Y-49645752D02*
X193628649Y-49693371D01*
X193628649Y-49693371D02*
X193676268Y-49740990D01*
X193676268Y-49740990D02*
X193723887Y-49836228D01*
X193723887Y-49836228D02*
X193723887Y-50121942D01*
X193723887Y-50121942D02*
X193676268Y-50217180D01*
X193676268Y-50217180D02*
X193628649Y-50264800D01*
X193628649Y-50264800D02*
X193533411Y-50312419D01*
X193533411Y-50312419D02*
X193342935Y-50312419D01*
X193342935Y-50312419D02*
X193247697Y-50264800D01*
D13*
X115687319Y-68853094D02*
X114687319Y-68853094D01*
X114687319Y-68853094D02*
X114687319Y-68614999D01*
X114687319Y-68614999D02*
X114734938Y-68472142D01*
X114734938Y-68472142D02*
X114830176Y-68376904D01*
X114830176Y-68376904D02*
X114925414Y-68329285D01*
X114925414Y-68329285D02*
X115115890Y-68281666D01*
X115115890Y-68281666D02*
X115258747Y-68281666D01*
X115258747Y-68281666D02*
X115449223Y-68329285D01*
X115449223Y-68329285D02*
X115544461Y-68376904D01*
X115544461Y-68376904D02*
X115639700Y-68472142D01*
X115639700Y-68472142D02*
X115687319Y-68614999D01*
X115687319Y-68614999D02*
X115687319Y-68853094D01*
X115687319Y-67329285D02*
X115687319Y-67900713D01*
X115687319Y-67614999D02*
X114687319Y-67614999D01*
X114687319Y-67614999D02*
X114830176Y-67710237D01*
X114830176Y-67710237D02*
X114925414Y-67805475D01*
X114925414Y-67805475D02*
X114973033Y-67900713D01*
X155888095Y-48814819D02*
X155888095Y-49624342D01*
X155888095Y-49624342D02*
X155935714Y-49719580D01*
X155935714Y-49719580D02*
X155983333Y-49767200D01*
X155983333Y-49767200D02*
X156078571Y-49814819D01*
X156078571Y-49814819D02*
X156269047Y-49814819D01*
X156269047Y-49814819D02*
X156364285Y-49767200D01*
X156364285Y-49767200D02*
X156411904Y-49719580D01*
X156411904Y-49719580D02*
X156459523Y-49624342D01*
X156459523Y-49624342D02*
X156459523Y-48814819D01*
X156888095Y-48910057D02*
X156935714Y-48862438D01*
X156935714Y-48862438D02*
X157030952Y-48814819D01*
X157030952Y-48814819D02*
X157269047Y-48814819D01*
X157269047Y-48814819D02*
X157364285Y-48862438D01*
X157364285Y-48862438D02*
X157411904Y-48910057D01*
X157411904Y-48910057D02*
X157459523Y-49005295D01*
X157459523Y-49005295D02*
X157459523Y-49100533D01*
X157459523Y-49100533D02*
X157411904Y-49243390D01*
X157411904Y-49243390D02*
X156840476Y-49814819D01*
X156840476Y-49814819D02*
X157459523Y-49814819D01*
X72827142Y-98779580D02*
X72779523Y-98827200D01*
X72779523Y-98827200D02*
X72636666Y-98874819D01*
X72636666Y-98874819D02*
X72541428Y-98874819D01*
X72541428Y-98874819D02*
X72398571Y-98827200D01*
X72398571Y-98827200D02*
X72303333Y-98731961D01*
X72303333Y-98731961D02*
X72255714Y-98636723D01*
X72255714Y-98636723D02*
X72208095Y-98446247D01*
X72208095Y-98446247D02*
X72208095Y-98303390D01*
X72208095Y-98303390D02*
X72255714Y-98112914D01*
X72255714Y-98112914D02*
X72303333Y-98017676D01*
X72303333Y-98017676D02*
X72398571Y-97922438D01*
X72398571Y-97922438D02*
X72541428Y-97874819D01*
X72541428Y-97874819D02*
X72636666Y-97874819D01*
X72636666Y-97874819D02*
X72779523Y-97922438D01*
X72779523Y-97922438D02*
X72827142Y-97970057D01*
X73779523Y-98874819D02*
X73208095Y-98874819D01*
X73493809Y-98874819D02*
X73493809Y-97874819D01*
X73493809Y-97874819D02*
X73398571Y-98017676D01*
X73398571Y-98017676D02*
X73303333Y-98112914D01*
X73303333Y-98112914D02*
X73208095Y-98160533D01*
X74731904Y-98874819D02*
X74160476Y-98874819D01*
X74446190Y-98874819D02*
X74446190Y-97874819D01*
X74446190Y-97874819D02*
X74350952Y-98017676D01*
X74350952Y-98017676D02*
X74255714Y-98112914D01*
X74255714Y-98112914D02*
X74160476Y-98160533D01*
X152959580Y-134356666D02*
X153007200Y-134404285D01*
X153007200Y-134404285D02*
X153054819Y-134547142D01*
X153054819Y-134547142D02*
X153054819Y-134642380D01*
X153054819Y-134642380D02*
X153007200Y-134785237D01*
X153007200Y-134785237D02*
X152911961Y-134880475D01*
X152911961Y-134880475D02*
X152816723Y-134928094D01*
X152816723Y-134928094D02*
X152626247Y-134975713D01*
X152626247Y-134975713D02*
X152483390Y-134975713D01*
X152483390Y-134975713D02*
X152292914Y-134928094D01*
X152292914Y-134928094D02*
X152197676Y-134880475D01*
X152197676Y-134880475D02*
X152102438Y-134785237D01*
X152102438Y-134785237D02*
X152054819Y-134642380D01*
X152054819Y-134642380D02*
X152054819Y-134547142D01*
X152054819Y-134547142D02*
X152102438Y-134404285D01*
X152102438Y-134404285D02*
X152150057Y-134356666D01*
X152150057Y-133975713D02*
X152102438Y-133928094D01*
X152102438Y-133928094D02*
X152054819Y-133832856D01*
X152054819Y-133832856D02*
X152054819Y-133594761D01*
X152054819Y-133594761D02*
X152102438Y-133499523D01*
X152102438Y-133499523D02*
X152150057Y-133451904D01*
X152150057Y-133451904D02*
X152245295Y-133404285D01*
X152245295Y-133404285D02*
X152340533Y-133404285D01*
X152340533Y-133404285D02*
X152483390Y-133451904D01*
X152483390Y-133451904D02*
X153054819Y-134023332D01*
X153054819Y-134023332D02*
X153054819Y-133404285D01*
X88336666Y-49574819D02*
X88336666Y-50289104D01*
X88336666Y-50289104D02*
X88289047Y-50431961D01*
X88289047Y-50431961D02*
X88193809Y-50527200D01*
X88193809Y-50527200D02*
X88050952Y-50574819D01*
X88050952Y-50574819D02*
X87955714Y-50574819D01*
X88765238Y-49670057D02*
X88812857Y-49622438D01*
X88812857Y-49622438D02*
X88908095Y-49574819D01*
X88908095Y-49574819D02*
X89146190Y-49574819D01*
X89146190Y-49574819D02*
X89241428Y-49622438D01*
X89241428Y-49622438D02*
X89289047Y-49670057D01*
X89289047Y-49670057D02*
X89336666Y-49765295D01*
X89336666Y-49765295D02*
X89336666Y-49860533D01*
X89336666Y-49860533D02*
X89289047Y-50003390D01*
X89289047Y-50003390D02*
X88717619Y-50574819D01*
X88717619Y-50574819D02*
X89336666Y-50574819D01*
X88753333Y-109044819D02*
X88420000Y-108568628D01*
X88181905Y-109044819D02*
X88181905Y-108044819D01*
X88181905Y-108044819D02*
X88562857Y-108044819D01*
X88562857Y-108044819D02*
X88658095Y-108092438D01*
X88658095Y-108092438D02*
X88705714Y-108140057D01*
X88705714Y-108140057D02*
X88753333Y-108235295D01*
X88753333Y-108235295D02*
X88753333Y-108378152D01*
X88753333Y-108378152D02*
X88705714Y-108473390D01*
X88705714Y-108473390D02*
X88658095Y-108521009D01*
X88658095Y-108521009D02*
X88562857Y-108568628D01*
X88562857Y-108568628D02*
X88181905Y-108568628D01*
X89610476Y-108044819D02*
X89420000Y-108044819D01*
X89420000Y-108044819D02*
X89324762Y-108092438D01*
X89324762Y-108092438D02*
X89277143Y-108140057D01*
X89277143Y-108140057D02*
X89181905Y-108282914D01*
X89181905Y-108282914D02*
X89134286Y-108473390D01*
X89134286Y-108473390D02*
X89134286Y-108854342D01*
X89134286Y-108854342D02*
X89181905Y-108949580D01*
X89181905Y-108949580D02*
X89229524Y-108997200D01*
X89229524Y-108997200D02*
X89324762Y-109044819D01*
X89324762Y-109044819D02*
X89515238Y-109044819D01*
X89515238Y-109044819D02*
X89610476Y-108997200D01*
X89610476Y-108997200D02*
X89658095Y-108949580D01*
X89658095Y-108949580D02*
X89705714Y-108854342D01*
X89705714Y-108854342D02*
X89705714Y-108616247D01*
X89705714Y-108616247D02*
X89658095Y-108521009D01*
X89658095Y-108521009D02*
X89610476Y-108473390D01*
X89610476Y-108473390D02*
X89515238Y-108425771D01*
X89515238Y-108425771D02*
X89324762Y-108425771D01*
X89324762Y-108425771D02*
X89229524Y-108473390D01*
X89229524Y-108473390D02*
X89181905Y-108521009D01*
X89181905Y-108521009D02*
X89134286Y-108616247D01*
X150253333Y-118544819D02*
X149920000Y-118068628D01*
X149681905Y-118544819D02*
X149681905Y-117544819D01*
X149681905Y-117544819D02*
X150062857Y-117544819D01*
X150062857Y-117544819D02*
X150158095Y-117592438D01*
X150158095Y-117592438D02*
X150205714Y-117640057D01*
X150205714Y-117640057D02*
X150253333Y-117735295D01*
X150253333Y-117735295D02*
X150253333Y-117878152D01*
X150253333Y-117878152D02*
X150205714Y-117973390D01*
X150205714Y-117973390D02*
X150158095Y-118021009D01*
X150158095Y-118021009D02*
X150062857Y-118068628D01*
X150062857Y-118068628D02*
X149681905Y-118068628D01*
X150634286Y-117640057D02*
X150681905Y-117592438D01*
X150681905Y-117592438D02*
X150777143Y-117544819D01*
X150777143Y-117544819D02*
X151015238Y-117544819D01*
X151015238Y-117544819D02*
X151110476Y-117592438D01*
X151110476Y-117592438D02*
X151158095Y-117640057D01*
X151158095Y-117640057D02*
X151205714Y-117735295D01*
X151205714Y-117735295D02*
X151205714Y-117830533D01*
X151205714Y-117830533D02*
X151158095Y-117973390D01*
X151158095Y-117973390D02*
X150586667Y-118544819D01*
X150586667Y-118544819D02*
X151205714Y-118544819D01*
X113384819Y-130451904D02*
X114194342Y-130451904D01*
X114194342Y-130451904D02*
X114289580Y-130404285D01*
X114289580Y-130404285D02*
X114337200Y-130356666D01*
X114337200Y-130356666D02*
X114384819Y-130261428D01*
X114384819Y-130261428D02*
X114384819Y-130070952D01*
X114384819Y-130070952D02*
X114337200Y-129975714D01*
X114337200Y-129975714D02*
X114289580Y-129928095D01*
X114289580Y-129928095D02*
X114194342Y-129880476D01*
X114194342Y-129880476D02*
X113384819Y-129880476D01*
X113384819Y-128928095D02*
X113384819Y-129404285D01*
X113384819Y-129404285D02*
X113861009Y-129451904D01*
X113861009Y-129451904D02*
X113813390Y-129404285D01*
X113813390Y-129404285D02*
X113765771Y-129309047D01*
X113765771Y-129309047D02*
X113765771Y-129070952D01*
X113765771Y-129070952D02*
X113813390Y-128975714D01*
X113813390Y-128975714D02*
X113861009Y-128928095D01*
X113861009Y-128928095D02*
X113956247Y-128880476D01*
X113956247Y-128880476D02*
X114194342Y-128880476D01*
X114194342Y-128880476D02*
X114289580Y-128928095D01*
X114289580Y-128928095D02*
X114337200Y-128975714D01*
X114337200Y-128975714D02*
X114384819Y-129070952D01*
X114384819Y-129070952D02*
X114384819Y-129309047D01*
X114384819Y-129309047D02*
X114337200Y-129404285D01*
X114337200Y-129404285D02*
X114289580Y-129451904D01*
X118878333Y-73309819D02*
X118402143Y-73309819D01*
X118402143Y-73309819D02*
X118402143Y-72309819D01*
X119735476Y-73309819D02*
X119164048Y-73309819D01*
X119449762Y-73309819D02*
X119449762Y-72309819D01*
X119449762Y-72309819D02*
X119354524Y-72452676D01*
X119354524Y-72452676D02*
X119259286Y-72547914D01*
X119259286Y-72547914D02*
X119164048Y-72595533D01*
X181086667Y-123347200D02*
X181229524Y-123394819D01*
X181229524Y-123394819D02*
X181467619Y-123394819D01*
X181467619Y-123394819D02*
X181562857Y-123347200D01*
X181562857Y-123347200D02*
X181610476Y-123299580D01*
X181610476Y-123299580D02*
X181658095Y-123204342D01*
X181658095Y-123204342D02*
X181658095Y-123109104D01*
X181658095Y-123109104D02*
X181610476Y-123013866D01*
X181610476Y-123013866D02*
X181562857Y-122966247D01*
X181562857Y-122966247D02*
X181467619Y-122918628D01*
X181467619Y-122918628D02*
X181277143Y-122871009D01*
X181277143Y-122871009D02*
X181181905Y-122823390D01*
X181181905Y-122823390D02*
X181134286Y-122775771D01*
X181134286Y-122775771D02*
X181086667Y-122680533D01*
X181086667Y-122680533D02*
X181086667Y-122585295D01*
X181086667Y-122585295D02*
X181134286Y-122490057D01*
X181134286Y-122490057D02*
X181181905Y-122442438D01*
X181181905Y-122442438D02*
X181277143Y-122394819D01*
X181277143Y-122394819D02*
X181515238Y-122394819D01*
X181515238Y-122394819D02*
X181658095Y-122442438D01*
X181991429Y-122394819D02*
X182229524Y-123394819D01*
X182229524Y-123394819D02*
X182420000Y-122680533D01*
X182420000Y-122680533D02*
X182610476Y-123394819D01*
X182610476Y-123394819D02*
X182848572Y-122394819D01*
X183658095Y-122728152D02*
X183658095Y-123394819D01*
X183420000Y-122347200D02*
X183181905Y-123061485D01*
X183181905Y-123061485D02*
X183800952Y-123061485D01*
X75948628Y-92716190D02*
X76424819Y-92716190D01*
X75424819Y-93049523D02*
X75948628Y-92716190D01*
X75948628Y-92716190D02*
X75424819Y-92382857D01*
X75520057Y-92097142D02*
X75472438Y-92049523D01*
X75472438Y-92049523D02*
X75424819Y-91954285D01*
X75424819Y-91954285D02*
X75424819Y-91716190D01*
X75424819Y-91716190D02*
X75472438Y-91620952D01*
X75472438Y-91620952D02*
X75520057Y-91573333D01*
X75520057Y-91573333D02*
X75615295Y-91525714D01*
X75615295Y-91525714D02*
X75710533Y-91525714D01*
X75710533Y-91525714D02*
X75853390Y-91573333D01*
X75853390Y-91573333D02*
X76424819Y-92144761D01*
X76424819Y-92144761D02*
X76424819Y-91525714D01*
X90024819Y-99406666D02*
X89548628Y-99739999D01*
X90024819Y-99978094D02*
X89024819Y-99978094D01*
X89024819Y-99978094D02*
X89024819Y-99597142D01*
X89024819Y-99597142D02*
X89072438Y-99501904D01*
X89072438Y-99501904D02*
X89120057Y-99454285D01*
X89120057Y-99454285D02*
X89215295Y-99406666D01*
X89215295Y-99406666D02*
X89358152Y-99406666D01*
X89358152Y-99406666D02*
X89453390Y-99454285D01*
X89453390Y-99454285D02*
X89501009Y-99501904D01*
X89501009Y-99501904D02*
X89548628Y-99597142D01*
X89548628Y-99597142D02*
X89548628Y-99978094D01*
X89024819Y-99073332D02*
X89024819Y-98406666D01*
X89024819Y-98406666D02*
X90024819Y-98835237D01*
X132606667Y-123347200D02*
X132749524Y-123394819D01*
X132749524Y-123394819D02*
X132987619Y-123394819D01*
X132987619Y-123394819D02*
X133082857Y-123347200D01*
X133082857Y-123347200D02*
X133130476Y-123299580D01*
X133130476Y-123299580D02*
X133178095Y-123204342D01*
X133178095Y-123204342D02*
X133178095Y-123109104D01*
X133178095Y-123109104D02*
X133130476Y-123013866D01*
X133130476Y-123013866D02*
X133082857Y-122966247D01*
X133082857Y-122966247D02*
X132987619Y-122918628D01*
X132987619Y-122918628D02*
X132797143Y-122871009D01*
X132797143Y-122871009D02*
X132701905Y-122823390D01*
X132701905Y-122823390D02*
X132654286Y-122775771D01*
X132654286Y-122775771D02*
X132606667Y-122680533D01*
X132606667Y-122680533D02*
X132606667Y-122585295D01*
X132606667Y-122585295D02*
X132654286Y-122490057D01*
X132654286Y-122490057D02*
X132701905Y-122442438D01*
X132701905Y-122442438D02*
X132797143Y-122394819D01*
X132797143Y-122394819D02*
X133035238Y-122394819D01*
X133035238Y-122394819D02*
X133178095Y-122442438D01*
X133511429Y-122394819D02*
X133749524Y-123394819D01*
X133749524Y-123394819D02*
X133940000Y-122680533D01*
X133940000Y-122680533D02*
X134130476Y-123394819D01*
X134130476Y-123394819D02*
X134368572Y-122394819D01*
X135273333Y-123394819D02*
X134701905Y-123394819D01*
X134987619Y-123394819D02*
X134987619Y-122394819D01*
X134987619Y-122394819D02*
X134892381Y-122537676D01*
X134892381Y-122537676D02*
X134797143Y-122632914D01*
X134797143Y-122632914D02*
X134701905Y-122680533D01*
X164276667Y-123297200D02*
X164419524Y-123344819D01*
X164419524Y-123344819D02*
X164657619Y-123344819D01*
X164657619Y-123344819D02*
X164752857Y-123297200D01*
X164752857Y-123297200D02*
X164800476Y-123249580D01*
X164800476Y-123249580D02*
X164848095Y-123154342D01*
X164848095Y-123154342D02*
X164848095Y-123059104D01*
X164848095Y-123059104D02*
X164800476Y-122963866D01*
X164800476Y-122963866D02*
X164752857Y-122916247D01*
X164752857Y-122916247D02*
X164657619Y-122868628D01*
X164657619Y-122868628D02*
X164467143Y-122821009D01*
X164467143Y-122821009D02*
X164371905Y-122773390D01*
X164371905Y-122773390D02*
X164324286Y-122725771D01*
X164324286Y-122725771D02*
X164276667Y-122630533D01*
X164276667Y-122630533D02*
X164276667Y-122535295D01*
X164276667Y-122535295D02*
X164324286Y-122440057D01*
X164324286Y-122440057D02*
X164371905Y-122392438D01*
X164371905Y-122392438D02*
X164467143Y-122344819D01*
X164467143Y-122344819D02*
X164705238Y-122344819D01*
X164705238Y-122344819D02*
X164848095Y-122392438D01*
X165181429Y-122344819D02*
X165419524Y-123344819D01*
X165419524Y-123344819D02*
X165610000Y-122630533D01*
X165610000Y-122630533D02*
X165800476Y-123344819D01*
X165800476Y-123344819D02*
X166038572Y-122344819D01*
X166324286Y-122344819D02*
X166943333Y-122344819D01*
X166943333Y-122344819D02*
X166610000Y-122725771D01*
X166610000Y-122725771D02*
X166752857Y-122725771D01*
X166752857Y-122725771D02*
X166848095Y-122773390D01*
X166848095Y-122773390D02*
X166895714Y-122821009D01*
X166895714Y-122821009D02*
X166943333Y-122916247D01*
X166943333Y-122916247D02*
X166943333Y-123154342D01*
X166943333Y-123154342D02*
X166895714Y-123249580D01*
X166895714Y-123249580D02*
X166848095Y-123297200D01*
X166848095Y-123297200D02*
X166752857Y-123344819D01*
X166752857Y-123344819D02*
X166467143Y-123344819D01*
X166467143Y-123344819D02*
X166371905Y-123297200D01*
X166371905Y-123297200D02*
X166324286Y-123249580D01*
X107853333Y-59799580D02*
X107805714Y-59847200D01*
X107805714Y-59847200D02*
X107662857Y-59894819D01*
X107662857Y-59894819D02*
X107567619Y-59894819D01*
X107567619Y-59894819D02*
X107424762Y-59847200D01*
X107424762Y-59847200D02*
X107329524Y-59751961D01*
X107329524Y-59751961D02*
X107281905Y-59656723D01*
X107281905Y-59656723D02*
X107234286Y-59466247D01*
X107234286Y-59466247D02*
X107234286Y-59323390D01*
X107234286Y-59323390D02*
X107281905Y-59132914D01*
X107281905Y-59132914D02*
X107329524Y-59037676D01*
X107329524Y-59037676D02*
X107424762Y-58942438D01*
X107424762Y-58942438D02*
X107567619Y-58894819D01*
X107567619Y-58894819D02*
X107662857Y-58894819D01*
X107662857Y-58894819D02*
X107805714Y-58942438D01*
X107805714Y-58942438D02*
X107853333Y-58990057D01*
X108424762Y-59323390D02*
X108329524Y-59275771D01*
X108329524Y-59275771D02*
X108281905Y-59228152D01*
X108281905Y-59228152D02*
X108234286Y-59132914D01*
X108234286Y-59132914D02*
X108234286Y-59085295D01*
X108234286Y-59085295D02*
X108281905Y-58990057D01*
X108281905Y-58990057D02*
X108329524Y-58942438D01*
X108329524Y-58942438D02*
X108424762Y-58894819D01*
X108424762Y-58894819D02*
X108615238Y-58894819D01*
X108615238Y-58894819D02*
X108710476Y-58942438D01*
X108710476Y-58942438D02*
X108758095Y-58990057D01*
X108758095Y-58990057D02*
X108805714Y-59085295D01*
X108805714Y-59085295D02*
X108805714Y-59132914D01*
X108805714Y-59132914D02*
X108758095Y-59228152D01*
X108758095Y-59228152D02*
X108710476Y-59275771D01*
X108710476Y-59275771D02*
X108615238Y-59323390D01*
X108615238Y-59323390D02*
X108424762Y-59323390D01*
X108424762Y-59323390D02*
X108329524Y-59371009D01*
X108329524Y-59371009D02*
X108281905Y-59418628D01*
X108281905Y-59418628D02*
X108234286Y-59513866D01*
X108234286Y-59513866D02*
X108234286Y-59704342D01*
X108234286Y-59704342D02*
X108281905Y-59799580D01*
X108281905Y-59799580D02*
X108329524Y-59847200D01*
X108329524Y-59847200D02*
X108424762Y-59894819D01*
X108424762Y-59894819D02*
X108615238Y-59894819D01*
X108615238Y-59894819D02*
X108710476Y-59847200D01*
X108710476Y-59847200D02*
X108758095Y-59799580D01*
X108758095Y-59799580D02*
X108805714Y-59704342D01*
X108805714Y-59704342D02*
X108805714Y-59513866D01*
X108805714Y-59513866D02*
X108758095Y-59418628D01*
X108758095Y-59418628D02*
X108710476Y-59371009D01*
X108710476Y-59371009D02*
X108615238Y-59323390D01*
X181253333Y-118544819D02*
X180920000Y-118068628D01*
X180681905Y-118544819D02*
X180681905Y-117544819D01*
X180681905Y-117544819D02*
X181062857Y-117544819D01*
X181062857Y-117544819D02*
X181158095Y-117592438D01*
X181158095Y-117592438D02*
X181205714Y-117640057D01*
X181205714Y-117640057D02*
X181253333Y-117735295D01*
X181253333Y-117735295D02*
X181253333Y-117878152D01*
X181253333Y-117878152D02*
X181205714Y-117973390D01*
X181205714Y-117973390D02*
X181158095Y-118021009D01*
X181158095Y-118021009D02*
X181062857Y-118068628D01*
X181062857Y-118068628D02*
X180681905Y-118068628D01*
X182110476Y-117878152D02*
X182110476Y-118544819D01*
X181872381Y-117497200D02*
X181634286Y-118211485D01*
X181634286Y-118211485D02*
X182253333Y-118211485D01*
X81351009Y-107775714D02*
X81398628Y-107632857D01*
X81398628Y-107632857D02*
X81446247Y-107585238D01*
X81446247Y-107585238D02*
X81541485Y-107537619D01*
X81541485Y-107537619D02*
X81684342Y-107537619D01*
X81684342Y-107537619D02*
X81779580Y-107585238D01*
X81779580Y-107585238D02*
X81827200Y-107632857D01*
X81827200Y-107632857D02*
X81874819Y-107728095D01*
X81874819Y-107728095D02*
X81874819Y-108109047D01*
X81874819Y-108109047D02*
X80874819Y-108109047D01*
X80874819Y-108109047D02*
X80874819Y-107775714D01*
X80874819Y-107775714D02*
X80922438Y-107680476D01*
X80922438Y-107680476D02*
X80970057Y-107632857D01*
X80970057Y-107632857D02*
X81065295Y-107585238D01*
X81065295Y-107585238D02*
X81160533Y-107585238D01*
X81160533Y-107585238D02*
X81255771Y-107632857D01*
X81255771Y-107632857D02*
X81303390Y-107680476D01*
X81303390Y-107680476D02*
X81351009Y-107775714D01*
X81351009Y-107775714D02*
X81351009Y-108109047D01*
X80874819Y-107251904D02*
X80874819Y-106680476D01*
X81874819Y-106966190D02*
X80874819Y-106966190D01*
X81874819Y-105823333D02*
X81874819Y-106394761D01*
X81874819Y-106109047D02*
X80874819Y-106109047D01*
X80874819Y-106109047D02*
X81017676Y-106204285D01*
X81017676Y-106204285D02*
X81112914Y-106299523D01*
X81112914Y-106299523D02*
X81160533Y-106394761D01*
X77034700Y-111561428D02*
X77034700Y-110418571D01*
X77606128Y-110989999D02*
X76463271Y-110989999D01*
X81658095Y-96044819D02*
X81658095Y-96854342D01*
X81658095Y-96854342D02*
X81705714Y-96949580D01*
X81705714Y-96949580D02*
X81753333Y-96997200D01*
X81753333Y-96997200D02*
X81848571Y-97044819D01*
X81848571Y-97044819D02*
X82039047Y-97044819D01*
X82039047Y-97044819D02*
X82134285Y-96997200D01*
X82134285Y-96997200D02*
X82181904Y-96949580D01*
X82181904Y-96949580D02*
X82229523Y-96854342D01*
X82229523Y-96854342D02*
X82229523Y-96044819D01*
X82610476Y-96044819D02*
X83229523Y-96044819D01*
X83229523Y-96044819D02*
X82896190Y-96425771D01*
X82896190Y-96425771D02*
X83039047Y-96425771D01*
X83039047Y-96425771D02*
X83134285Y-96473390D01*
X83134285Y-96473390D02*
X83181904Y-96521009D01*
X83181904Y-96521009D02*
X83229523Y-96616247D01*
X83229523Y-96616247D02*
X83229523Y-96854342D01*
X83229523Y-96854342D02*
X83181904Y-96949580D01*
X83181904Y-96949580D02*
X83134285Y-96997200D01*
X83134285Y-96997200D02*
X83039047Y-97044819D01*
X83039047Y-97044819D02*
X82753333Y-97044819D01*
X82753333Y-97044819D02*
X82658095Y-96997200D01*
X82658095Y-96997200D02*
X82610476Y-96949580D01*
X83538095Y-84694819D02*
X83538095Y-85504342D01*
X83538095Y-85504342D02*
X83585714Y-85599580D01*
X83585714Y-85599580D02*
X83633333Y-85647200D01*
X83633333Y-85647200D02*
X83728571Y-85694819D01*
X83728571Y-85694819D02*
X83919047Y-85694819D01*
X83919047Y-85694819D02*
X84014285Y-85647200D01*
X84014285Y-85647200D02*
X84061904Y-85599580D01*
X84061904Y-85599580D02*
X84109523Y-85504342D01*
X84109523Y-85504342D02*
X84109523Y-84694819D01*
X85014285Y-84694819D02*
X84823809Y-84694819D01*
X84823809Y-84694819D02*
X84728571Y-84742438D01*
X84728571Y-84742438D02*
X84680952Y-84790057D01*
X84680952Y-84790057D02*
X84585714Y-84932914D01*
X84585714Y-84932914D02*
X84538095Y-85123390D01*
X84538095Y-85123390D02*
X84538095Y-85504342D01*
X84538095Y-85504342D02*
X84585714Y-85599580D01*
X84585714Y-85599580D02*
X84633333Y-85647200D01*
X84633333Y-85647200D02*
X84728571Y-85694819D01*
X84728571Y-85694819D02*
X84919047Y-85694819D01*
X84919047Y-85694819D02*
X85014285Y-85647200D01*
X85014285Y-85647200D02*
X85061904Y-85599580D01*
X85061904Y-85599580D02*
X85109523Y-85504342D01*
X85109523Y-85504342D02*
X85109523Y-85266247D01*
X85109523Y-85266247D02*
X85061904Y-85171009D01*
X85061904Y-85171009D02*
X85014285Y-85123390D01*
X85014285Y-85123390D02*
X84919047Y-85075771D01*
X84919047Y-85075771D02*
X84728571Y-85075771D01*
X84728571Y-85075771D02*
X84633333Y-85123390D01*
X84633333Y-85123390D02*
X84585714Y-85171009D01*
X84585714Y-85171009D02*
X84538095Y-85266247D01*
X149126667Y-123347200D02*
X149269524Y-123394819D01*
X149269524Y-123394819D02*
X149507619Y-123394819D01*
X149507619Y-123394819D02*
X149602857Y-123347200D01*
X149602857Y-123347200D02*
X149650476Y-123299580D01*
X149650476Y-123299580D02*
X149698095Y-123204342D01*
X149698095Y-123204342D02*
X149698095Y-123109104D01*
X149698095Y-123109104D02*
X149650476Y-123013866D01*
X149650476Y-123013866D02*
X149602857Y-122966247D01*
X149602857Y-122966247D02*
X149507619Y-122918628D01*
X149507619Y-122918628D02*
X149317143Y-122871009D01*
X149317143Y-122871009D02*
X149221905Y-122823390D01*
X149221905Y-122823390D02*
X149174286Y-122775771D01*
X149174286Y-122775771D02*
X149126667Y-122680533D01*
X149126667Y-122680533D02*
X149126667Y-122585295D01*
X149126667Y-122585295D02*
X149174286Y-122490057D01*
X149174286Y-122490057D02*
X149221905Y-122442438D01*
X149221905Y-122442438D02*
X149317143Y-122394819D01*
X149317143Y-122394819D02*
X149555238Y-122394819D01*
X149555238Y-122394819D02*
X149698095Y-122442438D01*
X150031429Y-122394819D02*
X150269524Y-123394819D01*
X150269524Y-123394819D02*
X150460000Y-122680533D01*
X150460000Y-122680533D02*
X150650476Y-123394819D01*
X150650476Y-123394819D02*
X150888572Y-122394819D01*
X151221905Y-122490057D02*
X151269524Y-122442438D01*
X151269524Y-122442438D02*
X151364762Y-122394819D01*
X151364762Y-122394819D02*
X151602857Y-122394819D01*
X151602857Y-122394819D02*
X151698095Y-122442438D01*
X151698095Y-122442438D02*
X151745714Y-122490057D01*
X151745714Y-122490057D02*
X151793333Y-122585295D01*
X151793333Y-122585295D02*
X151793333Y-122680533D01*
X151793333Y-122680533D02*
X151745714Y-122823390D01*
X151745714Y-122823390D02*
X151174286Y-123394819D01*
X151174286Y-123394819D02*
X151793333Y-123394819D01*
X72777142Y-92779580D02*
X72729523Y-92827200D01*
X72729523Y-92827200D02*
X72586666Y-92874819D01*
X72586666Y-92874819D02*
X72491428Y-92874819D01*
X72491428Y-92874819D02*
X72348571Y-92827200D01*
X72348571Y-92827200D02*
X72253333Y-92731961D01*
X72253333Y-92731961D02*
X72205714Y-92636723D01*
X72205714Y-92636723D02*
X72158095Y-92446247D01*
X72158095Y-92446247D02*
X72158095Y-92303390D01*
X72158095Y-92303390D02*
X72205714Y-92112914D01*
X72205714Y-92112914D02*
X72253333Y-92017676D01*
X72253333Y-92017676D02*
X72348571Y-91922438D01*
X72348571Y-91922438D02*
X72491428Y-91874819D01*
X72491428Y-91874819D02*
X72586666Y-91874819D01*
X72586666Y-91874819D02*
X72729523Y-91922438D01*
X72729523Y-91922438D02*
X72777142Y-91970057D01*
X73729523Y-92874819D02*
X73158095Y-92874819D01*
X73443809Y-92874819D02*
X73443809Y-91874819D01*
X73443809Y-91874819D02*
X73348571Y-92017676D01*
X73348571Y-92017676D02*
X73253333Y-92112914D01*
X73253333Y-92112914D02*
X73158095Y-92160533D01*
X74348571Y-91874819D02*
X74443809Y-91874819D01*
X74443809Y-91874819D02*
X74539047Y-91922438D01*
X74539047Y-91922438D02*
X74586666Y-91970057D01*
X74586666Y-91970057D02*
X74634285Y-92065295D01*
X74634285Y-92065295D02*
X74681904Y-92255771D01*
X74681904Y-92255771D02*
X74681904Y-92493866D01*
X74681904Y-92493866D02*
X74634285Y-92684342D01*
X74634285Y-92684342D02*
X74586666Y-92779580D01*
X74586666Y-92779580D02*
X74539047Y-92827200D01*
X74539047Y-92827200D02*
X74443809Y-92874819D01*
X74443809Y-92874819D02*
X74348571Y-92874819D01*
X74348571Y-92874819D02*
X74253333Y-92827200D01*
X74253333Y-92827200D02*
X74205714Y-92779580D01*
X74205714Y-92779580D02*
X74158095Y-92684342D01*
X74158095Y-92684342D02*
X74110476Y-92493866D01*
X74110476Y-92493866D02*
X74110476Y-92255771D01*
X74110476Y-92255771D02*
X74158095Y-92065295D01*
X74158095Y-92065295D02*
X74205714Y-91970057D01*
X74205714Y-91970057D02*
X74253333Y-91922438D01*
X74253333Y-91922438D02*
X74348571Y-91874819D01*
X199586667Y-123347200D02*
X199729524Y-123394819D01*
X199729524Y-123394819D02*
X199967619Y-123394819D01*
X199967619Y-123394819D02*
X200062857Y-123347200D01*
X200062857Y-123347200D02*
X200110476Y-123299580D01*
X200110476Y-123299580D02*
X200158095Y-123204342D01*
X200158095Y-123204342D02*
X200158095Y-123109104D01*
X200158095Y-123109104D02*
X200110476Y-123013866D01*
X200110476Y-123013866D02*
X200062857Y-122966247D01*
X200062857Y-122966247D02*
X199967619Y-122918628D01*
X199967619Y-122918628D02*
X199777143Y-122871009D01*
X199777143Y-122871009D02*
X199681905Y-122823390D01*
X199681905Y-122823390D02*
X199634286Y-122775771D01*
X199634286Y-122775771D02*
X199586667Y-122680533D01*
X199586667Y-122680533D02*
X199586667Y-122585295D01*
X199586667Y-122585295D02*
X199634286Y-122490057D01*
X199634286Y-122490057D02*
X199681905Y-122442438D01*
X199681905Y-122442438D02*
X199777143Y-122394819D01*
X199777143Y-122394819D02*
X200015238Y-122394819D01*
X200015238Y-122394819D02*
X200158095Y-122442438D01*
X200491429Y-122394819D02*
X200729524Y-123394819D01*
X200729524Y-123394819D02*
X200920000Y-122680533D01*
X200920000Y-122680533D02*
X201110476Y-123394819D01*
X201110476Y-123394819D02*
X201348572Y-122394819D01*
X202205714Y-122394819D02*
X201729524Y-122394819D01*
X201729524Y-122394819D02*
X201681905Y-122871009D01*
X201681905Y-122871009D02*
X201729524Y-122823390D01*
X201729524Y-122823390D02*
X201824762Y-122775771D01*
X201824762Y-122775771D02*
X202062857Y-122775771D01*
X202062857Y-122775771D02*
X202158095Y-122823390D01*
X202158095Y-122823390D02*
X202205714Y-122871009D01*
X202205714Y-122871009D02*
X202253333Y-122966247D01*
X202253333Y-122966247D02*
X202253333Y-123204342D01*
X202253333Y-123204342D02*
X202205714Y-123299580D01*
X202205714Y-123299580D02*
X202158095Y-123347200D01*
X202158095Y-123347200D02*
X202062857Y-123394819D01*
X202062857Y-123394819D02*
X201824762Y-123394819D01*
X201824762Y-123394819D02*
X201729524Y-123347200D01*
X201729524Y-123347200D02*
X201681905Y-123299580D01*
X125179580Y-90906666D02*
X125227200Y-90954285D01*
X125227200Y-90954285D02*
X125274819Y-91097142D01*
X125274819Y-91097142D02*
X125274819Y-91192380D01*
X125274819Y-91192380D02*
X125227200Y-91335237D01*
X125227200Y-91335237D02*
X125131961Y-91430475D01*
X125131961Y-91430475D02*
X125036723Y-91478094D01*
X125036723Y-91478094D02*
X124846247Y-91525713D01*
X124846247Y-91525713D02*
X124703390Y-91525713D01*
X124703390Y-91525713D02*
X124512914Y-91478094D01*
X124512914Y-91478094D02*
X124417676Y-91430475D01*
X124417676Y-91430475D02*
X124322438Y-91335237D01*
X124322438Y-91335237D02*
X124274819Y-91192380D01*
X124274819Y-91192380D02*
X124274819Y-91097142D01*
X124274819Y-91097142D02*
X124322438Y-90954285D01*
X124322438Y-90954285D02*
X124370057Y-90906666D01*
X125274819Y-90430475D02*
X125274819Y-90239999D01*
X125274819Y-90239999D02*
X125227200Y-90144761D01*
X125227200Y-90144761D02*
X125179580Y-90097142D01*
X125179580Y-90097142D02*
X125036723Y-90001904D01*
X125036723Y-90001904D02*
X124846247Y-89954285D01*
X124846247Y-89954285D02*
X124465295Y-89954285D01*
X124465295Y-89954285D02*
X124370057Y-90001904D01*
X124370057Y-90001904D02*
X124322438Y-90049523D01*
X124322438Y-90049523D02*
X124274819Y-90144761D01*
X124274819Y-90144761D02*
X124274819Y-90335237D01*
X124274819Y-90335237D02*
X124322438Y-90430475D01*
X124322438Y-90430475D02*
X124370057Y-90478094D01*
X124370057Y-90478094D02*
X124465295Y-90525713D01*
X124465295Y-90525713D02*
X124703390Y-90525713D01*
X124703390Y-90525713D02*
X124798628Y-90478094D01*
X124798628Y-90478094D02*
X124846247Y-90430475D01*
X124846247Y-90430475D02*
X124893866Y-90335237D01*
X124893866Y-90335237D02*
X124893866Y-90144761D01*
X124893866Y-90144761D02*
X124846247Y-90049523D01*
X124846247Y-90049523D02*
X124798628Y-90001904D01*
X124798628Y-90001904D02*
X124703390Y-89954285D01*
X184299580Y-134356666D02*
X184347200Y-134404285D01*
X184347200Y-134404285D02*
X184394819Y-134547142D01*
X184394819Y-134547142D02*
X184394819Y-134642380D01*
X184394819Y-134642380D02*
X184347200Y-134785237D01*
X184347200Y-134785237D02*
X184251961Y-134880475D01*
X184251961Y-134880475D02*
X184156723Y-134928094D01*
X184156723Y-134928094D02*
X183966247Y-134975713D01*
X183966247Y-134975713D02*
X183823390Y-134975713D01*
X183823390Y-134975713D02*
X183632914Y-134928094D01*
X183632914Y-134928094D02*
X183537676Y-134880475D01*
X183537676Y-134880475D02*
X183442438Y-134785237D01*
X183442438Y-134785237D02*
X183394819Y-134642380D01*
X183394819Y-134642380D02*
X183394819Y-134547142D01*
X183394819Y-134547142D02*
X183442438Y-134404285D01*
X183442438Y-134404285D02*
X183490057Y-134356666D01*
X183728152Y-133499523D02*
X184394819Y-133499523D01*
X183347200Y-133737618D02*
X184061485Y-133975713D01*
X184061485Y-133975713D02*
X184061485Y-133356666D01*
X200503333Y-118294819D02*
X200170000Y-117818628D01*
X199931905Y-118294819D02*
X199931905Y-117294819D01*
X199931905Y-117294819D02*
X200312857Y-117294819D01*
X200312857Y-117294819D02*
X200408095Y-117342438D01*
X200408095Y-117342438D02*
X200455714Y-117390057D01*
X200455714Y-117390057D02*
X200503333Y-117485295D01*
X200503333Y-117485295D02*
X200503333Y-117628152D01*
X200503333Y-117628152D02*
X200455714Y-117723390D01*
X200455714Y-117723390D02*
X200408095Y-117771009D01*
X200408095Y-117771009D02*
X200312857Y-117818628D01*
X200312857Y-117818628D02*
X199931905Y-117818628D01*
X201408095Y-117294819D02*
X200931905Y-117294819D01*
X200931905Y-117294819D02*
X200884286Y-117771009D01*
X200884286Y-117771009D02*
X200931905Y-117723390D01*
X200931905Y-117723390D02*
X201027143Y-117675771D01*
X201027143Y-117675771D02*
X201265238Y-117675771D01*
X201265238Y-117675771D02*
X201360476Y-117723390D01*
X201360476Y-117723390D02*
X201408095Y-117771009D01*
X201408095Y-117771009D02*
X201455714Y-117866247D01*
X201455714Y-117866247D02*
X201455714Y-118104342D01*
X201455714Y-118104342D02*
X201408095Y-118199580D01*
X201408095Y-118199580D02*
X201360476Y-118247200D01*
X201360476Y-118247200D02*
X201265238Y-118294819D01*
X201265238Y-118294819D02*
X201027143Y-118294819D01*
X201027143Y-118294819D02*
X200931905Y-118247200D01*
X200931905Y-118247200D02*
X200884286Y-118199580D01*
X136279580Y-134356666D02*
X136327200Y-134404285D01*
X136327200Y-134404285D02*
X136374819Y-134547142D01*
X136374819Y-134547142D02*
X136374819Y-134642380D01*
X136374819Y-134642380D02*
X136327200Y-134785237D01*
X136327200Y-134785237D02*
X136231961Y-134880475D01*
X136231961Y-134880475D02*
X136136723Y-134928094D01*
X136136723Y-134928094D02*
X135946247Y-134975713D01*
X135946247Y-134975713D02*
X135803390Y-134975713D01*
X135803390Y-134975713D02*
X135612914Y-134928094D01*
X135612914Y-134928094D02*
X135517676Y-134880475D01*
X135517676Y-134880475D02*
X135422438Y-134785237D01*
X135422438Y-134785237D02*
X135374819Y-134642380D01*
X135374819Y-134642380D02*
X135374819Y-134547142D01*
X135374819Y-134547142D02*
X135422438Y-134404285D01*
X135422438Y-134404285D02*
X135470057Y-134356666D01*
X136374819Y-133404285D02*
X136374819Y-133975713D01*
X136374819Y-133689999D02*
X135374819Y-133689999D01*
X135374819Y-133689999D02*
X135517676Y-133785237D01*
X135517676Y-133785237D02*
X135612914Y-133880475D01*
X135612914Y-133880475D02*
X135660533Y-133975713D01*
X145336666Y-58814819D02*
X145336666Y-59529104D01*
X145336666Y-59529104D02*
X145289047Y-59671961D01*
X145289047Y-59671961D02*
X145193809Y-59767200D01*
X145193809Y-59767200D02*
X145050952Y-59814819D01*
X145050952Y-59814819D02*
X144955714Y-59814819D01*
X146336666Y-59814819D02*
X145765238Y-59814819D01*
X146050952Y-59814819D02*
X146050952Y-58814819D01*
X146050952Y-58814819D02*
X145955714Y-58957676D01*
X145955714Y-58957676D02*
X145860476Y-59052914D01*
X145860476Y-59052914D02*
X145765238Y-59100533D01*
X220959580Y-134356666D02*
X221007200Y-134404285D01*
X221007200Y-134404285D02*
X221054819Y-134547142D01*
X221054819Y-134547142D02*
X221054819Y-134642380D01*
X221054819Y-134642380D02*
X221007200Y-134785237D01*
X221007200Y-134785237D02*
X220911961Y-134880475D01*
X220911961Y-134880475D02*
X220816723Y-134928094D01*
X220816723Y-134928094D02*
X220626247Y-134975713D01*
X220626247Y-134975713D02*
X220483390Y-134975713D01*
X220483390Y-134975713D02*
X220292914Y-134928094D01*
X220292914Y-134928094D02*
X220197676Y-134880475D01*
X220197676Y-134880475D02*
X220102438Y-134785237D01*
X220102438Y-134785237D02*
X220054819Y-134642380D01*
X220054819Y-134642380D02*
X220054819Y-134547142D01*
X220054819Y-134547142D02*
X220102438Y-134404285D01*
X220102438Y-134404285D02*
X220150057Y-134356666D01*
X220054819Y-133499523D02*
X220054819Y-133689999D01*
X220054819Y-133689999D02*
X220102438Y-133785237D01*
X220102438Y-133785237D02*
X220150057Y-133832856D01*
X220150057Y-133832856D02*
X220292914Y-133928094D01*
X220292914Y-133928094D02*
X220483390Y-133975713D01*
X220483390Y-133975713D02*
X220864342Y-133975713D01*
X220864342Y-133975713D02*
X220959580Y-133928094D01*
X220959580Y-133928094D02*
X221007200Y-133880475D01*
X221007200Y-133880475D02*
X221054819Y-133785237D01*
X221054819Y-133785237D02*
X221054819Y-133594761D01*
X221054819Y-133594761D02*
X221007200Y-133499523D01*
X221007200Y-133499523D02*
X220959580Y-133451904D01*
X220959580Y-133451904D02*
X220864342Y-133404285D01*
X220864342Y-133404285D02*
X220626247Y-133404285D01*
X220626247Y-133404285D02*
X220531009Y-133451904D01*
X220531009Y-133451904D02*
X220483390Y-133499523D01*
X220483390Y-133499523D02*
X220435771Y-133594761D01*
X220435771Y-133594761D02*
X220435771Y-133785237D01*
X220435771Y-133785237D02*
X220483390Y-133880475D01*
X220483390Y-133880475D02*
X220531009Y-133928094D01*
X220531009Y-133928094D02*
X220626247Y-133975713D01*
X165253333Y-118444819D02*
X164920000Y-117968628D01*
X164681905Y-118444819D02*
X164681905Y-117444819D01*
X164681905Y-117444819D02*
X165062857Y-117444819D01*
X165062857Y-117444819D02*
X165158095Y-117492438D01*
X165158095Y-117492438D02*
X165205714Y-117540057D01*
X165205714Y-117540057D02*
X165253333Y-117635295D01*
X165253333Y-117635295D02*
X165253333Y-117778152D01*
X165253333Y-117778152D02*
X165205714Y-117873390D01*
X165205714Y-117873390D02*
X165158095Y-117921009D01*
X165158095Y-117921009D02*
X165062857Y-117968628D01*
X165062857Y-117968628D02*
X164681905Y-117968628D01*
X165586667Y-117444819D02*
X166205714Y-117444819D01*
X166205714Y-117444819D02*
X165872381Y-117825771D01*
X165872381Y-117825771D02*
X166015238Y-117825771D01*
X166015238Y-117825771D02*
X166110476Y-117873390D01*
X166110476Y-117873390D02*
X166158095Y-117921009D01*
X166158095Y-117921009D02*
X166205714Y-118016247D01*
X166205714Y-118016247D02*
X166205714Y-118254342D01*
X166205714Y-118254342D02*
X166158095Y-118349580D01*
X166158095Y-118349580D02*
X166110476Y-118397200D01*
X166110476Y-118397200D02*
X166015238Y-118444819D01*
X166015238Y-118444819D02*
X165729524Y-118444819D01*
X165729524Y-118444819D02*
X165634286Y-118397200D01*
X165634286Y-118397200D02*
X165586667Y-118349580D01*
X217717618Y-48394819D02*
X217717618Y-49204342D01*
X217717618Y-49204342D02*
X217765237Y-49299580D01*
X217765237Y-49299580D02*
X217812856Y-49347200D01*
X217812856Y-49347200D02*
X217908094Y-49394819D01*
X217908094Y-49394819D02*
X218098570Y-49394819D01*
X218098570Y-49394819D02*
X218193808Y-49347200D01*
X218193808Y-49347200D02*
X218241427Y-49299580D01*
X218241427Y-49299580D02*
X218289046Y-49204342D01*
X218289046Y-49204342D02*
X218289046Y-48394819D01*
X219289046Y-49394819D02*
X218717618Y-49394819D01*
X219003332Y-49394819D02*
X219003332Y-48394819D01*
X219003332Y-48394819D02*
X218908094Y-48537676D01*
X218908094Y-48537676D02*
X218812856Y-48632914D01*
X218812856Y-48632914D02*
X218717618Y-48680533D01*
X167479580Y-134356666D02*
X167527200Y-134404285D01*
X167527200Y-134404285D02*
X167574819Y-134547142D01*
X167574819Y-134547142D02*
X167574819Y-134642380D01*
X167574819Y-134642380D02*
X167527200Y-134785237D01*
X167527200Y-134785237D02*
X167431961Y-134880475D01*
X167431961Y-134880475D02*
X167336723Y-134928094D01*
X167336723Y-134928094D02*
X167146247Y-134975713D01*
X167146247Y-134975713D02*
X167003390Y-134975713D01*
X167003390Y-134975713D02*
X166812914Y-134928094D01*
X166812914Y-134928094D02*
X166717676Y-134880475D01*
X166717676Y-134880475D02*
X166622438Y-134785237D01*
X166622438Y-134785237D02*
X166574819Y-134642380D01*
X166574819Y-134642380D02*
X166574819Y-134547142D01*
X166574819Y-134547142D02*
X166622438Y-134404285D01*
X166622438Y-134404285D02*
X166670057Y-134356666D01*
X166574819Y-134023332D02*
X166574819Y-133404285D01*
X166574819Y-133404285D02*
X166955771Y-133737618D01*
X166955771Y-133737618D02*
X166955771Y-133594761D01*
X166955771Y-133594761D02*
X167003390Y-133499523D01*
X167003390Y-133499523D02*
X167051009Y-133451904D01*
X167051009Y-133451904D02*
X167146247Y-133404285D01*
X167146247Y-133404285D02*
X167384342Y-133404285D01*
X167384342Y-133404285D02*
X167479580Y-133451904D01*
X167479580Y-133451904D02*
X167527200Y-133499523D01*
X167527200Y-133499523D02*
X167574819Y-133594761D01*
X167574819Y-133594761D02*
X167574819Y-133880475D01*
X167574819Y-133880475D02*
X167527200Y-133975713D01*
X167527200Y-133975713D02*
X167479580Y-134023332D01*
X95959580Y-90246666D02*
X96007200Y-90294285D01*
X96007200Y-90294285D02*
X96054819Y-90437142D01*
X96054819Y-90437142D02*
X96054819Y-90532380D01*
X96054819Y-90532380D02*
X96007200Y-90675237D01*
X96007200Y-90675237D02*
X95911961Y-90770475D01*
X95911961Y-90770475D02*
X95816723Y-90818094D01*
X95816723Y-90818094D02*
X95626247Y-90865713D01*
X95626247Y-90865713D02*
X95483390Y-90865713D01*
X95483390Y-90865713D02*
X95292914Y-90818094D01*
X95292914Y-90818094D02*
X95197676Y-90770475D01*
X95197676Y-90770475D02*
X95102438Y-90675237D01*
X95102438Y-90675237D02*
X95054819Y-90532380D01*
X95054819Y-90532380D02*
X95054819Y-90437142D01*
X95054819Y-90437142D02*
X95102438Y-90294285D01*
X95102438Y-90294285D02*
X95150057Y-90246666D01*
X95054819Y-89913332D02*
X95054819Y-89246666D01*
X95054819Y-89246666D02*
X96054819Y-89675237D01*
X218753333Y-118044819D02*
X218420000Y-117568628D01*
X218181905Y-118044819D02*
X218181905Y-117044819D01*
X218181905Y-117044819D02*
X218562857Y-117044819D01*
X218562857Y-117044819D02*
X218658095Y-117092438D01*
X218658095Y-117092438D02*
X218705714Y-117140057D01*
X218705714Y-117140057D02*
X218753333Y-117235295D01*
X218753333Y-117235295D02*
X218753333Y-117378152D01*
X218753333Y-117378152D02*
X218705714Y-117473390D01*
X218705714Y-117473390D02*
X218658095Y-117521009D01*
X218658095Y-117521009D02*
X218562857Y-117568628D01*
X218562857Y-117568628D02*
X218181905Y-117568628D01*
X219324762Y-117473390D02*
X219229524Y-117425771D01*
X219229524Y-117425771D02*
X219181905Y-117378152D01*
X219181905Y-117378152D02*
X219134286Y-117282914D01*
X219134286Y-117282914D02*
X219134286Y-117235295D01*
X219134286Y-117235295D02*
X219181905Y-117140057D01*
X219181905Y-117140057D02*
X219229524Y-117092438D01*
X219229524Y-117092438D02*
X219324762Y-117044819D01*
X219324762Y-117044819D02*
X219515238Y-117044819D01*
X219515238Y-117044819D02*
X219610476Y-117092438D01*
X219610476Y-117092438D02*
X219658095Y-117140057D01*
X219658095Y-117140057D02*
X219705714Y-117235295D01*
X219705714Y-117235295D02*
X219705714Y-117282914D01*
X219705714Y-117282914D02*
X219658095Y-117378152D01*
X219658095Y-117378152D02*
X219610476Y-117425771D01*
X219610476Y-117425771D02*
X219515238Y-117473390D01*
X219515238Y-117473390D02*
X219324762Y-117473390D01*
X219324762Y-117473390D02*
X219229524Y-117521009D01*
X219229524Y-117521009D02*
X219181905Y-117568628D01*
X219181905Y-117568628D02*
X219134286Y-117663866D01*
X219134286Y-117663866D02*
X219134286Y-117854342D01*
X219134286Y-117854342D02*
X219181905Y-117949580D01*
X219181905Y-117949580D02*
X219229524Y-117997200D01*
X219229524Y-117997200D02*
X219324762Y-118044819D01*
X219324762Y-118044819D02*
X219515238Y-118044819D01*
X219515238Y-118044819D02*
X219610476Y-117997200D01*
X219610476Y-117997200D02*
X219658095Y-117949580D01*
X219658095Y-117949580D02*
X219705714Y-117854342D01*
X219705714Y-117854342D02*
X219705714Y-117663866D01*
X219705714Y-117663866D02*
X219658095Y-117568628D01*
X219658095Y-117568628D02*
X219610476Y-117521009D01*
X219610476Y-117521009D02*
X219515238Y-117473390D01*
X217126667Y-123347200D02*
X217269524Y-123394819D01*
X217269524Y-123394819D02*
X217507619Y-123394819D01*
X217507619Y-123394819D02*
X217602857Y-123347200D01*
X217602857Y-123347200D02*
X217650476Y-123299580D01*
X217650476Y-123299580D02*
X217698095Y-123204342D01*
X217698095Y-123204342D02*
X217698095Y-123109104D01*
X217698095Y-123109104D02*
X217650476Y-123013866D01*
X217650476Y-123013866D02*
X217602857Y-122966247D01*
X217602857Y-122966247D02*
X217507619Y-122918628D01*
X217507619Y-122918628D02*
X217317143Y-122871009D01*
X217317143Y-122871009D02*
X217221905Y-122823390D01*
X217221905Y-122823390D02*
X217174286Y-122775771D01*
X217174286Y-122775771D02*
X217126667Y-122680533D01*
X217126667Y-122680533D02*
X217126667Y-122585295D01*
X217126667Y-122585295D02*
X217174286Y-122490057D01*
X217174286Y-122490057D02*
X217221905Y-122442438D01*
X217221905Y-122442438D02*
X217317143Y-122394819D01*
X217317143Y-122394819D02*
X217555238Y-122394819D01*
X217555238Y-122394819D02*
X217698095Y-122442438D01*
X218031429Y-122394819D02*
X218269524Y-123394819D01*
X218269524Y-123394819D02*
X218460000Y-122680533D01*
X218460000Y-122680533D02*
X218650476Y-123394819D01*
X218650476Y-123394819D02*
X218888572Y-122394819D01*
X219698095Y-122394819D02*
X219507619Y-122394819D01*
X219507619Y-122394819D02*
X219412381Y-122442438D01*
X219412381Y-122442438D02*
X219364762Y-122490057D01*
X219364762Y-122490057D02*
X219269524Y-122632914D01*
X219269524Y-122632914D02*
X219221905Y-122823390D01*
X219221905Y-122823390D02*
X219221905Y-123204342D01*
X219221905Y-123204342D02*
X219269524Y-123299580D01*
X219269524Y-123299580D02*
X219317143Y-123347200D01*
X219317143Y-123347200D02*
X219412381Y-123394819D01*
X219412381Y-123394819D02*
X219602857Y-123394819D01*
X219602857Y-123394819D02*
X219698095Y-123347200D01*
X219698095Y-123347200D02*
X219745714Y-123299580D01*
X219745714Y-123299580D02*
X219793333Y-123204342D01*
X219793333Y-123204342D02*
X219793333Y-122966247D01*
X219793333Y-122966247D02*
X219745714Y-122871009D01*
X219745714Y-122871009D02*
X219698095Y-122823390D01*
X219698095Y-122823390D02*
X219602857Y-122775771D01*
X219602857Y-122775771D02*
X219412381Y-122775771D01*
X219412381Y-122775771D02*
X219317143Y-122823390D01*
X219317143Y-122823390D02*
X219269524Y-122871009D01*
X219269524Y-122871009D02*
X219221905Y-122966247D01*
X203459580Y-134356666D02*
X203507200Y-134404285D01*
X203507200Y-134404285D02*
X203554819Y-134547142D01*
X203554819Y-134547142D02*
X203554819Y-134642380D01*
X203554819Y-134642380D02*
X203507200Y-134785237D01*
X203507200Y-134785237D02*
X203411961Y-134880475D01*
X203411961Y-134880475D02*
X203316723Y-134928094D01*
X203316723Y-134928094D02*
X203126247Y-134975713D01*
X203126247Y-134975713D02*
X202983390Y-134975713D01*
X202983390Y-134975713D02*
X202792914Y-134928094D01*
X202792914Y-134928094D02*
X202697676Y-134880475D01*
X202697676Y-134880475D02*
X202602438Y-134785237D01*
X202602438Y-134785237D02*
X202554819Y-134642380D01*
X202554819Y-134642380D02*
X202554819Y-134547142D01*
X202554819Y-134547142D02*
X202602438Y-134404285D01*
X202602438Y-134404285D02*
X202650057Y-134356666D01*
X202554819Y-133451904D02*
X202554819Y-133928094D01*
X202554819Y-133928094D02*
X203031009Y-133975713D01*
X203031009Y-133975713D02*
X202983390Y-133928094D01*
X202983390Y-133928094D02*
X202935771Y-133832856D01*
X202935771Y-133832856D02*
X202935771Y-133594761D01*
X202935771Y-133594761D02*
X202983390Y-133499523D01*
X202983390Y-133499523D02*
X203031009Y-133451904D01*
X203031009Y-133451904D02*
X203126247Y-133404285D01*
X203126247Y-133404285D02*
X203364342Y-133404285D01*
X203364342Y-133404285D02*
X203459580Y-133451904D01*
X203459580Y-133451904D02*
X203507200Y-133499523D01*
X203507200Y-133499523D02*
X203554819Y-133594761D01*
X203554819Y-133594761D02*
X203554819Y-133832856D01*
X203554819Y-133832856D02*
X203507200Y-133928094D01*
X203507200Y-133928094D02*
X203459580Y-133975713D01*
D14*
%TO.C,D1*%
X117117500Y-65590000D02*
X117325000Y-65590000D01*
X117117500Y-69890000D02*
X117117500Y-65590000D01*
X117325000Y-69890000D02*
X117117500Y-69890000D01*
X119722500Y-65590000D02*
X119515000Y-65590000D01*
X119722500Y-65590000D02*
X119722500Y-69890000D01*
X119722500Y-69890000D02*
X119515000Y-69890000D01*
D12*
X118520000Y-72040000D02*
G75*
G02*
X118320000Y-72040000I-100000J0D01*
G01*
X118320000Y-72040000D02*
G75*
G02*
X118520000Y-72040000I100000J0D01*
G01*
D15*
%TO.C,U2*%
X154000000Y-50360000D02*
X155380000Y-50360000D01*
X154000000Y-51740000D02*
X154000000Y-50360000D01*
X154000000Y-53010000D02*
X154000000Y-98840000D01*
X154000000Y-53010000D02*
X156650000Y-53010000D01*
X154000000Y-98840000D02*
X159300000Y-98840000D01*
X156650000Y-50360000D02*
X159300000Y-50360000D01*
X156650000Y-53010000D02*
X156650000Y-50360000D01*
X159300000Y-50360000D02*
X159300000Y-98840000D01*
%TO.C,C11*%
X73731252Y-96005000D02*
X73208748Y-96005000D01*
X73731252Y-97475000D02*
X73208748Y-97475000D01*
%TO.C,U4*%
X100600000Y-84360000D02*
X100600000Y-79719000D01*
X102320000Y-79719000D02*
X102320000Y-77105000D01*
X102955000Y-79719000D02*
X100600000Y-79719000D01*
X103870000Y-84360000D02*
X103870000Y-82851000D01*
X105720000Y-79719000D02*
X105720000Y-77105000D01*
X106355000Y-79719000D02*
X105085000Y-79719000D01*
X107570000Y-84360000D02*
X107570000Y-82851000D01*
X109120000Y-79719000D02*
X109120000Y-77089000D01*
X110841000Y-79719000D02*
X108485000Y-79719000D01*
X110841000Y-82851000D02*
X100600000Y-82851000D01*
X110841000Y-84360000D02*
X100600000Y-84360000D01*
X110841000Y-84360000D02*
X110841000Y-79719000D01*
%TO.C,C2*%
X150185000Y-133928748D02*
X150185000Y-134451252D01*
X151655000Y-133928748D02*
X151655000Y-134451252D01*
%TO.C,J2*%
X83300000Y-51120000D02*
X83300000Y-59160000D01*
X83300000Y-51120000D02*
X94040000Y-51120000D01*
X83300000Y-54740000D02*
X84540000Y-54740000D01*
X83300000Y-55740000D02*
X84540000Y-55740000D01*
X83300000Y-57040000D02*
X84540000Y-57040000D01*
X83300000Y-59160000D02*
X86120000Y-59160000D01*
X86720000Y-59160000D02*
X94040000Y-59160000D01*
X88300000Y-54740000D02*
X89608000Y-54740000D01*
X88300000Y-55740000D02*
X89608000Y-55740000D01*
X88300000Y-57040000D02*
X90877000Y-57040000D01*
X91963000Y-57040000D02*
X94040000Y-57040000D01*
X93232000Y-54740000D02*
X94040000Y-54740000D01*
X93232000Y-55740000D02*
X94040000Y-55740000D01*
X94040000Y-51120000D02*
X94040000Y-59160000D01*
X86860000Y-59770000D02*
X85980000Y-59770000D01*
X86420000Y-59160000D01*
X86860000Y-59770000D01*
G36*
X86860000Y-59770000D02*
G01*
X85980000Y-59770000D01*
X86420000Y-59160000D01*
X86860000Y-59770000D01*
G37*
%TO.C,R6*%
X88692936Y-109505000D02*
X89147064Y-109505000D01*
X88692936Y-110975000D02*
X89147064Y-110975000D01*
%TO.C,R2*%
X150192936Y-119005000D02*
X150647064Y-119005000D01*
X150192936Y-120475000D02*
X150647064Y-120475000D01*
%TO.C,U5*%
X102550000Y-128310000D02*
X102550000Y-131070000D01*
X110280000Y-128310000D02*
X102550000Y-128310000D01*
X110280000Y-128310000D02*
X110280000Y-131070000D01*
X110280000Y-131070000D02*
X102550000Y-131070000D01*
X111550000Y-128310000D02*
X112930000Y-128310000D01*
X112930000Y-128310000D02*
X112930000Y-129690000D01*
D14*
%TO.C,L1*%
X117770000Y-74090000D02*
X128070000Y-74090000D01*
X117770000Y-77170000D02*
X117770000Y-74090000D01*
X117770000Y-84390000D02*
X117770000Y-81310000D01*
X128070000Y-74090000D02*
X128070000Y-77170000D01*
X128070000Y-84390000D02*
X117770000Y-84390000D01*
X128070000Y-84390000D02*
X128070000Y-81310000D01*
D15*
%TO.C,SW4*%
X177320000Y-123940000D02*
X178320000Y-123940000D01*
X177320000Y-124940000D02*
X177320000Y-123940000D01*
X179320000Y-125940000D02*
X179320000Y-128540000D01*
X185320000Y-123990000D02*
X179520000Y-123990000D01*
X185420000Y-130490000D02*
X179420000Y-130490000D01*
X185520000Y-125940000D02*
X185520000Y-128540000D01*
%TO.C,Y2*%
X76970000Y-92790000D02*
X76970000Y-91690000D01*
X77020000Y-94190000D02*
X78820000Y-94190000D01*
X78870000Y-92790000D02*
X78870000Y-91690000D01*
%TO.C,R7*%
X87185000Y-99012936D02*
X87185000Y-99467064D01*
X88655000Y-99012936D02*
X88655000Y-99467064D01*
%TO.C,SW1*%
X128840000Y-123940000D02*
X129840000Y-123940000D01*
X128840000Y-124940000D02*
X128840000Y-123940000D01*
X130840000Y-125940000D02*
X130840000Y-128540000D01*
X136840000Y-123990000D02*
X131040000Y-123990000D01*
X136940000Y-130490000D02*
X130940000Y-130490000D01*
X137040000Y-125940000D02*
X137040000Y-128540000D01*
%TO.C,SW3*%
X160510000Y-123890000D02*
X161510000Y-123890000D01*
X160510000Y-124890000D02*
X160510000Y-123890000D01*
X162510000Y-125890000D02*
X162510000Y-128490000D01*
X168510000Y-123940000D02*
X162710000Y-123940000D01*
X168610000Y-130440000D02*
X162610000Y-130440000D01*
X168710000Y-125890000D02*
X168710000Y-128490000D01*
%TO.C,C8*%
X101170000Y-62980000D02*
X102420000Y-62980000D01*
X101795000Y-62355000D02*
X101795000Y-63605000D01*
X102660000Y-61444437D02*
X102660000Y-64230000D01*
X102660000Y-61444437D02*
X103724437Y-60380000D01*
X102660000Y-70035563D02*
X102660000Y-67250000D01*
X102660000Y-70035563D02*
X103724437Y-71100000D01*
X103724437Y-60380000D02*
X113380000Y-60380000D01*
X103724437Y-71100000D02*
X113380000Y-71100000D01*
X113380000Y-60380000D02*
X113380000Y-64230000D01*
X113380000Y-71100000D02*
X113380000Y-67250000D01*
%TO.C,R4*%
X181192936Y-119005000D02*
X181647064Y-119005000D01*
X181192936Y-120475000D02*
X181647064Y-120475000D01*
%TO.C,BT1*%
X73870000Y-106740000D02*
X73870000Y-109190000D01*
X79420000Y-106190000D02*
X74420000Y-106190000D01*
X79970000Y-109190000D02*
X79970000Y-106740000D01*
X73870000Y-106740000D02*
G75*
G02*
X74420000Y-106190000I549999J1D01*
G01*
X73870000Y-109190000D02*
G75*
G02*
X73400001Y-109890002I-756280J0D01*
G01*
X76920000Y-137440000D02*
G75*
G02*
X73400000Y-109890000I30J13999875D01*
G01*
X79420000Y-106190000D02*
G75*
G02*
X79970000Y-106740000I1J-549999D01*
G01*
X80440000Y-109890000D02*
G75*
G02*
X76920000Y-137440000I-3520031J-13550125D01*
G01*
X80440000Y-109890000D02*
G75*
G02*
X79970002Y-109190000I286280J700000D01*
G01*
%TO.C,U3*%
X82420000Y-97430000D02*
X80470000Y-97430000D01*
X82420000Y-97430000D02*
X84370000Y-97430000D01*
X82420000Y-102550000D02*
X80470000Y-102550000D01*
X82420000Y-102550000D02*
X84370000Y-102550000D01*
X79720000Y-97525000D02*
X79480000Y-97195000D01*
X79960000Y-97195000D01*
X79720000Y-97525000D01*
G36*
X79720000Y-97525000D02*
G01*
X79480000Y-97195000D01*
X79960000Y-97195000D01*
X79720000Y-97525000D01*
G37*
D13*
%TO.C,U6*%
X71600000Y-64920000D02*
X94460000Y-64920000D01*
X71600000Y-87780000D02*
X71600000Y-64920000D01*
X94460000Y-64920000D02*
X94460000Y-87780000D01*
X94460000Y-87780000D02*
X71600000Y-87780000D01*
D15*
%TO.C,R1*%
X134192936Y-119005000D02*
X134647064Y-119005000D01*
X134192936Y-120475000D02*
X134647064Y-120475000D01*
%TO.C,SW2*%
X145360000Y-123940000D02*
X146360000Y-123940000D01*
X145360000Y-124940000D02*
X145360000Y-123940000D01*
X147360000Y-125940000D02*
X147360000Y-128540000D01*
X153360000Y-123990000D02*
X147560000Y-123990000D01*
X153460000Y-130490000D02*
X147460000Y-130490000D01*
X153560000Y-125940000D02*
X153560000Y-128540000D01*
%TO.C,C10*%
X73681252Y-90005000D02*
X73158748Y-90005000D01*
X73681252Y-91475000D02*
X73158748Y-91475000D01*
%TO.C,SW5*%
X195820000Y-123940000D02*
X196820000Y-123940000D01*
X195820000Y-124940000D02*
X195820000Y-123940000D01*
X197820000Y-125940000D02*
X197820000Y-128540000D01*
X203820000Y-123990000D02*
X198020000Y-123990000D01*
X203920000Y-130490000D02*
X197920000Y-130490000D01*
X204020000Y-125940000D02*
X204020000Y-128540000D01*
%TO.C,C9*%
X125660000Y-87090000D02*
X125660000Y-95330000D01*
X125660000Y-95330000D02*
X130180000Y-95330000D01*
X130180000Y-95330000D02*
X130180000Y-87090000D01*
%TO.C,C4*%
X181705000Y-133928748D02*
X181705000Y-134451252D01*
X183175000Y-133928748D02*
X183175000Y-134451252D01*
%TO.C,R5*%
X200442936Y-118755000D02*
X200897064Y-118755000D01*
X200442936Y-120225000D02*
X200897064Y-120225000D01*
%TO.C,C1*%
X133185000Y-133928748D02*
X133185000Y-134451252D01*
X134655000Y-133928748D02*
X134655000Y-134451252D01*
%TO.C,J1*%
X140300000Y-58360000D02*
X140300000Y-50320000D01*
X141108000Y-53740000D02*
X140300000Y-53740000D01*
X141108000Y-54740000D02*
X140300000Y-54740000D01*
X142377000Y-52440000D02*
X140300000Y-52440000D01*
X146040000Y-52440000D02*
X143463000Y-52440000D01*
X146040000Y-53740000D02*
X144732000Y-53740000D01*
X146040000Y-54740000D02*
X144732000Y-54740000D01*
X147620000Y-50320000D02*
X140300000Y-50320000D01*
X151040000Y-50320000D02*
X148220000Y-50320000D01*
X151040000Y-52440000D02*
X149800000Y-52440000D01*
X151040000Y-53740000D02*
X149800000Y-53740000D01*
X151040000Y-54740000D02*
X149800000Y-54740000D01*
X151040000Y-58360000D02*
X140300000Y-58360000D01*
X151040000Y-58360000D02*
X151040000Y-50320000D01*
X147920000Y-50320000D02*
X147480000Y-49710000D01*
X148360000Y-49710000D01*
X147920000Y-50320000D01*
G36*
X147920000Y-50320000D02*
G01*
X147480000Y-49710000D01*
X148360000Y-49710000D01*
X147920000Y-50320000D01*
G37*
%TO.C,C6*%
X218185000Y-133928748D02*
X218185000Y-134451252D01*
X219655000Y-133928748D02*
X219655000Y-134451252D01*
%TO.C,R3*%
X165192936Y-118905000D02*
X165647064Y-118905000D01*
X165192936Y-120375000D02*
X165647064Y-120375000D01*
%TO.C,U1*%
X215500000Y-50560000D02*
X216880000Y-50560000D01*
X215500000Y-51940000D02*
X215500000Y-50560000D01*
X215500000Y-53210000D02*
X215500000Y-99040000D01*
X215500000Y-53210000D02*
X218150000Y-53210000D01*
X215500000Y-99040000D02*
X220800000Y-99040000D01*
X218150000Y-50560000D02*
X220800000Y-50560000D01*
X218150000Y-53210000D02*
X218150000Y-50560000D01*
X220800000Y-50560000D02*
X220800000Y-99040000D01*
%TO.C,C3*%
X164705000Y-133928748D02*
X164705000Y-134451252D01*
X166175000Y-133928748D02*
X166175000Y-134451252D01*
%TO.C,C7*%
X98015000Y-90341252D02*
X98015000Y-89818748D01*
X96545000Y-90341252D02*
X96545000Y-89818748D01*
%TO.C,R8*%
X218692936Y-118505000D02*
X219147064Y-118505000D01*
X218692936Y-119975000D02*
X219147064Y-119975000D01*
%TO.C,SW6*%
X213360000Y-123940000D02*
X214360000Y-123940000D01*
X213360000Y-124940000D02*
X213360000Y-123940000D01*
X215360000Y-125940000D02*
X215360000Y-128540000D01*
X221360000Y-123990000D02*
X215560000Y-123990000D01*
X221460000Y-130490000D02*
X215460000Y-130490000D01*
X221560000Y-125940000D02*
X221560000Y-128540000D01*
%TO.C,C5*%
X200685000Y-133928748D02*
X200685000Y-134451252D01*
X202155000Y-133928748D02*
X202155000Y-134451252D01*
%TD*%
M02*
