M48
; DRILL file {KiCad 9.0.1} date 2025-05-21T15:06:03-0700
; FORMAT={-:-/ absolute / metric / decimal}
; #@! TF.CreationDate,2025-05-21T15:06:03-07:00
; #@! TF.GenerationSoftware,Kicad,Pcbnew,9.0.1
; #@! TF.FileFunction,Plated,1,2,PTH
FMAT,2
METRIC
; #@! TA.AperFunction,Plated,PTH,ViaDrill
T1C0.508
; #@! TA.AperFunction,Plated,PTH,ComponentDrill
T2C0.762
; #@! TA.AperFunction,Plated,PTH,ComponentDrill
T3C1.000
; #@! TA.AperFunction,Plated,PTH,ComponentDrill
T4C1.100
; #@! TA.AperFunction,Plated,PTH,ComponentDrill
T5C1.300
; #@! TA.AperFunction,Plated,PTH,ComponentDrill
T6C1.500
%
G90
G05
T1
X76.92Y-104.49
X86.612Y-96.593
X86.612Y-106.66
X87.42Y-70.24
X87.67Y-82.7
X88.42Y-88.74
X100.42Y-129.74
X106.42Y-118.74
X114.26Y-61.17
X114.72Y-133.24
X115.46Y-125.78
X117.42Y-63.24
X132.42Y-54.24
X137.54Y-111.49
X145.87Y-73.95
X147.05Y-88.07
X148.55Y-68.48
X149.92Y-61.04
X160.96Y-59.39
X201.8Y-111.3
X206.92Y-64.64
X210.19Y-76.61
X211.97Y-56.99
T2
X74.14Y-67.46
X74.14Y-70.0
X74.14Y-72.54
X74.14Y-75.08
X74.14Y-77.62
X74.14Y-80.16
X74.14Y-82.7
X74.14Y-85.24
X91.92Y-67.46
X91.92Y-70.0
X91.92Y-72.54
X91.92Y-75.08
X91.92Y-77.62
X91.92Y-80.16
X91.92Y-82.7
X91.92Y-85.24
T3
X103.93Y-129.69
X106.47Y-129.69
X109.01Y-129.69
X111.55Y-129.69
X155.38Y-51.74
X155.38Y-54.28
X155.38Y-56.82
X155.38Y-59.36
X155.38Y-61.9
X155.38Y-64.44
X155.38Y-66.98
X155.38Y-69.52
X155.38Y-72.06
X155.38Y-74.6
X155.38Y-77.14
X155.38Y-79.68
X155.38Y-82.22
X155.38Y-84.76
X155.38Y-87.3
X155.38Y-89.84
X155.38Y-92.38
X155.38Y-94.92
X155.38Y-97.46
X157.92Y-51.74
X157.92Y-54.28
X157.92Y-56.82
X157.92Y-59.36
X157.92Y-61.9
X157.92Y-64.44
X157.92Y-66.98
X157.92Y-69.52
X157.92Y-72.06
X157.92Y-74.6
X157.92Y-77.14
X157.92Y-79.68
X157.92Y-82.22
X157.92Y-84.76
X157.92Y-87.3
X157.92Y-89.84
X157.92Y-92.38
X157.92Y-94.92
X157.92Y-97.46
X216.88Y-51.94
X216.88Y-54.48
X216.88Y-57.02
X216.88Y-59.56
X216.88Y-62.1
X216.88Y-64.64
X216.88Y-67.18
X216.88Y-69.72
X216.88Y-72.26
X216.88Y-74.8
X216.88Y-77.34
X216.88Y-79.88
X216.88Y-82.42
X216.88Y-84.96
X216.88Y-87.5
X216.88Y-90.04
X216.88Y-92.58
X216.88Y-95.12
X216.88Y-97.66
X219.42Y-51.94
X219.42Y-54.48
X219.42Y-57.02
X219.42Y-59.56
X219.42Y-62.1
X219.42Y-64.64
X219.42Y-67.18
X219.42Y-69.72
X219.42Y-72.26
X219.42Y-74.8
X219.42Y-77.34
X219.42Y-79.88
X219.42Y-82.42
X219.42Y-84.96
X219.42Y-87.5
X219.42Y-90.04
X219.42Y-92.58
X219.42Y-95.12
X219.42Y-97.66
T4
X102.32Y-76.04
X104.02Y-79.74
X105.72Y-76.04
X107.42Y-79.74
X109.12Y-76.04
T5
X86.42Y-55.24
X91.42Y-55.24
X142.92Y-54.24
X147.92Y-54.24
T6
X76.92Y-108.24
X76.92Y-128.73
M30
