%TF.GenerationSoftware,KiCad,Pcbnew,9.0.1*%
%TF.CreationDate,2025-05-21T15:03:41-07:00*%
%TF.ProjectId,pcb,7063622e-6b69-4636-9164-5f7063625858,Rev 1 first mill*%
%TF.SameCoordinates,Original*%
%TF.FileFunction,AssemblyDrawing,Top*%
%FSLAX46Y46*%
G04 Gerber Fmt 4.6, Leading zero omitted, Abs format (unit mm)*
G04 Created by KiCad (PCBNEW 9.0.1) date 2025-05-21 15:03:41*
%MOMM*%
%LPD*%
G01*
G04 APERTURE LIST*
%ADD10C,0.150000*%
%ADD11C,0.080000*%
%ADD12C,0.105000*%
%ADD13C,0.127000*%
%ADD14C,0.200000*%
%ADD15C,0.100000*%
G04 APERTURE END LIST*
D10*
X181300952Y-122194819D02*
X180729524Y-122194819D01*
X181015238Y-122194819D02*
X181015238Y-121194819D01*
X181015238Y-121194819D02*
X180920000Y-121337676D01*
X180920000Y-121337676D02*
X180824762Y-121432914D01*
X180824762Y-121432914D02*
X180729524Y-121480533D01*
X181729524Y-122194819D02*
X181729524Y-121194819D01*
X181824762Y-121813866D02*
X182110476Y-122194819D01*
X182110476Y-121528152D02*
X181729524Y-121909104D01*
X122062319Y-69344524D02*
X121062319Y-69344524D01*
X121062319Y-69344524D02*
X121062319Y-69106429D01*
X121062319Y-69106429D02*
X121109938Y-68963572D01*
X121109938Y-68963572D02*
X121205176Y-68868334D01*
X121205176Y-68868334D02*
X121300414Y-68820715D01*
X121300414Y-68820715D02*
X121490890Y-68773096D01*
X121490890Y-68773096D02*
X121633747Y-68773096D01*
X121633747Y-68773096D02*
X121824223Y-68820715D01*
X121824223Y-68820715D02*
X121919461Y-68868334D01*
X121919461Y-68868334D02*
X122014700Y-68963572D01*
X122014700Y-68963572D02*
X122062319Y-69106429D01*
X122062319Y-69106429D02*
X122062319Y-69344524D01*
X122157557Y-68582620D02*
X122157557Y-67820715D01*
X122014700Y-67630238D02*
X122062319Y-67487381D01*
X122062319Y-67487381D02*
X122062319Y-67249286D01*
X122062319Y-67249286D02*
X122014700Y-67154048D01*
X122014700Y-67154048D02*
X121967080Y-67106429D01*
X121967080Y-67106429D02*
X121871842Y-67058810D01*
X121871842Y-67058810D02*
X121776604Y-67058810D01*
X121776604Y-67058810D02*
X121681366Y-67106429D01*
X121681366Y-67106429D02*
X121633747Y-67154048D01*
X121633747Y-67154048D02*
X121586128Y-67249286D01*
X121586128Y-67249286D02*
X121538509Y-67439762D01*
X121538509Y-67439762D02*
X121490890Y-67535000D01*
X121490890Y-67535000D02*
X121443271Y-67582619D01*
X121443271Y-67582619D02*
X121348033Y-67630238D01*
X121348033Y-67630238D02*
X121252795Y-67630238D01*
X121252795Y-67630238D02*
X121157557Y-67582619D01*
X121157557Y-67582619D02*
X121109938Y-67535000D01*
X121109938Y-67535000D02*
X121062319Y-67439762D01*
X121062319Y-67439762D02*
X121062319Y-67201667D01*
X121062319Y-67201667D02*
X121109938Y-67058810D01*
X122014700Y-66201667D02*
X122062319Y-66296905D01*
X122062319Y-66296905D02*
X122062319Y-66487381D01*
X122062319Y-66487381D02*
X122014700Y-66582619D01*
X122014700Y-66582619D02*
X121967080Y-66630238D01*
X121967080Y-66630238D02*
X121871842Y-66677857D01*
X121871842Y-66677857D02*
X121586128Y-66677857D01*
X121586128Y-66677857D02*
X121490890Y-66630238D01*
X121490890Y-66630238D02*
X121443271Y-66582619D01*
X121443271Y-66582619D02*
X121395652Y-66487381D01*
X121395652Y-66487381D02*
X121395652Y-66296905D01*
X121395652Y-66296905D02*
X121443271Y-66201667D01*
X122062319Y-65773095D02*
X121062319Y-65773095D01*
X122062319Y-65344524D02*
X121538509Y-65344524D01*
X121538509Y-65344524D02*
X121443271Y-65392143D01*
X121443271Y-65392143D02*
X121395652Y-65487381D01*
X121395652Y-65487381D02*
X121395652Y-65630238D01*
X121395652Y-65630238D02*
X121443271Y-65725476D01*
X121443271Y-65725476D02*
X121490890Y-65773095D01*
X122062319Y-64725476D02*
X122014700Y-64820714D01*
X122014700Y-64820714D02*
X121967080Y-64868333D01*
X121967080Y-64868333D02*
X121871842Y-64915952D01*
X121871842Y-64915952D02*
X121586128Y-64915952D01*
X121586128Y-64915952D02*
X121490890Y-64868333D01*
X121490890Y-64868333D02*
X121443271Y-64820714D01*
X121443271Y-64820714D02*
X121395652Y-64725476D01*
X121395652Y-64725476D02*
X121395652Y-64582619D01*
X121395652Y-64582619D02*
X121443271Y-64487381D01*
X121443271Y-64487381D02*
X121490890Y-64439762D01*
X121490890Y-64439762D02*
X121586128Y-64392143D01*
X121586128Y-64392143D02*
X121871842Y-64392143D01*
X121871842Y-64392143D02*
X121967080Y-64439762D01*
X121967080Y-64439762D02*
X122014700Y-64487381D01*
X122014700Y-64487381D02*
X122062319Y-64582619D01*
X122062319Y-64582619D02*
X122062319Y-64725476D01*
X121395652Y-64106428D02*
X121395652Y-63725476D01*
X121062319Y-63963571D02*
X121919461Y-63963571D01*
X121919461Y-63963571D02*
X122014700Y-63915952D01*
X122014700Y-63915952D02*
X122062319Y-63820714D01*
X122062319Y-63820714D02*
X122062319Y-63725476D01*
X121395652Y-63534999D02*
X121395652Y-63154047D01*
X121062319Y-63392142D02*
X121919461Y-63392142D01*
X121919461Y-63392142D02*
X122014700Y-63344523D01*
X122014700Y-63344523D02*
X122062319Y-63249285D01*
X122062319Y-63249285D02*
X122062319Y-63154047D01*
X122062319Y-62820713D02*
X121062319Y-62820713D01*
X121681366Y-62725475D02*
X122062319Y-62439761D01*
X121395652Y-62439761D02*
X121776604Y-62820713D01*
X121395652Y-62106427D02*
X122062319Y-61868332D01*
X121395652Y-61630237D02*
X122062319Y-61868332D01*
X122062319Y-61868332D02*
X122300414Y-61963570D01*
X122300414Y-61963570D02*
X122348033Y-62011189D01*
X122348033Y-62011189D02*
X122395652Y-62106427D01*
X122157557Y-61487380D02*
X122157557Y-60725475D01*
X122014700Y-60534998D02*
X122062319Y-60392141D01*
X122062319Y-60392141D02*
X122062319Y-60154046D01*
X122062319Y-60154046D02*
X122014700Y-60058808D01*
X122014700Y-60058808D02*
X121967080Y-60011189D01*
X121967080Y-60011189D02*
X121871842Y-59963570D01*
X121871842Y-59963570D02*
X121776604Y-59963570D01*
X121776604Y-59963570D02*
X121681366Y-60011189D01*
X121681366Y-60011189D02*
X121633747Y-60058808D01*
X121633747Y-60058808D02*
X121586128Y-60154046D01*
X121586128Y-60154046D02*
X121538509Y-60344522D01*
X121538509Y-60344522D02*
X121490890Y-60439760D01*
X121490890Y-60439760D02*
X121443271Y-60487379D01*
X121443271Y-60487379D02*
X121348033Y-60534998D01*
X121348033Y-60534998D02*
X121252795Y-60534998D01*
X121252795Y-60534998D02*
X121157557Y-60487379D01*
X121157557Y-60487379D02*
X121109938Y-60439760D01*
X121109938Y-60439760D02*
X121062319Y-60344522D01*
X121062319Y-60344522D02*
X121062319Y-60106427D01*
X121062319Y-60106427D02*
X121109938Y-59963570D01*
X122062319Y-59534998D02*
X121395652Y-59534998D01*
X121490890Y-59534998D02*
X121443271Y-59487379D01*
X121443271Y-59487379D02*
X121395652Y-59392141D01*
X121395652Y-59392141D02*
X121395652Y-59249284D01*
X121395652Y-59249284D02*
X121443271Y-59154046D01*
X121443271Y-59154046D02*
X121538509Y-59106427D01*
X121538509Y-59106427D02*
X122062319Y-59106427D01*
X121538509Y-59106427D02*
X121443271Y-59058808D01*
X121443271Y-59058808D02*
X121395652Y-58963570D01*
X121395652Y-58963570D02*
X121395652Y-58820713D01*
X121395652Y-58820713D02*
X121443271Y-58725474D01*
X121443271Y-58725474D02*
X121538509Y-58677855D01*
X121538509Y-58677855D02*
X122062319Y-58677855D01*
X122062319Y-57773094D02*
X121538509Y-57773094D01*
X121538509Y-57773094D02*
X121443271Y-57820713D01*
X121443271Y-57820713D02*
X121395652Y-57915951D01*
X121395652Y-57915951D02*
X121395652Y-58106427D01*
X121395652Y-58106427D02*
X121443271Y-58201665D01*
X122014700Y-57773094D02*
X122062319Y-57868332D01*
X122062319Y-57868332D02*
X122062319Y-58106427D01*
X122062319Y-58106427D02*
X122014700Y-58201665D01*
X122014700Y-58201665D02*
X121919461Y-58249284D01*
X121919461Y-58249284D02*
X121824223Y-58249284D01*
X121824223Y-58249284D02*
X121728985Y-58201665D01*
X121728985Y-58201665D02*
X121681366Y-58106427D01*
X121681366Y-58106427D02*
X121681366Y-57868332D01*
X121681366Y-57868332D02*
X121633747Y-57773094D01*
X122062319Y-57154046D02*
X122014700Y-57249284D01*
X122014700Y-57249284D02*
X121919461Y-57296903D01*
X121919461Y-57296903D02*
X121062319Y-57296903D01*
X122062319Y-56630236D02*
X122014700Y-56725474D01*
X122014700Y-56725474D02*
X121919461Y-56773093D01*
X121919461Y-56773093D02*
X121062319Y-56773093D01*
X156388095Y-99913866D02*
X156435714Y-99866247D01*
X156435714Y-99866247D02*
X156530952Y-99818628D01*
X156530952Y-99818628D02*
X156721428Y-99913866D01*
X156721428Y-99913866D02*
X156816666Y-99866247D01*
X156816666Y-99866247D02*
X156864285Y-99818628D01*
X156104819Y-75361904D02*
X156914342Y-75361904D01*
X156914342Y-75361904D02*
X157009580Y-75314285D01*
X157009580Y-75314285D02*
X157057200Y-75266666D01*
X157057200Y-75266666D02*
X157104819Y-75171428D01*
X157104819Y-75171428D02*
X157104819Y-74980952D01*
X157104819Y-74980952D02*
X157057200Y-74885714D01*
X157057200Y-74885714D02*
X157009580Y-74838095D01*
X157009580Y-74838095D02*
X156914342Y-74790476D01*
X156914342Y-74790476D02*
X156104819Y-74790476D01*
X156200057Y-74361904D02*
X156152438Y-74314285D01*
X156152438Y-74314285D02*
X156104819Y-74219047D01*
X156104819Y-74219047D02*
X156104819Y-73980952D01*
X156104819Y-73980952D02*
X156152438Y-73885714D01*
X156152438Y-73885714D02*
X156200057Y-73838095D01*
X156200057Y-73838095D02*
X156295295Y-73790476D01*
X156295295Y-73790476D02*
X156390533Y-73790476D01*
X156390533Y-73790476D02*
X156533390Y-73838095D01*
X156533390Y-73838095D02*
X157104819Y-74409523D01*
X157104819Y-74409523D02*
X157104819Y-73790476D01*
X71446190Y-94610057D02*
X71493809Y-94562438D01*
X71493809Y-94562438D02*
X71589047Y-94514819D01*
X71589047Y-94514819D02*
X71827142Y-94514819D01*
X71827142Y-94514819D02*
X71922380Y-94562438D01*
X71922380Y-94562438D02*
X71969999Y-94610057D01*
X71969999Y-94610057D02*
X72017618Y-94705295D01*
X72017618Y-94705295D02*
X72017618Y-94800533D01*
X72017618Y-94800533D02*
X71969999Y-94943390D01*
X71969999Y-94943390D02*
X71398571Y-95514819D01*
X71398571Y-95514819D02*
X72017618Y-95514819D01*
X72398571Y-94610057D02*
X72446190Y-94562438D01*
X72446190Y-94562438D02*
X72541428Y-94514819D01*
X72541428Y-94514819D02*
X72779523Y-94514819D01*
X72779523Y-94514819D02*
X72874761Y-94562438D01*
X72874761Y-94562438D02*
X72922380Y-94610057D01*
X72922380Y-94610057D02*
X72969999Y-94705295D01*
X72969999Y-94705295D02*
X72969999Y-94800533D01*
X72969999Y-94800533D02*
X72922380Y-94943390D01*
X72922380Y-94943390D02*
X72350952Y-95514819D01*
X72350952Y-95514819D02*
X72969999Y-95514819D01*
X74160476Y-94848152D02*
X74160476Y-95848152D01*
X74160476Y-94895771D02*
X74255714Y-94848152D01*
X74255714Y-94848152D02*
X74446190Y-94848152D01*
X74446190Y-94848152D02*
X74541428Y-94895771D01*
X74541428Y-94895771D02*
X74589047Y-94943390D01*
X74589047Y-94943390D02*
X74636666Y-95038628D01*
X74636666Y-95038628D02*
X74636666Y-95324342D01*
X74636666Y-95324342D02*
X74589047Y-95419580D01*
X74589047Y-95419580D02*
X74541428Y-95467200D01*
X74541428Y-95467200D02*
X74446190Y-95514819D01*
X74446190Y-95514819D02*
X74255714Y-95514819D01*
X74255714Y-95514819D02*
X74160476Y-95467200D01*
X75398571Y-94991009D02*
X75065238Y-94991009D01*
X75065238Y-95514819D02*
X75065238Y-94514819D01*
X75065238Y-94514819D02*
X75541428Y-94514819D01*
D11*
X73598571Y-96919530D02*
X73574762Y-96943340D01*
X73574762Y-96943340D02*
X73503333Y-96967149D01*
X73503333Y-96967149D02*
X73455714Y-96967149D01*
X73455714Y-96967149D02*
X73384286Y-96943340D01*
X73384286Y-96943340D02*
X73336667Y-96895720D01*
X73336667Y-96895720D02*
X73312857Y-96848101D01*
X73312857Y-96848101D02*
X73289048Y-96752863D01*
X73289048Y-96752863D02*
X73289048Y-96681435D01*
X73289048Y-96681435D02*
X73312857Y-96586197D01*
X73312857Y-96586197D02*
X73336667Y-96538578D01*
X73336667Y-96538578D02*
X73384286Y-96490959D01*
X73384286Y-96490959D02*
X73455714Y-96467149D01*
X73455714Y-96467149D02*
X73503333Y-96467149D01*
X73503333Y-96467149D02*
X73574762Y-96490959D01*
X73574762Y-96490959D02*
X73598571Y-96514768D01*
X74074762Y-96967149D02*
X73789048Y-96967149D01*
X73931905Y-96967149D02*
X73931905Y-96467149D01*
X73931905Y-96467149D02*
X73884286Y-96538578D01*
X73884286Y-96538578D02*
X73836667Y-96586197D01*
X73836667Y-96586197D02*
X73789048Y-96610006D01*
X74550952Y-96967149D02*
X74265238Y-96967149D01*
X74408095Y-96967149D02*
X74408095Y-96467149D01*
X74408095Y-96467149D02*
X74360476Y-96538578D01*
X74360476Y-96538578D02*
X74312857Y-96586197D01*
X74312857Y-96586197D02*
X74265238Y-96610006D01*
D10*
X101362857Y-74344819D02*
X100886667Y-74344819D01*
X100886667Y-74344819D02*
X100886667Y-73344819D01*
X101696191Y-74344819D02*
X101696191Y-73344819D01*
X101696191Y-73344819D02*
X102029524Y-74059104D01*
X102029524Y-74059104D02*
X102362857Y-73344819D01*
X102362857Y-73344819D02*
X102362857Y-74344819D01*
X102791429Y-73440057D02*
X102839048Y-73392438D01*
X102839048Y-73392438D02*
X102934286Y-73344819D01*
X102934286Y-73344819D02*
X103172381Y-73344819D01*
X103172381Y-73344819D02*
X103267619Y-73392438D01*
X103267619Y-73392438D02*
X103315238Y-73440057D01*
X103315238Y-73440057D02*
X103362857Y-73535295D01*
X103362857Y-73535295D02*
X103362857Y-73630533D01*
X103362857Y-73630533D02*
X103315238Y-73773390D01*
X103315238Y-73773390D02*
X102743810Y-74344819D01*
X102743810Y-74344819D02*
X103362857Y-74344819D01*
X104267619Y-73344819D02*
X103791429Y-73344819D01*
X103791429Y-73344819D02*
X103743810Y-73821009D01*
X103743810Y-73821009D02*
X103791429Y-73773390D01*
X103791429Y-73773390D02*
X103886667Y-73725771D01*
X103886667Y-73725771D02*
X104124762Y-73725771D01*
X104124762Y-73725771D02*
X104220000Y-73773390D01*
X104220000Y-73773390D02*
X104267619Y-73821009D01*
X104267619Y-73821009D02*
X104315238Y-73916247D01*
X104315238Y-73916247D02*
X104315238Y-74154342D01*
X104315238Y-74154342D02*
X104267619Y-74249580D01*
X104267619Y-74249580D02*
X104220000Y-74297200D01*
X104220000Y-74297200D02*
X104124762Y-74344819D01*
X104124762Y-74344819D02*
X103886667Y-74344819D01*
X103886667Y-74344819D02*
X103791429Y-74297200D01*
X103791429Y-74297200D02*
X103743810Y-74249580D01*
X104791429Y-74344819D02*
X104981905Y-74344819D01*
X104981905Y-74344819D02*
X105077143Y-74297200D01*
X105077143Y-74297200D02*
X105124762Y-74249580D01*
X105124762Y-74249580D02*
X105220000Y-74106723D01*
X105220000Y-74106723D02*
X105267619Y-73916247D01*
X105267619Y-73916247D02*
X105267619Y-73535295D01*
X105267619Y-73535295D02*
X105220000Y-73440057D01*
X105220000Y-73440057D02*
X105172381Y-73392438D01*
X105172381Y-73392438D02*
X105077143Y-73344819D01*
X105077143Y-73344819D02*
X104886667Y-73344819D01*
X104886667Y-73344819D02*
X104791429Y-73392438D01*
X104791429Y-73392438D02*
X104743810Y-73440057D01*
X104743810Y-73440057D02*
X104696191Y-73535295D01*
X104696191Y-73535295D02*
X104696191Y-73773390D01*
X104696191Y-73773390D02*
X104743810Y-73868628D01*
X104743810Y-73868628D02*
X104791429Y-73916247D01*
X104791429Y-73916247D02*
X104886667Y-73963866D01*
X104886667Y-73963866D02*
X105077143Y-73963866D01*
X105077143Y-73963866D02*
X105172381Y-73916247D01*
X105172381Y-73916247D02*
X105220000Y-73868628D01*
X105220000Y-73868628D02*
X105267619Y-73773390D01*
X106124762Y-73344819D02*
X105934286Y-73344819D01*
X105934286Y-73344819D02*
X105839048Y-73392438D01*
X105839048Y-73392438D02*
X105791429Y-73440057D01*
X105791429Y-73440057D02*
X105696191Y-73582914D01*
X105696191Y-73582914D02*
X105648572Y-73773390D01*
X105648572Y-73773390D02*
X105648572Y-74154342D01*
X105648572Y-74154342D02*
X105696191Y-74249580D01*
X105696191Y-74249580D02*
X105743810Y-74297200D01*
X105743810Y-74297200D02*
X105839048Y-74344819D01*
X105839048Y-74344819D02*
X106029524Y-74344819D01*
X106029524Y-74344819D02*
X106124762Y-74297200D01*
X106124762Y-74297200D02*
X106172381Y-74249580D01*
X106172381Y-74249580D02*
X106220000Y-74154342D01*
X106220000Y-74154342D02*
X106220000Y-73916247D01*
X106220000Y-73916247D02*
X106172381Y-73821009D01*
X106172381Y-73821009D02*
X106124762Y-73773390D01*
X106124762Y-73773390D02*
X106029524Y-73725771D01*
X106029524Y-73725771D02*
X105839048Y-73725771D01*
X105839048Y-73725771D02*
X105743810Y-73773390D01*
X105743810Y-73773390D02*
X105696191Y-73821009D01*
X105696191Y-73821009D02*
X105648572Y-73916247D01*
X106505715Y-73344819D02*
X107077143Y-73344819D01*
X106791429Y-74344819D02*
X106791429Y-73344819D01*
X107410477Y-73963866D02*
X108172382Y-73963866D01*
X108553334Y-73344819D02*
X109172381Y-73344819D01*
X109172381Y-73344819D02*
X108839048Y-73725771D01*
X108839048Y-73725771D02*
X108981905Y-73725771D01*
X108981905Y-73725771D02*
X109077143Y-73773390D01*
X109077143Y-73773390D02*
X109124762Y-73821009D01*
X109124762Y-73821009D02*
X109172381Y-73916247D01*
X109172381Y-73916247D02*
X109172381Y-74154342D01*
X109172381Y-74154342D02*
X109124762Y-74249580D01*
X109124762Y-74249580D02*
X109077143Y-74297200D01*
X109077143Y-74297200D02*
X108981905Y-74344819D01*
X108981905Y-74344819D02*
X108696191Y-74344819D01*
X108696191Y-74344819D02*
X108600953Y-74297200D01*
X108600953Y-74297200D02*
X108553334Y-74249580D01*
X109600953Y-74249580D02*
X109648572Y-74297200D01*
X109648572Y-74297200D02*
X109600953Y-74344819D01*
X109600953Y-74344819D02*
X109553334Y-74297200D01*
X109553334Y-74297200D02*
X109600953Y-74249580D01*
X109600953Y-74249580D02*
X109600953Y-74344819D01*
X109981905Y-73344819D02*
X110600952Y-73344819D01*
X110600952Y-73344819D02*
X110267619Y-73725771D01*
X110267619Y-73725771D02*
X110410476Y-73725771D01*
X110410476Y-73725771D02*
X110505714Y-73773390D01*
X110505714Y-73773390D02*
X110553333Y-73821009D01*
X110553333Y-73821009D02*
X110600952Y-73916247D01*
X110600952Y-73916247D02*
X110600952Y-74154342D01*
X110600952Y-74154342D02*
X110553333Y-74249580D01*
X110553333Y-74249580D02*
X110505714Y-74297200D01*
X110505714Y-74297200D02*
X110410476Y-74344819D01*
X110410476Y-74344819D02*
X110124762Y-74344819D01*
X110124762Y-74344819D02*
X110029524Y-74297200D01*
X110029524Y-74297200D02*
X109981905Y-74249580D01*
X148694819Y-135832856D02*
X148694819Y-135737618D01*
X148694819Y-135737618D02*
X148742438Y-135642380D01*
X148742438Y-135642380D02*
X148790057Y-135594761D01*
X148790057Y-135594761D02*
X148885295Y-135547142D01*
X148885295Y-135547142D02*
X149075771Y-135499523D01*
X149075771Y-135499523D02*
X149313866Y-135499523D01*
X149313866Y-135499523D02*
X149504342Y-135547142D01*
X149504342Y-135547142D02*
X149599580Y-135594761D01*
X149599580Y-135594761D02*
X149647200Y-135642380D01*
X149647200Y-135642380D02*
X149694819Y-135737618D01*
X149694819Y-135737618D02*
X149694819Y-135832856D01*
X149694819Y-135832856D02*
X149647200Y-135928094D01*
X149647200Y-135928094D02*
X149599580Y-135975713D01*
X149599580Y-135975713D02*
X149504342Y-136023332D01*
X149504342Y-136023332D02*
X149313866Y-136070951D01*
X149313866Y-136070951D02*
X149075771Y-136070951D01*
X149075771Y-136070951D02*
X148885295Y-136023332D01*
X148885295Y-136023332D02*
X148790057Y-135975713D01*
X148790057Y-135975713D02*
X148742438Y-135928094D01*
X148742438Y-135928094D02*
X148694819Y-135832856D01*
X149599580Y-135070951D02*
X149647200Y-135023332D01*
X149647200Y-135023332D02*
X149694819Y-135070951D01*
X149694819Y-135070951D02*
X149647200Y-135118570D01*
X149647200Y-135118570D02*
X149599580Y-135070951D01*
X149599580Y-135070951D02*
X149694819Y-135070951D01*
X149694819Y-134070952D02*
X149694819Y-134642380D01*
X149694819Y-134356666D02*
X148694819Y-134356666D01*
X148694819Y-134356666D02*
X148837676Y-134451904D01*
X148837676Y-134451904D02*
X148932914Y-134547142D01*
X148932914Y-134547142D02*
X148980533Y-134642380D01*
X149028152Y-133213809D02*
X149694819Y-133213809D01*
X149028152Y-133642380D02*
X149551961Y-133642380D01*
X149551961Y-133642380D02*
X149647200Y-133594761D01*
X149647200Y-133594761D02*
X149694819Y-133499523D01*
X149694819Y-133499523D02*
X149694819Y-133356666D01*
X149694819Y-133356666D02*
X149647200Y-133261428D01*
X149647200Y-133261428D02*
X149599580Y-133213809D01*
X149171009Y-132404285D02*
X149171009Y-132737618D01*
X149694819Y-132737618D02*
X148694819Y-132737618D01*
X148694819Y-132737618D02*
X148694819Y-132261428D01*
D11*
X151099530Y-134273333D02*
X151123340Y-134297142D01*
X151123340Y-134297142D02*
X151147149Y-134368571D01*
X151147149Y-134368571D02*
X151147149Y-134416190D01*
X151147149Y-134416190D02*
X151123340Y-134487618D01*
X151123340Y-134487618D02*
X151075720Y-134535237D01*
X151075720Y-134535237D02*
X151028101Y-134559047D01*
X151028101Y-134559047D02*
X150932863Y-134582856D01*
X150932863Y-134582856D02*
X150861435Y-134582856D01*
X150861435Y-134582856D02*
X150766197Y-134559047D01*
X150766197Y-134559047D02*
X150718578Y-134535237D01*
X150718578Y-134535237D02*
X150670959Y-134487618D01*
X150670959Y-134487618D02*
X150647149Y-134416190D01*
X150647149Y-134416190D02*
X150647149Y-134368571D01*
X150647149Y-134368571D02*
X150670959Y-134297142D01*
X150670959Y-134297142D02*
X150694768Y-134273333D01*
X150694768Y-134082856D02*
X150670959Y-134059047D01*
X150670959Y-134059047D02*
X150647149Y-134011428D01*
X150647149Y-134011428D02*
X150647149Y-133892380D01*
X150647149Y-133892380D02*
X150670959Y-133844761D01*
X150670959Y-133844761D02*
X150694768Y-133820952D01*
X150694768Y-133820952D02*
X150742387Y-133797142D01*
X150742387Y-133797142D02*
X150790006Y-133797142D01*
X150790006Y-133797142D02*
X150861435Y-133820952D01*
X150861435Y-133820952D02*
X151147149Y-134106666D01*
X151147149Y-134106666D02*
X151147149Y-133797142D01*
D10*
X81327200Y-64478095D02*
X81374819Y-64335238D01*
X81374819Y-64335238D02*
X81374819Y-64097143D01*
X81374819Y-64097143D02*
X81327200Y-64001905D01*
X81327200Y-64001905D02*
X81279580Y-63954286D01*
X81279580Y-63954286D02*
X81184342Y-63906667D01*
X81184342Y-63906667D02*
X81089104Y-63906667D01*
X81089104Y-63906667D02*
X80993866Y-63954286D01*
X80993866Y-63954286D02*
X80946247Y-64001905D01*
X80946247Y-64001905D02*
X80898628Y-64097143D01*
X80898628Y-64097143D02*
X80851009Y-64287619D01*
X80851009Y-64287619D02*
X80803390Y-64382857D01*
X80803390Y-64382857D02*
X80755771Y-64430476D01*
X80755771Y-64430476D02*
X80660533Y-64478095D01*
X80660533Y-64478095D02*
X80565295Y-64478095D01*
X80565295Y-64478095D02*
X80470057Y-64430476D01*
X80470057Y-64430476D02*
X80422438Y-64382857D01*
X80422438Y-64382857D02*
X80374819Y-64287619D01*
X80374819Y-64287619D02*
X80374819Y-64049524D01*
X80374819Y-64049524D02*
X80422438Y-63906667D01*
X81327200Y-63049524D02*
X81374819Y-63144762D01*
X81374819Y-63144762D02*
X81374819Y-63335238D01*
X81374819Y-63335238D02*
X81327200Y-63430476D01*
X81327200Y-63430476D02*
X81279580Y-63478095D01*
X81279580Y-63478095D02*
X81184342Y-63525714D01*
X81184342Y-63525714D02*
X80898628Y-63525714D01*
X80898628Y-63525714D02*
X80803390Y-63478095D01*
X80803390Y-63478095D02*
X80755771Y-63430476D01*
X80755771Y-63430476D02*
X80708152Y-63335238D01*
X80708152Y-63335238D02*
X80708152Y-63144762D01*
X80708152Y-63144762D02*
X80755771Y-63049524D01*
X81374819Y-62620952D02*
X80708152Y-62620952D01*
X80898628Y-62620952D02*
X80803390Y-62573333D01*
X80803390Y-62573333D02*
X80755771Y-62525714D01*
X80755771Y-62525714D02*
X80708152Y-62430476D01*
X80708152Y-62430476D02*
X80708152Y-62335238D01*
X81327200Y-61620952D02*
X81374819Y-61716190D01*
X81374819Y-61716190D02*
X81374819Y-61906666D01*
X81374819Y-61906666D02*
X81327200Y-62001904D01*
X81327200Y-62001904D02*
X81231961Y-62049523D01*
X81231961Y-62049523D02*
X80851009Y-62049523D01*
X80851009Y-62049523D02*
X80755771Y-62001904D01*
X80755771Y-62001904D02*
X80708152Y-61906666D01*
X80708152Y-61906666D02*
X80708152Y-61716190D01*
X80708152Y-61716190D02*
X80755771Y-61620952D01*
X80755771Y-61620952D02*
X80851009Y-61573333D01*
X80851009Y-61573333D02*
X80946247Y-61573333D01*
X80946247Y-61573333D02*
X81041485Y-62049523D01*
X80708152Y-61239999D02*
X81374819Y-61049523D01*
X81374819Y-61049523D02*
X80898628Y-60859047D01*
X80898628Y-60859047D02*
X81374819Y-60668571D01*
X81374819Y-60668571D02*
X80708152Y-60478095D01*
X81470057Y-60335238D02*
X81470057Y-59573333D01*
X80374819Y-59478094D02*
X80374819Y-58906666D01*
X81374819Y-59192380D02*
X80374819Y-59192380D01*
X81327200Y-58192380D02*
X81374819Y-58287618D01*
X81374819Y-58287618D02*
X81374819Y-58478094D01*
X81374819Y-58478094D02*
X81327200Y-58573332D01*
X81327200Y-58573332D02*
X81231961Y-58620951D01*
X81231961Y-58620951D02*
X80851009Y-58620951D01*
X80851009Y-58620951D02*
X80755771Y-58573332D01*
X80755771Y-58573332D02*
X80708152Y-58478094D01*
X80708152Y-58478094D02*
X80708152Y-58287618D01*
X80708152Y-58287618D02*
X80755771Y-58192380D01*
X80755771Y-58192380D02*
X80851009Y-58144761D01*
X80851009Y-58144761D02*
X80946247Y-58144761D01*
X80946247Y-58144761D02*
X81041485Y-58620951D01*
X81374819Y-57716189D02*
X80708152Y-57716189D01*
X80898628Y-57716189D02*
X80803390Y-57668570D01*
X80803390Y-57668570D02*
X80755771Y-57620951D01*
X80755771Y-57620951D02*
X80708152Y-57525713D01*
X80708152Y-57525713D02*
X80708152Y-57430475D01*
X81374819Y-57097141D02*
X80708152Y-57097141D01*
X80803390Y-57097141D02*
X80755771Y-57049522D01*
X80755771Y-57049522D02*
X80708152Y-56954284D01*
X80708152Y-56954284D02*
X80708152Y-56811427D01*
X80708152Y-56811427D02*
X80755771Y-56716189D01*
X80755771Y-56716189D02*
X80851009Y-56668570D01*
X80851009Y-56668570D02*
X81374819Y-56668570D01*
X80851009Y-56668570D02*
X80755771Y-56620951D01*
X80755771Y-56620951D02*
X80708152Y-56525713D01*
X80708152Y-56525713D02*
X80708152Y-56382856D01*
X80708152Y-56382856D02*
X80755771Y-56287617D01*
X80755771Y-56287617D02*
X80851009Y-56239998D01*
X80851009Y-56239998D02*
X81374819Y-56239998D01*
X81374819Y-55763808D02*
X80708152Y-55763808D01*
X80374819Y-55763808D02*
X80422438Y-55811427D01*
X80422438Y-55811427D02*
X80470057Y-55763808D01*
X80470057Y-55763808D02*
X80422438Y-55716189D01*
X80422438Y-55716189D02*
X80374819Y-55763808D01*
X80374819Y-55763808D02*
X80470057Y-55763808D01*
X80708152Y-55287618D02*
X81374819Y-55287618D01*
X80803390Y-55287618D02*
X80755771Y-55239999D01*
X80755771Y-55239999D02*
X80708152Y-55144761D01*
X80708152Y-55144761D02*
X80708152Y-55001904D01*
X80708152Y-55001904D02*
X80755771Y-54906666D01*
X80755771Y-54906666D02*
X80851009Y-54859047D01*
X80851009Y-54859047D02*
X81374819Y-54859047D01*
X81374819Y-53954285D02*
X80851009Y-53954285D01*
X80851009Y-53954285D02*
X80755771Y-54001904D01*
X80755771Y-54001904D02*
X80708152Y-54097142D01*
X80708152Y-54097142D02*
X80708152Y-54287618D01*
X80708152Y-54287618D02*
X80755771Y-54382856D01*
X81327200Y-53954285D02*
X81374819Y-54049523D01*
X81374819Y-54049523D02*
X81374819Y-54287618D01*
X81374819Y-54287618D02*
X81327200Y-54382856D01*
X81327200Y-54382856D02*
X81231961Y-54430475D01*
X81231961Y-54430475D02*
X81136723Y-54430475D01*
X81136723Y-54430475D02*
X81041485Y-54382856D01*
X81041485Y-54382856D02*
X80993866Y-54287618D01*
X80993866Y-54287618D02*
X80993866Y-54049523D01*
X80993866Y-54049523D02*
X80946247Y-53954285D01*
X81374819Y-53335237D02*
X81327200Y-53430475D01*
X81327200Y-53430475D02*
X81231961Y-53478094D01*
X81231961Y-53478094D02*
X80374819Y-53478094D01*
X81470057Y-53192380D02*
X81470057Y-52430475D01*
X80374819Y-52001903D02*
X80374819Y-51906665D01*
X80374819Y-51906665D02*
X80422438Y-51811427D01*
X80422438Y-51811427D02*
X80470057Y-51763808D01*
X80470057Y-51763808D02*
X80565295Y-51716189D01*
X80565295Y-51716189D02*
X80755771Y-51668570D01*
X80755771Y-51668570D02*
X80993866Y-51668570D01*
X80993866Y-51668570D02*
X81184342Y-51716189D01*
X81184342Y-51716189D02*
X81279580Y-51763808D01*
X81279580Y-51763808D02*
X81327200Y-51811427D01*
X81327200Y-51811427D02*
X81374819Y-51906665D01*
X81374819Y-51906665D02*
X81374819Y-52001903D01*
X81374819Y-52001903D02*
X81327200Y-52097141D01*
X81327200Y-52097141D02*
X81279580Y-52144760D01*
X81279580Y-52144760D02*
X81184342Y-52192379D01*
X81184342Y-52192379D02*
X80993866Y-52239998D01*
X80993866Y-52239998D02*
X80755771Y-52239998D01*
X80755771Y-52239998D02*
X80565295Y-52192379D01*
X80565295Y-52192379D02*
X80470057Y-52144760D01*
X80470057Y-52144760D02*
X80422438Y-52097141D01*
X80422438Y-52097141D02*
X80374819Y-52001903D01*
X81374819Y-50716189D02*
X81374819Y-51287617D01*
X81374819Y-51001903D02*
X80374819Y-51001903D01*
X80374819Y-51001903D02*
X80517676Y-51097141D01*
X80517676Y-51097141D02*
X80612914Y-51192379D01*
X80612914Y-51192379D02*
X80660533Y-51287617D01*
X81374819Y-50382855D02*
X80708152Y-49859046D01*
X80708152Y-50382855D02*
X81374819Y-49859046D01*
X80374819Y-49287617D02*
X80374819Y-49192379D01*
X80374819Y-49192379D02*
X80422438Y-49097141D01*
X80422438Y-49097141D02*
X80470057Y-49049522D01*
X80470057Y-49049522D02*
X80565295Y-49001903D01*
X80565295Y-49001903D02*
X80755771Y-48954284D01*
X80755771Y-48954284D02*
X80993866Y-48954284D01*
X80993866Y-48954284D02*
X81184342Y-49001903D01*
X81184342Y-49001903D02*
X81279580Y-49049522D01*
X81279580Y-49049522D02*
X81327200Y-49097141D01*
X81327200Y-49097141D02*
X81374819Y-49192379D01*
X81374819Y-49192379D02*
X81374819Y-49287617D01*
X81374819Y-49287617D02*
X81327200Y-49382855D01*
X81327200Y-49382855D02*
X81279580Y-49430474D01*
X81279580Y-49430474D02*
X81184342Y-49478093D01*
X81184342Y-49478093D02*
X80993866Y-49525712D01*
X80993866Y-49525712D02*
X80755771Y-49525712D01*
X80755771Y-49525712D02*
X80565295Y-49478093D01*
X80565295Y-49478093D02*
X80470057Y-49430474D01*
X80470057Y-49430474D02*
X80422438Y-49382855D01*
X80422438Y-49382855D02*
X80374819Y-49287617D01*
X80470057Y-48573331D02*
X80422438Y-48525712D01*
X80422438Y-48525712D02*
X80374819Y-48430474D01*
X80374819Y-48430474D02*
X80374819Y-48192379D01*
X80374819Y-48192379D02*
X80422438Y-48097141D01*
X80422438Y-48097141D02*
X80470057Y-48049522D01*
X80470057Y-48049522D02*
X80565295Y-48001903D01*
X80565295Y-48001903D02*
X80660533Y-48001903D01*
X80660533Y-48001903D02*
X80803390Y-48049522D01*
X80803390Y-48049522D02*
X81374819Y-48620950D01*
X81374819Y-48620950D02*
X81374819Y-48001903D01*
X88336666Y-57344819D02*
X88336666Y-58059104D01*
X88336666Y-58059104D02*
X88289047Y-58201961D01*
X88289047Y-58201961D02*
X88193809Y-58297200D01*
X88193809Y-58297200D02*
X88050952Y-58344819D01*
X88050952Y-58344819D02*
X87955714Y-58344819D01*
X88765238Y-57440057D02*
X88812857Y-57392438D01*
X88812857Y-57392438D02*
X88908095Y-57344819D01*
X88908095Y-57344819D02*
X89146190Y-57344819D01*
X89146190Y-57344819D02*
X89241428Y-57392438D01*
X89241428Y-57392438D02*
X89289047Y-57440057D01*
X89289047Y-57440057D02*
X89336666Y-57535295D01*
X89336666Y-57535295D02*
X89336666Y-57630533D01*
X89336666Y-57630533D02*
X89289047Y-57773390D01*
X89289047Y-57773390D02*
X88717619Y-58344819D01*
X88717619Y-58344819D02*
X89336666Y-58344819D01*
D11*
X88836666Y-110467149D02*
X88670000Y-110229054D01*
X88550952Y-110467149D02*
X88550952Y-109967149D01*
X88550952Y-109967149D02*
X88741428Y-109967149D01*
X88741428Y-109967149D02*
X88789047Y-109990959D01*
X88789047Y-109990959D02*
X88812857Y-110014768D01*
X88812857Y-110014768D02*
X88836666Y-110062387D01*
X88836666Y-110062387D02*
X88836666Y-110133816D01*
X88836666Y-110133816D02*
X88812857Y-110181435D01*
X88812857Y-110181435D02*
X88789047Y-110205244D01*
X88789047Y-110205244D02*
X88741428Y-110229054D01*
X88741428Y-110229054D02*
X88550952Y-110229054D01*
X89265238Y-109967149D02*
X89170000Y-109967149D01*
X89170000Y-109967149D02*
X89122381Y-109990959D01*
X89122381Y-109990959D02*
X89098571Y-110014768D01*
X89098571Y-110014768D02*
X89050952Y-110086197D01*
X89050952Y-110086197D02*
X89027143Y-110181435D01*
X89027143Y-110181435D02*
X89027143Y-110371911D01*
X89027143Y-110371911D02*
X89050952Y-110419530D01*
X89050952Y-110419530D02*
X89074762Y-110443340D01*
X89074762Y-110443340D02*
X89122381Y-110467149D01*
X89122381Y-110467149D02*
X89217619Y-110467149D01*
X89217619Y-110467149D02*
X89265238Y-110443340D01*
X89265238Y-110443340D02*
X89289047Y-110419530D01*
X89289047Y-110419530D02*
X89312857Y-110371911D01*
X89312857Y-110371911D02*
X89312857Y-110252863D01*
X89312857Y-110252863D02*
X89289047Y-110205244D01*
X89289047Y-110205244D02*
X89265238Y-110181435D01*
X89265238Y-110181435D02*
X89217619Y-110157625D01*
X89217619Y-110157625D02*
X89122381Y-110157625D01*
X89122381Y-110157625D02*
X89074762Y-110181435D01*
X89074762Y-110181435D02*
X89050952Y-110205244D01*
X89050952Y-110205244D02*
X89027143Y-110252863D01*
D10*
X150300952Y-121844819D02*
X149729524Y-121844819D01*
X150015238Y-121844819D02*
X150015238Y-120844819D01*
X150015238Y-120844819D02*
X149920000Y-120987676D01*
X149920000Y-120987676D02*
X149824762Y-121082914D01*
X149824762Y-121082914D02*
X149729524Y-121130533D01*
X150729524Y-121844819D02*
X150729524Y-120844819D01*
X150824762Y-121463866D02*
X151110476Y-121844819D01*
X151110476Y-121178152D02*
X150729524Y-121559104D01*
D11*
X150336666Y-119967149D02*
X150170000Y-119729054D01*
X150050952Y-119967149D02*
X150050952Y-119467149D01*
X150050952Y-119467149D02*
X150241428Y-119467149D01*
X150241428Y-119467149D02*
X150289047Y-119490959D01*
X150289047Y-119490959D02*
X150312857Y-119514768D01*
X150312857Y-119514768D02*
X150336666Y-119562387D01*
X150336666Y-119562387D02*
X150336666Y-119633816D01*
X150336666Y-119633816D02*
X150312857Y-119681435D01*
X150312857Y-119681435D02*
X150289047Y-119705244D01*
X150289047Y-119705244D02*
X150241428Y-119729054D01*
X150241428Y-119729054D02*
X150050952Y-119729054D01*
X150527143Y-119514768D02*
X150550952Y-119490959D01*
X150550952Y-119490959D02*
X150598571Y-119467149D01*
X150598571Y-119467149D02*
X150717619Y-119467149D01*
X150717619Y-119467149D02*
X150765238Y-119490959D01*
X150765238Y-119490959D02*
X150789047Y-119514768D01*
X150789047Y-119514768D02*
X150812857Y-119562387D01*
X150812857Y-119562387D02*
X150812857Y-119610006D01*
X150812857Y-119610006D02*
X150789047Y-119681435D01*
X150789047Y-119681435D02*
X150503333Y-119967149D01*
X150503333Y-119967149D02*
X150812857Y-119967149D01*
D10*
X111623866Y-129951904D02*
X111576247Y-129904285D01*
X111576247Y-129904285D02*
X111528628Y-129809047D01*
X111528628Y-129809047D02*
X111623866Y-129618571D01*
X111623866Y-129618571D02*
X111576247Y-129523333D01*
X111576247Y-129523333D02*
X111528628Y-129475714D01*
X106978095Y-129144819D02*
X106978095Y-129954342D01*
X106978095Y-129954342D02*
X107025714Y-130049580D01*
X107025714Y-130049580D02*
X107073333Y-130097200D01*
X107073333Y-130097200D02*
X107168571Y-130144819D01*
X107168571Y-130144819D02*
X107359047Y-130144819D01*
X107359047Y-130144819D02*
X107454285Y-130097200D01*
X107454285Y-130097200D02*
X107501904Y-130049580D01*
X107501904Y-130049580D02*
X107549523Y-129954342D01*
X107549523Y-129954342D02*
X107549523Y-129144819D01*
X108501904Y-129144819D02*
X108025714Y-129144819D01*
X108025714Y-129144819D02*
X107978095Y-129621009D01*
X107978095Y-129621009D02*
X108025714Y-129573390D01*
X108025714Y-129573390D02*
X108120952Y-129525771D01*
X108120952Y-129525771D02*
X108359047Y-129525771D01*
X108359047Y-129525771D02*
X108454285Y-129573390D01*
X108454285Y-129573390D02*
X108501904Y-129621009D01*
X108501904Y-129621009D02*
X108549523Y-129716247D01*
X108549523Y-129716247D02*
X108549523Y-129954342D01*
X108549523Y-129954342D02*
X108501904Y-130049580D01*
X108501904Y-130049580D02*
X108454285Y-130097200D01*
X108454285Y-130097200D02*
X108359047Y-130144819D01*
X108359047Y-130144819D02*
X108120952Y-130144819D01*
X108120952Y-130144819D02*
X108025714Y-130097200D01*
X108025714Y-130097200D02*
X107978095Y-130049580D01*
X121658095Y-79028152D02*
X121658095Y-79694819D01*
X121420000Y-78647200D02*
X121181905Y-79361485D01*
X121181905Y-79361485D02*
X121800952Y-79361485D01*
X122086667Y-78694819D02*
X122753333Y-78694819D01*
X122753333Y-78694819D02*
X122324762Y-79694819D01*
X123562857Y-79028152D02*
X123562857Y-79694819D01*
X123134286Y-79028152D02*
X123134286Y-79551961D01*
X123134286Y-79551961D02*
X123181905Y-79647200D01*
X123181905Y-79647200D02*
X123277143Y-79694819D01*
X123277143Y-79694819D02*
X123420000Y-79694819D01*
X123420000Y-79694819D02*
X123515238Y-79647200D01*
X123515238Y-79647200D02*
X123562857Y-79599580D01*
X124039048Y-79694819D02*
X124039048Y-78694819D01*
X124039048Y-79171009D02*
X124610476Y-79171009D01*
X124610476Y-79694819D02*
X124610476Y-78694819D01*
X179372381Y-131847200D02*
X179515238Y-131894819D01*
X179515238Y-131894819D02*
X179753333Y-131894819D01*
X179753333Y-131894819D02*
X179848571Y-131847200D01*
X179848571Y-131847200D02*
X179896190Y-131799580D01*
X179896190Y-131799580D02*
X179943809Y-131704342D01*
X179943809Y-131704342D02*
X179943809Y-131609104D01*
X179943809Y-131609104D02*
X179896190Y-131513866D01*
X179896190Y-131513866D02*
X179848571Y-131466247D01*
X179848571Y-131466247D02*
X179753333Y-131418628D01*
X179753333Y-131418628D02*
X179562857Y-131371009D01*
X179562857Y-131371009D02*
X179467619Y-131323390D01*
X179467619Y-131323390D02*
X179420000Y-131275771D01*
X179420000Y-131275771D02*
X179372381Y-131180533D01*
X179372381Y-131180533D02*
X179372381Y-131085295D01*
X179372381Y-131085295D02*
X179420000Y-130990057D01*
X179420000Y-130990057D02*
X179467619Y-130942438D01*
X179467619Y-130942438D02*
X179562857Y-130894819D01*
X179562857Y-130894819D02*
X179800952Y-130894819D01*
X179800952Y-130894819D02*
X179943809Y-130942438D01*
X180277143Y-130894819D02*
X180515238Y-131894819D01*
X180515238Y-131894819D02*
X180705714Y-131180533D01*
X180705714Y-131180533D02*
X180896190Y-131894819D01*
X180896190Y-131894819D02*
X181134286Y-130894819D01*
X181277143Y-131990057D02*
X182039047Y-131990057D01*
X182277143Y-131894819D02*
X182277143Y-130894819D01*
X182277143Y-130894819D02*
X182658095Y-130894819D01*
X182658095Y-130894819D02*
X182753333Y-130942438D01*
X182753333Y-130942438D02*
X182800952Y-130990057D01*
X182800952Y-130990057D02*
X182848571Y-131085295D01*
X182848571Y-131085295D02*
X182848571Y-131228152D01*
X182848571Y-131228152D02*
X182800952Y-131323390D01*
X182800952Y-131323390D02*
X182753333Y-131371009D01*
X182753333Y-131371009D02*
X182658095Y-131418628D01*
X182658095Y-131418628D02*
X182277143Y-131418628D01*
X183705714Y-131228152D02*
X183705714Y-131894819D01*
X183277143Y-131228152D02*
X183277143Y-131751961D01*
X183277143Y-131751961D02*
X183324762Y-131847200D01*
X183324762Y-131847200D02*
X183420000Y-131894819D01*
X183420000Y-131894819D02*
X183562857Y-131894819D01*
X183562857Y-131894819D02*
X183658095Y-131847200D01*
X183658095Y-131847200D02*
X183705714Y-131799580D01*
X184134286Y-131847200D02*
X184229524Y-131894819D01*
X184229524Y-131894819D02*
X184420000Y-131894819D01*
X184420000Y-131894819D02*
X184515238Y-131847200D01*
X184515238Y-131847200D02*
X184562857Y-131751961D01*
X184562857Y-131751961D02*
X184562857Y-131704342D01*
X184562857Y-131704342D02*
X184515238Y-131609104D01*
X184515238Y-131609104D02*
X184420000Y-131561485D01*
X184420000Y-131561485D02*
X184277143Y-131561485D01*
X184277143Y-131561485D02*
X184181905Y-131513866D01*
X184181905Y-131513866D02*
X184134286Y-131418628D01*
X184134286Y-131418628D02*
X184134286Y-131371009D01*
X184134286Y-131371009D02*
X184181905Y-131275771D01*
X184181905Y-131275771D02*
X184277143Y-131228152D01*
X184277143Y-131228152D02*
X184420000Y-131228152D01*
X184420000Y-131228152D02*
X184515238Y-131275771D01*
X184991429Y-131894819D02*
X184991429Y-130894819D01*
X185420000Y-131894819D02*
X185420000Y-131371009D01*
X185420000Y-131371009D02*
X185372381Y-131275771D01*
X185372381Y-131275771D02*
X185277143Y-131228152D01*
X185277143Y-131228152D02*
X185134286Y-131228152D01*
X185134286Y-131228152D02*
X185039048Y-131275771D01*
X185039048Y-131275771D02*
X184991429Y-131323390D01*
X181086667Y-125447200D02*
X181229524Y-125494819D01*
X181229524Y-125494819D02*
X181467619Y-125494819D01*
X181467619Y-125494819D02*
X181562857Y-125447200D01*
X181562857Y-125447200D02*
X181610476Y-125399580D01*
X181610476Y-125399580D02*
X181658095Y-125304342D01*
X181658095Y-125304342D02*
X181658095Y-125209104D01*
X181658095Y-125209104D02*
X181610476Y-125113866D01*
X181610476Y-125113866D02*
X181562857Y-125066247D01*
X181562857Y-125066247D02*
X181467619Y-125018628D01*
X181467619Y-125018628D02*
X181277143Y-124971009D01*
X181277143Y-124971009D02*
X181181905Y-124923390D01*
X181181905Y-124923390D02*
X181134286Y-124875771D01*
X181134286Y-124875771D02*
X181086667Y-124780533D01*
X181086667Y-124780533D02*
X181086667Y-124685295D01*
X181086667Y-124685295D02*
X181134286Y-124590057D01*
X181134286Y-124590057D02*
X181181905Y-124542438D01*
X181181905Y-124542438D02*
X181277143Y-124494819D01*
X181277143Y-124494819D02*
X181515238Y-124494819D01*
X181515238Y-124494819D02*
X181658095Y-124542438D01*
X181991429Y-124494819D02*
X182229524Y-125494819D01*
X182229524Y-125494819D02*
X182420000Y-124780533D01*
X182420000Y-124780533D02*
X182610476Y-125494819D01*
X182610476Y-125494819D02*
X182848572Y-124494819D01*
X183658095Y-124828152D02*
X183658095Y-125494819D01*
X183420000Y-124447200D02*
X183181905Y-125161485D01*
X183181905Y-125161485D02*
X183800952Y-125161485D01*
X80229580Y-94025715D02*
X80277200Y-94073334D01*
X80277200Y-94073334D02*
X80324819Y-94216191D01*
X80324819Y-94216191D02*
X80324819Y-94311429D01*
X80324819Y-94311429D02*
X80277200Y-94454286D01*
X80277200Y-94454286D02*
X80181961Y-94549524D01*
X80181961Y-94549524D02*
X80086723Y-94597143D01*
X80086723Y-94597143D02*
X79896247Y-94644762D01*
X79896247Y-94644762D02*
X79753390Y-94644762D01*
X79753390Y-94644762D02*
X79562914Y-94597143D01*
X79562914Y-94597143D02*
X79467676Y-94549524D01*
X79467676Y-94549524D02*
X79372438Y-94454286D01*
X79372438Y-94454286D02*
X79324819Y-94311429D01*
X79324819Y-94311429D02*
X79324819Y-94216191D01*
X79324819Y-94216191D02*
X79372438Y-94073334D01*
X79372438Y-94073334D02*
X79420057Y-94025715D01*
X80324819Y-93597143D02*
X79658152Y-93597143D01*
X79848628Y-93597143D02*
X79753390Y-93549524D01*
X79753390Y-93549524D02*
X79705771Y-93501905D01*
X79705771Y-93501905D02*
X79658152Y-93406667D01*
X79658152Y-93406667D02*
X79658152Y-93311429D01*
X79658152Y-93073333D02*
X80324819Y-92835238D01*
X79658152Y-92597143D02*
X80324819Y-92835238D01*
X80324819Y-92835238D02*
X80562914Y-92930476D01*
X80562914Y-92930476D02*
X80610533Y-92978095D01*
X80610533Y-92978095D02*
X80658152Y-93073333D01*
X80277200Y-92263809D02*
X80324819Y-92168571D01*
X80324819Y-92168571D02*
X80324819Y-91978095D01*
X80324819Y-91978095D02*
X80277200Y-91882857D01*
X80277200Y-91882857D02*
X80181961Y-91835238D01*
X80181961Y-91835238D02*
X80134342Y-91835238D01*
X80134342Y-91835238D02*
X80039104Y-91882857D01*
X80039104Y-91882857D02*
X79991485Y-91978095D01*
X79991485Y-91978095D02*
X79991485Y-92120952D01*
X79991485Y-92120952D02*
X79943866Y-92216190D01*
X79943866Y-92216190D02*
X79848628Y-92263809D01*
X79848628Y-92263809D02*
X79801009Y-92263809D01*
X79801009Y-92263809D02*
X79705771Y-92216190D01*
X79705771Y-92216190D02*
X79658152Y-92120952D01*
X79658152Y-92120952D02*
X79658152Y-91978095D01*
X79658152Y-91978095D02*
X79705771Y-91882857D01*
X79658152Y-91549523D02*
X79658152Y-91168571D01*
X79324819Y-91406666D02*
X80181961Y-91406666D01*
X80181961Y-91406666D02*
X80277200Y-91359047D01*
X80277200Y-91359047D02*
X80324819Y-91263809D01*
X80324819Y-91263809D02*
X80324819Y-91168571D01*
X80324819Y-90406666D02*
X79801009Y-90406666D01*
X79801009Y-90406666D02*
X79705771Y-90454285D01*
X79705771Y-90454285D02*
X79658152Y-90549523D01*
X79658152Y-90549523D02*
X79658152Y-90739999D01*
X79658152Y-90739999D02*
X79705771Y-90835237D01*
X80277200Y-90406666D02*
X80324819Y-90501904D01*
X80324819Y-90501904D02*
X80324819Y-90739999D01*
X80324819Y-90739999D02*
X80277200Y-90835237D01*
X80277200Y-90835237D02*
X80181961Y-90882856D01*
X80181961Y-90882856D02*
X80086723Y-90882856D01*
X80086723Y-90882856D02*
X79991485Y-90835237D01*
X79991485Y-90835237D02*
X79943866Y-90739999D01*
X79943866Y-90739999D02*
X79943866Y-90501904D01*
X79943866Y-90501904D02*
X79896247Y-90406666D01*
X80324819Y-89787618D02*
X80277200Y-89882856D01*
X80277200Y-89882856D02*
X80181961Y-89930475D01*
X80181961Y-89930475D02*
X79324819Y-89930475D01*
D12*
X77905040Y-92573333D02*
X78238373Y-92573333D01*
X77538373Y-92806666D02*
X77905040Y-92573333D01*
X77905040Y-92573333D02*
X77538373Y-92339999D01*
X77605040Y-92139999D02*
X77571706Y-92106666D01*
X77571706Y-92106666D02*
X77538373Y-92039999D01*
X77538373Y-92039999D02*
X77538373Y-91873333D01*
X77538373Y-91873333D02*
X77571706Y-91806666D01*
X77571706Y-91806666D02*
X77605040Y-91773333D01*
X77605040Y-91773333D02*
X77671706Y-91739999D01*
X77671706Y-91739999D02*
X77738373Y-91739999D01*
X77738373Y-91739999D02*
X77838373Y-91773333D01*
X77838373Y-91773333D02*
X78238373Y-92173333D01*
X78238373Y-92173333D02*
X78238373Y-91739999D01*
D10*
X86724819Y-99835238D02*
X86724819Y-100406666D01*
X86724819Y-100120952D02*
X85724819Y-100120952D01*
X85724819Y-100120952D02*
X85867676Y-100216190D01*
X85867676Y-100216190D02*
X85962914Y-100311428D01*
X85962914Y-100311428D02*
X86010533Y-100406666D01*
X85724819Y-99216190D02*
X85724819Y-99120952D01*
X85724819Y-99120952D02*
X85772438Y-99025714D01*
X85772438Y-99025714D02*
X85820057Y-98978095D01*
X85820057Y-98978095D02*
X85915295Y-98930476D01*
X85915295Y-98930476D02*
X86105771Y-98882857D01*
X86105771Y-98882857D02*
X86343866Y-98882857D01*
X86343866Y-98882857D02*
X86534342Y-98930476D01*
X86534342Y-98930476D02*
X86629580Y-98978095D01*
X86629580Y-98978095D02*
X86677200Y-99025714D01*
X86677200Y-99025714D02*
X86724819Y-99120952D01*
X86724819Y-99120952D02*
X86724819Y-99216190D01*
X86724819Y-99216190D02*
X86677200Y-99311428D01*
X86677200Y-99311428D02*
X86629580Y-99359047D01*
X86629580Y-99359047D02*
X86534342Y-99406666D01*
X86534342Y-99406666D02*
X86343866Y-99454285D01*
X86343866Y-99454285D02*
X86105771Y-99454285D01*
X86105771Y-99454285D02*
X85915295Y-99406666D01*
X85915295Y-99406666D02*
X85820057Y-99359047D01*
X85820057Y-99359047D02*
X85772438Y-99311428D01*
X85772438Y-99311428D02*
X85724819Y-99216190D01*
X86724819Y-98454285D02*
X85724819Y-98454285D01*
X86343866Y-98359047D02*
X86724819Y-98073333D01*
X86058152Y-98073333D02*
X86439104Y-98454285D01*
D11*
X88147149Y-99323333D02*
X87909054Y-99489999D01*
X88147149Y-99609047D02*
X87647149Y-99609047D01*
X87647149Y-99609047D02*
X87647149Y-99418571D01*
X87647149Y-99418571D02*
X87670959Y-99370952D01*
X87670959Y-99370952D02*
X87694768Y-99347142D01*
X87694768Y-99347142D02*
X87742387Y-99323333D01*
X87742387Y-99323333D02*
X87813816Y-99323333D01*
X87813816Y-99323333D02*
X87861435Y-99347142D01*
X87861435Y-99347142D02*
X87885244Y-99370952D01*
X87885244Y-99370952D02*
X87909054Y-99418571D01*
X87909054Y-99418571D02*
X87909054Y-99609047D01*
X87647149Y-99156666D02*
X87647149Y-98823333D01*
X87647149Y-98823333D02*
X88147149Y-99037618D01*
D10*
X130892381Y-131847200D02*
X131035238Y-131894819D01*
X131035238Y-131894819D02*
X131273333Y-131894819D01*
X131273333Y-131894819D02*
X131368571Y-131847200D01*
X131368571Y-131847200D02*
X131416190Y-131799580D01*
X131416190Y-131799580D02*
X131463809Y-131704342D01*
X131463809Y-131704342D02*
X131463809Y-131609104D01*
X131463809Y-131609104D02*
X131416190Y-131513866D01*
X131416190Y-131513866D02*
X131368571Y-131466247D01*
X131368571Y-131466247D02*
X131273333Y-131418628D01*
X131273333Y-131418628D02*
X131082857Y-131371009D01*
X131082857Y-131371009D02*
X130987619Y-131323390D01*
X130987619Y-131323390D02*
X130940000Y-131275771D01*
X130940000Y-131275771D02*
X130892381Y-131180533D01*
X130892381Y-131180533D02*
X130892381Y-131085295D01*
X130892381Y-131085295D02*
X130940000Y-130990057D01*
X130940000Y-130990057D02*
X130987619Y-130942438D01*
X130987619Y-130942438D02*
X131082857Y-130894819D01*
X131082857Y-130894819D02*
X131320952Y-130894819D01*
X131320952Y-130894819D02*
X131463809Y-130942438D01*
X131797143Y-130894819D02*
X132035238Y-131894819D01*
X132035238Y-131894819D02*
X132225714Y-131180533D01*
X132225714Y-131180533D02*
X132416190Y-131894819D01*
X132416190Y-131894819D02*
X132654286Y-130894819D01*
X132797143Y-131990057D02*
X133559047Y-131990057D01*
X133797143Y-131894819D02*
X133797143Y-130894819D01*
X133797143Y-130894819D02*
X134178095Y-130894819D01*
X134178095Y-130894819D02*
X134273333Y-130942438D01*
X134273333Y-130942438D02*
X134320952Y-130990057D01*
X134320952Y-130990057D02*
X134368571Y-131085295D01*
X134368571Y-131085295D02*
X134368571Y-131228152D01*
X134368571Y-131228152D02*
X134320952Y-131323390D01*
X134320952Y-131323390D02*
X134273333Y-131371009D01*
X134273333Y-131371009D02*
X134178095Y-131418628D01*
X134178095Y-131418628D02*
X133797143Y-131418628D01*
X135225714Y-131228152D02*
X135225714Y-131894819D01*
X134797143Y-131228152D02*
X134797143Y-131751961D01*
X134797143Y-131751961D02*
X134844762Y-131847200D01*
X134844762Y-131847200D02*
X134940000Y-131894819D01*
X134940000Y-131894819D02*
X135082857Y-131894819D01*
X135082857Y-131894819D02*
X135178095Y-131847200D01*
X135178095Y-131847200D02*
X135225714Y-131799580D01*
X135654286Y-131847200D02*
X135749524Y-131894819D01*
X135749524Y-131894819D02*
X135940000Y-131894819D01*
X135940000Y-131894819D02*
X136035238Y-131847200D01*
X136035238Y-131847200D02*
X136082857Y-131751961D01*
X136082857Y-131751961D02*
X136082857Y-131704342D01*
X136082857Y-131704342D02*
X136035238Y-131609104D01*
X136035238Y-131609104D02*
X135940000Y-131561485D01*
X135940000Y-131561485D02*
X135797143Y-131561485D01*
X135797143Y-131561485D02*
X135701905Y-131513866D01*
X135701905Y-131513866D02*
X135654286Y-131418628D01*
X135654286Y-131418628D02*
X135654286Y-131371009D01*
X135654286Y-131371009D02*
X135701905Y-131275771D01*
X135701905Y-131275771D02*
X135797143Y-131228152D01*
X135797143Y-131228152D02*
X135940000Y-131228152D01*
X135940000Y-131228152D02*
X136035238Y-131275771D01*
X136511429Y-131894819D02*
X136511429Y-130894819D01*
X136940000Y-131894819D02*
X136940000Y-131371009D01*
X136940000Y-131371009D02*
X136892381Y-131275771D01*
X136892381Y-131275771D02*
X136797143Y-131228152D01*
X136797143Y-131228152D02*
X136654286Y-131228152D01*
X136654286Y-131228152D02*
X136559048Y-131275771D01*
X136559048Y-131275771D02*
X136511429Y-131323390D01*
X132606667Y-125447200D02*
X132749524Y-125494819D01*
X132749524Y-125494819D02*
X132987619Y-125494819D01*
X132987619Y-125494819D02*
X133082857Y-125447200D01*
X133082857Y-125447200D02*
X133130476Y-125399580D01*
X133130476Y-125399580D02*
X133178095Y-125304342D01*
X133178095Y-125304342D02*
X133178095Y-125209104D01*
X133178095Y-125209104D02*
X133130476Y-125113866D01*
X133130476Y-125113866D02*
X133082857Y-125066247D01*
X133082857Y-125066247D02*
X132987619Y-125018628D01*
X132987619Y-125018628D02*
X132797143Y-124971009D01*
X132797143Y-124971009D02*
X132701905Y-124923390D01*
X132701905Y-124923390D02*
X132654286Y-124875771D01*
X132654286Y-124875771D02*
X132606667Y-124780533D01*
X132606667Y-124780533D02*
X132606667Y-124685295D01*
X132606667Y-124685295D02*
X132654286Y-124590057D01*
X132654286Y-124590057D02*
X132701905Y-124542438D01*
X132701905Y-124542438D02*
X132797143Y-124494819D01*
X132797143Y-124494819D02*
X133035238Y-124494819D01*
X133035238Y-124494819D02*
X133178095Y-124542438D01*
X133511429Y-124494819D02*
X133749524Y-125494819D01*
X133749524Y-125494819D02*
X133940000Y-124780533D01*
X133940000Y-124780533D02*
X134130476Y-125494819D01*
X134130476Y-125494819D02*
X134368572Y-124494819D01*
X135273333Y-125494819D02*
X134701905Y-125494819D01*
X134987619Y-125494819D02*
X134987619Y-124494819D01*
X134987619Y-124494819D02*
X134892381Y-124637676D01*
X134892381Y-124637676D02*
X134797143Y-124732914D01*
X134797143Y-124732914D02*
X134701905Y-124780533D01*
X162562381Y-131797200D02*
X162705238Y-131844819D01*
X162705238Y-131844819D02*
X162943333Y-131844819D01*
X162943333Y-131844819D02*
X163038571Y-131797200D01*
X163038571Y-131797200D02*
X163086190Y-131749580D01*
X163086190Y-131749580D02*
X163133809Y-131654342D01*
X163133809Y-131654342D02*
X163133809Y-131559104D01*
X163133809Y-131559104D02*
X163086190Y-131463866D01*
X163086190Y-131463866D02*
X163038571Y-131416247D01*
X163038571Y-131416247D02*
X162943333Y-131368628D01*
X162943333Y-131368628D02*
X162752857Y-131321009D01*
X162752857Y-131321009D02*
X162657619Y-131273390D01*
X162657619Y-131273390D02*
X162610000Y-131225771D01*
X162610000Y-131225771D02*
X162562381Y-131130533D01*
X162562381Y-131130533D02*
X162562381Y-131035295D01*
X162562381Y-131035295D02*
X162610000Y-130940057D01*
X162610000Y-130940057D02*
X162657619Y-130892438D01*
X162657619Y-130892438D02*
X162752857Y-130844819D01*
X162752857Y-130844819D02*
X162990952Y-130844819D01*
X162990952Y-130844819D02*
X163133809Y-130892438D01*
X163467143Y-130844819D02*
X163705238Y-131844819D01*
X163705238Y-131844819D02*
X163895714Y-131130533D01*
X163895714Y-131130533D02*
X164086190Y-131844819D01*
X164086190Y-131844819D02*
X164324286Y-130844819D01*
X164467143Y-131940057D02*
X165229047Y-131940057D01*
X165467143Y-131844819D02*
X165467143Y-130844819D01*
X165467143Y-130844819D02*
X165848095Y-130844819D01*
X165848095Y-130844819D02*
X165943333Y-130892438D01*
X165943333Y-130892438D02*
X165990952Y-130940057D01*
X165990952Y-130940057D02*
X166038571Y-131035295D01*
X166038571Y-131035295D02*
X166038571Y-131178152D01*
X166038571Y-131178152D02*
X165990952Y-131273390D01*
X165990952Y-131273390D02*
X165943333Y-131321009D01*
X165943333Y-131321009D02*
X165848095Y-131368628D01*
X165848095Y-131368628D02*
X165467143Y-131368628D01*
X166895714Y-131178152D02*
X166895714Y-131844819D01*
X166467143Y-131178152D02*
X166467143Y-131701961D01*
X166467143Y-131701961D02*
X166514762Y-131797200D01*
X166514762Y-131797200D02*
X166610000Y-131844819D01*
X166610000Y-131844819D02*
X166752857Y-131844819D01*
X166752857Y-131844819D02*
X166848095Y-131797200D01*
X166848095Y-131797200D02*
X166895714Y-131749580D01*
X167324286Y-131797200D02*
X167419524Y-131844819D01*
X167419524Y-131844819D02*
X167610000Y-131844819D01*
X167610000Y-131844819D02*
X167705238Y-131797200D01*
X167705238Y-131797200D02*
X167752857Y-131701961D01*
X167752857Y-131701961D02*
X167752857Y-131654342D01*
X167752857Y-131654342D02*
X167705238Y-131559104D01*
X167705238Y-131559104D02*
X167610000Y-131511485D01*
X167610000Y-131511485D02*
X167467143Y-131511485D01*
X167467143Y-131511485D02*
X167371905Y-131463866D01*
X167371905Y-131463866D02*
X167324286Y-131368628D01*
X167324286Y-131368628D02*
X167324286Y-131321009D01*
X167324286Y-131321009D02*
X167371905Y-131225771D01*
X167371905Y-131225771D02*
X167467143Y-131178152D01*
X167467143Y-131178152D02*
X167610000Y-131178152D01*
X167610000Y-131178152D02*
X167705238Y-131225771D01*
X168181429Y-131844819D02*
X168181429Y-130844819D01*
X168610000Y-131844819D02*
X168610000Y-131321009D01*
X168610000Y-131321009D02*
X168562381Y-131225771D01*
X168562381Y-131225771D02*
X168467143Y-131178152D01*
X168467143Y-131178152D02*
X168324286Y-131178152D01*
X168324286Y-131178152D02*
X168229048Y-131225771D01*
X168229048Y-131225771D02*
X168181429Y-131273390D01*
X164276667Y-125397200D02*
X164419524Y-125444819D01*
X164419524Y-125444819D02*
X164657619Y-125444819D01*
X164657619Y-125444819D02*
X164752857Y-125397200D01*
X164752857Y-125397200D02*
X164800476Y-125349580D01*
X164800476Y-125349580D02*
X164848095Y-125254342D01*
X164848095Y-125254342D02*
X164848095Y-125159104D01*
X164848095Y-125159104D02*
X164800476Y-125063866D01*
X164800476Y-125063866D02*
X164752857Y-125016247D01*
X164752857Y-125016247D02*
X164657619Y-124968628D01*
X164657619Y-124968628D02*
X164467143Y-124921009D01*
X164467143Y-124921009D02*
X164371905Y-124873390D01*
X164371905Y-124873390D02*
X164324286Y-124825771D01*
X164324286Y-124825771D02*
X164276667Y-124730533D01*
X164276667Y-124730533D02*
X164276667Y-124635295D01*
X164276667Y-124635295D02*
X164324286Y-124540057D01*
X164324286Y-124540057D02*
X164371905Y-124492438D01*
X164371905Y-124492438D02*
X164467143Y-124444819D01*
X164467143Y-124444819D02*
X164705238Y-124444819D01*
X164705238Y-124444819D02*
X164848095Y-124492438D01*
X165181429Y-124444819D02*
X165419524Y-125444819D01*
X165419524Y-125444819D02*
X165610000Y-124730533D01*
X165610000Y-124730533D02*
X165800476Y-125444819D01*
X165800476Y-125444819D02*
X166038572Y-124444819D01*
X166324286Y-124444819D02*
X166943333Y-124444819D01*
X166943333Y-124444819D02*
X166610000Y-124825771D01*
X166610000Y-124825771D02*
X166752857Y-124825771D01*
X166752857Y-124825771D02*
X166848095Y-124873390D01*
X166848095Y-124873390D02*
X166895714Y-124921009D01*
X166895714Y-124921009D02*
X166943333Y-125016247D01*
X166943333Y-125016247D02*
X166943333Y-125254342D01*
X166943333Y-125254342D02*
X166895714Y-125349580D01*
X166895714Y-125349580D02*
X166848095Y-125397200D01*
X166848095Y-125397200D02*
X166752857Y-125444819D01*
X166752857Y-125444819D02*
X166467143Y-125444819D01*
X166467143Y-125444819D02*
X166371905Y-125397200D01*
X166371905Y-125397200D02*
X166324286Y-125349580D01*
X106377142Y-71494819D02*
X106186666Y-71494819D01*
X106186666Y-71494819D02*
X106091428Y-71542438D01*
X106091428Y-71542438D02*
X106043809Y-71590057D01*
X106043809Y-71590057D02*
X105948571Y-71732914D01*
X105948571Y-71732914D02*
X105900952Y-71923390D01*
X105900952Y-71923390D02*
X105900952Y-72304342D01*
X105900952Y-72304342D02*
X105948571Y-72399580D01*
X105948571Y-72399580D02*
X105996190Y-72447200D01*
X105996190Y-72447200D02*
X106091428Y-72494819D01*
X106091428Y-72494819D02*
X106281904Y-72494819D01*
X106281904Y-72494819D02*
X106377142Y-72447200D01*
X106377142Y-72447200D02*
X106424761Y-72399580D01*
X106424761Y-72399580D02*
X106472380Y-72304342D01*
X106472380Y-72304342D02*
X106472380Y-72066247D01*
X106472380Y-72066247D02*
X106424761Y-71971009D01*
X106424761Y-71971009D02*
X106377142Y-71923390D01*
X106377142Y-71923390D02*
X106281904Y-71875771D01*
X106281904Y-71875771D02*
X106091428Y-71875771D01*
X106091428Y-71875771D02*
X105996190Y-71923390D01*
X105996190Y-71923390D02*
X105948571Y-71971009D01*
X105948571Y-71971009D02*
X105900952Y-72066247D01*
X107043809Y-71923390D02*
X106948571Y-71875771D01*
X106948571Y-71875771D02*
X106900952Y-71828152D01*
X106900952Y-71828152D02*
X106853333Y-71732914D01*
X106853333Y-71732914D02*
X106853333Y-71685295D01*
X106853333Y-71685295D02*
X106900952Y-71590057D01*
X106900952Y-71590057D02*
X106948571Y-71542438D01*
X106948571Y-71542438D02*
X107043809Y-71494819D01*
X107043809Y-71494819D02*
X107234285Y-71494819D01*
X107234285Y-71494819D02*
X107329523Y-71542438D01*
X107329523Y-71542438D02*
X107377142Y-71590057D01*
X107377142Y-71590057D02*
X107424761Y-71685295D01*
X107424761Y-71685295D02*
X107424761Y-71732914D01*
X107424761Y-71732914D02*
X107377142Y-71828152D01*
X107377142Y-71828152D02*
X107329523Y-71875771D01*
X107329523Y-71875771D02*
X107234285Y-71923390D01*
X107234285Y-71923390D02*
X107043809Y-71923390D01*
X107043809Y-71923390D02*
X106948571Y-71971009D01*
X106948571Y-71971009D02*
X106900952Y-72018628D01*
X106900952Y-72018628D02*
X106853333Y-72113866D01*
X106853333Y-72113866D02*
X106853333Y-72304342D01*
X106853333Y-72304342D02*
X106900952Y-72399580D01*
X106900952Y-72399580D02*
X106948571Y-72447200D01*
X106948571Y-72447200D02*
X107043809Y-72494819D01*
X107043809Y-72494819D02*
X107234285Y-72494819D01*
X107234285Y-72494819D02*
X107329523Y-72447200D01*
X107329523Y-72447200D02*
X107377142Y-72399580D01*
X107377142Y-72399580D02*
X107424761Y-72304342D01*
X107424761Y-72304342D02*
X107424761Y-72113866D01*
X107424761Y-72113866D02*
X107377142Y-72018628D01*
X107377142Y-72018628D02*
X107329523Y-71971009D01*
X107329523Y-71971009D02*
X107234285Y-71923390D01*
X108043809Y-71494819D02*
X108139047Y-71494819D01*
X108139047Y-71494819D02*
X108234285Y-71542438D01*
X108234285Y-71542438D02*
X108281904Y-71590057D01*
X108281904Y-71590057D02*
X108329523Y-71685295D01*
X108329523Y-71685295D02*
X108377142Y-71875771D01*
X108377142Y-71875771D02*
X108377142Y-72113866D01*
X108377142Y-72113866D02*
X108329523Y-72304342D01*
X108329523Y-72304342D02*
X108281904Y-72399580D01*
X108281904Y-72399580D02*
X108234285Y-72447200D01*
X108234285Y-72447200D02*
X108139047Y-72494819D01*
X108139047Y-72494819D02*
X108043809Y-72494819D01*
X108043809Y-72494819D02*
X107948571Y-72447200D01*
X107948571Y-72447200D02*
X107900952Y-72399580D01*
X107900952Y-72399580D02*
X107853333Y-72304342D01*
X107853333Y-72304342D02*
X107805714Y-72113866D01*
X107805714Y-72113866D02*
X107805714Y-71875771D01*
X107805714Y-71875771D02*
X107853333Y-71685295D01*
X107853333Y-71685295D02*
X107900952Y-71590057D01*
X107900952Y-71590057D02*
X107948571Y-71542438D01*
X107948571Y-71542438D02*
X108043809Y-71494819D01*
X109234285Y-71828152D02*
X109234285Y-72494819D01*
X108805714Y-71828152D02*
X108805714Y-72351961D01*
X108805714Y-72351961D02*
X108853333Y-72447200D01*
X108853333Y-72447200D02*
X108948571Y-72494819D01*
X108948571Y-72494819D02*
X109091428Y-72494819D01*
X109091428Y-72494819D02*
X109186666Y-72447200D01*
X109186666Y-72447200D02*
X109234285Y-72399580D01*
X110043809Y-71971009D02*
X109710476Y-71971009D01*
X109710476Y-72494819D02*
X109710476Y-71494819D01*
X109710476Y-71494819D02*
X110186666Y-71494819D01*
X107853333Y-66099580D02*
X107805714Y-66147200D01*
X107805714Y-66147200D02*
X107662857Y-66194819D01*
X107662857Y-66194819D02*
X107567619Y-66194819D01*
X107567619Y-66194819D02*
X107424762Y-66147200D01*
X107424762Y-66147200D02*
X107329524Y-66051961D01*
X107329524Y-66051961D02*
X107281905Y-65956723D01*
X107281905Y-65956723D02*
X107234286Y-65766247D01*
X107234286Y-65766247D02*
X107234286Y-65623390D01*
X107234286Y-65623390D02*
X107281905Y-65432914D01*
X107281905Y-65432914D02*
X107329524Y-65337676D01*
X107329524Y-65337676D02*
X107424762Y-65242438D01*
X107424762Y-65242438D02*
X107567619Y-65194819D01*
X107567619Y-65194819D02*
X107662857Y-65194819D01*
X107662857Y-65194819D02*
X107805714Y-65242438D01*
X107805714Y-65242438D02*
X107853333Y-65290057D01*
X108424762Y-65623390D02*
X108329524Y-65575771D01*
X108329524Y-65575771D02*
X108281905Y-65528152D01*
X108281905Y-65528152D02*
X108234286Y-65432914D01*
X108234286Y-65432914D02*
X108234286Y-65385295D01*
X108234286Y-65385295D02*
X108281905Y-65290057D01*
X108281905Y-65290057D02*
X108329524Y-65242438D01*
X108329524Y-65242438D02*
X108424762Y-65194819D01*
X108424762Y-65194819D02*
X108615238Y-65194819D01*
X108615238Y-65194819D02*
X108710476Y-65242438D01*
X108710476Y-65242438D02*
X108758095Y-65290057D01*
X108758095Y-65290057D02*
X108805714Y-65385295D01*
X108805714Y-65385295D02*
X108805714Y-65432914D01*
X108805714Y-65432914D02*
X108758095Y-65528152D01*
X108758095Y-65528152D02*
X108710476Y-65575771D01*
X108710476Y-65575771D02*
X108615238Y-65623390D01*
X108615238Y-65623390D02*
X108424762Y-65623390D01*
X108424762Y-65623390D02*
X108329524Y-65671009D01*
X108329524Y-65671009D02*
X108281905Y-65718628D01*
X108281905Y-65718628D02*
X108234286Y-65813866D01*
X108234286Y-65813866D02*
X108234286Y-66004342D01*
X108234286Y-66004342D02*
X108281905Y-66099580D01*
X108281905Y-66099580D02*
X108329524Y-66147200D01*
X108329524Y-66147200D02*
X108424762Y-66194819D01*
X108424762Y-66194819D02*
X108615238Y-66194819D01*
X108615238Y-66194819D02*
X108710476Y-66147200D01*
X108710476Y-66147200D02*
X108758095Y-66099580D01*
X108758095Y-66099580D02*
X108805714Y-66004342D01*
X108805714Y-66004342D02*
X108805714Y-65813866D01*
X108805714Y-65813866D02*
X108758095Y-65718628D01*
X108758095Y-65718628D02*
X108710476Y-65671009D01*
X108710476Y-65671009D02*
X108615238Y-65623390D01*
D11*
X181336666Y-119967149D02*
X181170000Y-119729054D01*
X181050952Y-119967149D02*
X181050952Y-119467149D01*
X181050952Y-119467149D02*
X181241428Y-119467149D01*
X181241428Y-119467149D02*
X181289047Y-119490959D01*
X181289047Y-119490959D02*
X181312857Y-119514768D01*
X181312857Y-119514768D02*
X181336666Y-119562387D01*
X181336666Y-119562387D02*
X181336666Y-119633816D01*
X181336666Y-119633816D02*
X181312857Y-119681435D01*
X181312857Y-119681435D02*
X181289047Y-119705244D01*
X181289047Y-119705244D02*
X181241428Y-119729054D01*
X181241428Y-119729054D02*
X181050952Y-119729054D01*
X181765238Y-119633816D02*
X181765238Y-119967149D01*
X181646190Y-119443340D02*
X181527143Y-119800482D01*
X181527143Y-119800482D02*
X181836666Y-119800482D01*
D10*
X61851009Y-127144763D02*
X61898628Y-127001906D01*
X61898628Y-127001906D02*
X61946247Y-126954287D01*
X61946247Y-126954287D02*
X62041485Y-126906668D01*
X62041485Y-126906668D02*
X62184342Y-126906668D01*
X62184342Y-126906668D02*
X62279580Y-126954287D01*
X62279580Y-126954287D02*
X62327200Y-127001906D01*
X62327200Y-127001906D02*
X62374819Y-127097144D01*
X62374819Y-127097144D02*
X62374819Y-127478096D01*
X62374819Y-127478096D02*
X61374819Y-127478096D01*
X61374819Y-127478096D02*
X61374819Y-127144763D01*
X61374819Y-127144763D02*
X61422438Y-127049525D01*
X61422438Y-127049525D02*
X61470057Y-127001906D01*
X61470057Y-127001906D02*
X61565295Y-126954287D01*
X61565295Y-126954287D02*
X61660533Y-126954287D01*
X61660533Y-126954287D02*
X61755771Y-127001906D01*
X61755771Y-127001906D02*
X61803390Y-127049525D01*
X61803390Y-127049525D02*
X61851009Y-127144763D01*
X61851009Y-127144763D02*
X61851009Y-127478096D01*
X62374819Y-126049525D02*
X61851009Y-126049525D01*
X61851009Y-126049525D02*
X61755771Y-126097144D01*
X61755771Y-126097144D02*
X61708152Y-126192382D01*
X61708152Y-126192382D02*
X61708152Y-126382858D01*
X61708152Y-126382858D02*
X61755771Y-126478096D01*
X62327200Y-126049525D02*
X62374819Y-126144763D01*
X62374819Y-126144763D02*
X62374819Y-126382858D01*
X62374819Y-126382858D02*
X62327200Y-126478096D01*
X62327200Y-126478096D02*
X62231961Y-126525715D01*
X62231961Y-126525715D02*
X62136723Y-126525715D01*
X62136723Y-126525715D02*
X62041485Y-126478096D01*
X62041485Y-126478096D02*
X61993866Y-126382858D01*
X61993866Y-126382858D02*
X61993866Y-126144763D01*
X61993866Y-126144763D02*
X61946247Y-126049525D01*
X61708152Y-125716191D02*
X61708152Y-125335239D01*
X61374819Y-125573334D02*
X62231961Y-125573334D01*
X62231961Y-125573334D02*
X62327200Y-125525715D01*
X62327200Y-125525715D02*
X62374819Y-125430477D01*
X62374819Y-125430477D02*
X62374819Y-125335239D01*
X61708152Y-125144762D02*
X61708152Y-124763810D01*
X61374819Y-125001905D02*
X62231961Y-125001905D01*
X62231961Y-125001905D02*
X62327200Y-124954286D01*
X62327200Y-124954286D02*
X62374819Y-124859048D01*
X62374819Y-124859048D02*
X62374819Y-124763810D01*
X62327200Y-124049524D02*
X62374819Y-124144762D01*
X62374819Y-124144762D02*
X62374819Y-124335238D01*
X62374819Y-124335238D02*
X62327200Y-124430476D01*
X62327200Y-124430476D02*
X62231961Y-124478095D01*
X62231961Y-124478095D02*
X61851009Y-124478095D01*
X61851009Y-124478095D02*
X61755771Y-124430476D01*
X61755771Y-124430476D02*
X61708152Y-124335238D01*
X61708152Y-124335238D02*
X61708152Y-124144762D01*
X61708152Y-124144762D02*
X61755771Y-124049524D01*
X61755771Y-124049524D02*
X61851009Y-124001905D01*
X61851009Y-124001905D02*
X61946247Y-124001905D01*
X61946247Y-124001905D02*
X62041485Y-124478095D01*
X62374819Y-123573333D02*
X61708152Y-123573333D01*
X61898628Y-123573333D02*
X61803390Y-123525714D01*
X61803390Y-123525714D02*
X61755771Y-123478095D01*
X61755771Y-123478095D02*
X61708152Y-123382857D01*
X61708152Y-123382857D02*
X61708152Y-123287619D01*
X61708152Y-123049523D02*
X62374819Y-122811428D01*
X61708152Y-122573333D02*
X62374819Y-122811428D01*
X62374819Y-122811428D02*
X62612914Y-122906666D01*
X62612914Y-122906666D02*
X62660533Y-122954285D01*
X62660533Y-122954285D02*
X62708152Y-123049523D01*
X62470057Y-122430476D02*
X62470057Y-121668571D01*
X62279580Y-120859047D02*
X62327200Y-120906666D01*
X62327200Y-120906666D02*
X62374819Y-121049523D01*
X62374819Y-121049523D02*
X62374819Y-121144761D01*
X62374819Y-121144761D02*
X62327200Y-121287618D01*
X62327200Y-121287618D02*
X62231961Y-121382856D01*
X62231961Y-121382856D02*
X62136723Y-121430475D01*
X62136723Y-121430475D02*
X61946247Y-121478094D01*
X61946247Y-121478094D02*
X61803390Y-121478094D01*
X61803390Y-121478094D02*
X61612914Y-121430475D01*
X61612914Y-121430475D02*
X61517676Y-121382856D01*
X61517676Y-121382856D02*
X61422438Y-121287618D01*
X61422438Y-121287618D02*
X61374819Y-121144761D01*
X61374819Y-121144761D02*
X61374819Y-121049523D01*
X61374819Y-121049523D02*
X61422438Y-120906666D01*
X61422438Y-120906666D02*
X61470057Y-120859047D01*
X62327200Y-120049523D02*
X62374819Y-120144761D01*
X62374819Y-120144761D02*
X62374819Y-120335237D01*
X62374819Y-120335237D02*
X62327200Y-120430475D01*
X62327200Y-120430475D02*
X62231961Y-120478094D01*
X62231961Y-120478094D02*
X61851009Y-120478094D01*
X61851009Y-120478094D02*
X61755771Y-120430475D01*
X61755771Y-120430475D02*
X61708152Y-120335237D01*
X61708152Y-120335237D02*
X61708152Y-120144761D01*
X61708152Y-120144761D02*
X61755771Y-120049523D01*
X61755771Y-120049523D02*
X61851009Y-120001904D01*
X61851009Y-120001904D02*
X61946247Y-120001904D01*
X61946247Y-120001904D02*
X62041485Y-120478094D01*
X62374819Y-119430475D02*
X62327200Y-119525713D01*
X62327200Y-119525713D02*
X62231961Y-119573332D01*
X62231961Y-119573332D02*
X61374819Y-119573332D01*
X62374819Y-118906665D02*
X62327200Y-119001903D01*
X62327200Y-119001903D02*
X62231961Y-119049522D01*
X62231961Y-119049522D02*
X61374819Y-119049522D01*
X79601009Y-116325714D02*
X79648628Y-116182857D01*
X79648628Y-116182857D02*
X79696247Y-116135238D01*
X79696247Y-116135238D02*
X79791485Y-116087619D01*
X79791485Y-116087619D02*
X79934342Y-116087619D01*
X79934342Y-116087619D02*
X80029580Y-116135238D01*
X80029580Y-116135238D02*
X80077200Y-116182857D01*
X80077200Y-116182857D02*
X80124819Y-116278095D01*
X80124819Y-116278095D02*
X80124819Y-116659047D01*
X80124819Y-116659047D02*
X79124819Y-116659047D01*
X79124819Y-116659047D02*
X79124819Y-116325714D01*
X79124819Y-116325714D02*
X79172438Y-116230476D01*
X79172438Y-116230476D02*
X79220057Y-116182857D01*
X79220057Y-116182857D02*
X79315295Y-116135238D01*
X79315295Y-116135238D02*
X79410533Y-116135238D01*
X79410533Y-116135238D02*
X79505771Y-116182857D01*
X79505771Y-116182857D02*
X79553390Y-116230476D01*
X79553390Y-116230476D02*
X79601009Y-116325714D01*
X79601009Y-116325714D02*
X79601009Y-116659047D01*
X79124819Y-115801904D02*
X79124819Y-115230476D01*
X80124819Y-115516190D02*
X79124819Y-115516190D01*
X80124819Y-114373333D02*
X80124819Y-114944761D01*
X80124819Y-114659047D02*
X79124819Y-114659047D01*
X79124819Y-114659047D02*
X79267676Y-114754285D01*
X79267676Y-114754285D02*
X79362914Y-114849523D01*
X79362914Y-114849523D02*
X79410533Y-114944761D01*
X76110476Y-103844819D02*
X76110476Y-102844819D01*
X76110476Y-102844819D02*
X76443809Y-103559104D01*
X76443809Y-103559104D02*
X76777142Y-102844819D01*
X76777142Y-102844819D02*
X76777142Y-103844819D01*
X77824761Y-103749580D02*
X77777142Y-103797200D01*
X77777142Y-103797200D02*
X77634285Y-103844819D01*
X77634285Y-103844819D02*
X77539047Y-103844819D01*
X77539047Y-103844819D02*
X77396190Y-103797200D01*
X77396190Y-103797200D02*
X77300952Y-103701961D01*
X77300952Y-103701961D02*
X77253333Y-103606723D01*
X77253333Y-103606723D02*
X77205714Y-103416247D01*
X77205714Y-103416247D02*
X77205714Y-103273390D01*
X77205714Y-103273390D02*
X77253333Y-103082914D01*
X77253333Y-103082914D02*
X77300952Y-102987676D01*
X77300952Y-102987676D02*
X77396190Y-102892438D01*
X77396190Y-102892438D02*
X77539047Y-102844819D01*
X77539047Y-102844819D02*
X77634285Y-102844819D01*
X77634285Y-102844819D02*
X77777142Y-102892438D01*
X77777142Y-102892438D02*
X77824761Y-102940057D01*
X78253333Y-103844819D02*
X78253333Y-102844819D01*
X78253333Y-102844819D02*
X78634285Y-102844819D01*
X78634285Y-102844819D02*
X78729523Y-102892438D01*
X78729523Y-102892438D02*
X78777142Y-102940057D01*
X78777142Y-102940057D02*
X78824761Y-103035295D01*
X78824761Y-103035295D02*
X78824761Y-103178152D01*
X78824761Y-103178152D02*
X78777142Y-103273390D01*
X78777142Y-103273390D02*
X78729523Y-103321009D01*
X78729523Y-103321009D02*
X78634285Y-103368628D01*
X78634285Y-103368628D02*
X78253333Y-103368628D01*
X79158095Y-102844819D02*
X79824761Y-102844819D01*
X79824761Y-102844819D02*
X79396190Y-103844819D01*
X80253333Y-103844819D02*
X80443809Y-103844819D01*
X80443809Y-103844819D02*
X80539047Y-103797200D01*
X80539047Y-103797200D02*
X80586666Y-103749580D01*
X80586666Y-103749580D02*
X80681904Y-103606723D01*
X80681904Y-103606723D02*
X80729523Y-103416247D01*
X80729523Y-103416247D02*
X80729523Y-103035295D01*
X80729523Y-103035295D02*
X80681904Y-102940057D01*
X80681904Y-102940057D02*
X80634285Y-102892438D01*
X80634285Y-102892438D02*
X80539047Y-102844819D01*
X80539047Y-102844819D02*
X80348571Y-102844819D01*
X80348571Y-102844819D02*
X80253333Y-102892438D01*
X80253333Y-102892438D02*
X80205714Y-102940057D01*
X80205714Y-102940057D02*
X80158095Y-103035295D01*
X80158095Y-103035295D02*
X80158095Y-103273390D01*
X80158095Y-103273390D02*
X80205714Y-103368628D01*
X80205714Y-103368628D02*
X80253333Y-103416247D01*
X80253333Y-103416247D02*
X80348571Y-103463866D01*
X80348571Y-103463866D02*
X80539047Y-103463866D01*
X80539047Y-103463866D02*
X80634285Y-103416247D01*
X80634285Y-103416247D02*
X80681904Y-103368628D01*
X80681904Y-103368628D02*
X80729523Y-103273390D01*
X81586666Y-103178152D02*
X81586666Y-103844819D01*
X81348571Y-102797200D02*
X81110476Y-103511485D01*
X81110476Y-103511485D02*
X81729523Y-103511485D01*
X82300952Y-102844819D02*
X82396190Y-102844819D01*
X82396190Y-102844819D02*
X82491428Y-102892438D01*
X82491428Y-102892438D02*
X82539047Y-102940057D01*
X82539047Y-102940057D02*
X82586666Y-103035295D01*
X82586666Y-103035295D02*
X82634285Y-103225771D01*
X82634285Y-103225771D02*
X82634285Y-103463866D01*
X82634285Y-103463866D02*
X82586666Y-103654342D01*
X82586666Y-103654342D02*
X82539047Y-103749580D01*
X82539047Y-103749580D02*
X82491428Y-103797200D01*
X82491428Y-103797200D02*
X82396190Y-103844819D01*
X82396190Y-103844819D02*
X82300952Y-103844819D01*
X82300952Y-103844819D02*
X82205714Y-103797200D01*
X82205714Y-103797200D02*
X82158095Y-103749580D01*
X82158095Y-103749580D02*
X82110476Y-103654342D01*
X82110476Y-103654342D02*
X82062857Y-103463866D01*
X82062857Y-103463866D02*
X82062857Y-103225771D01*
X82062857Y-103225771D02*
X82110476Y-103035295D01*
X82110476Y-103035295D02*
X82158095Y-102940057D01*
X82158095Y-102940057D02*
X82205714Y-102892438D01*
X82205714Y-102892438D02*
X82300952Y-102844819D01*
X83062857Y-103844819D02*
X83062857Y-102844819D01*
X83062857Y-102844819D02*
X83634285Y-103844819D01*
X83634285Y-103844819D02*
X83634285Y-102844819D01*
X84110476Y-103463866D02*
X84872381Y-103463866D01*
X85253333Y-103844819D02*
X85777142Y-103178152D01*
X85253333Y-103178152D02*
X85777142Y-103844819D01*
X86158095Y-103844819D02*
X86158095Y-102844819D01*
X86158095Y-102844819D02*
X86491428Y-103559104D01*
X86491428Y-103559104D02*
X86824761Y-102844819D01*
X86824761Y-102844819D02*
X86824761Y-103844819D01*
X87300952Y-103844819D02*
X87300952Y-102844819D01*
X87300952Y-102844819D02*
X87872380Y-103844819D01*
X87872380Y-103844819D02*
X87872380Y-102844819D01*
X88539047Y-103368628D02*
X88539047Y-103844819D01*
X88205714Y-102844819D02*
X88539047Y-103368628D01*
X88539047Y-103368628D02*
X88872380Y-102844819D01*
X81673333Y-99455566D02*
X81673333Y-100248900D01*
X81673333Y-100248900D02*
X81720000Y-100342233D01*
X81720000Y-100342233D02*
X81766666Y-100388900D01*
X81766666Y-100388900D02*
X81860000Y-100435566D01*
X81860000Y-100435566D02*
X82046666Y-100435566D01*
X82046666Y-100435566D02*
X82140000Y-100388900D01*
X82140000Y-100388900D02*
X82186666Y-100342233D01*
X82186666Y-100342233D02*
X82233333Y-100248900D01*
X82233333Y-100248900D02*
X82233333Y-99455566D01*
X82606667Y-99455566D02*
X83213333Y-99455566D01*
X83213333Y-99455566D02*
X82886667Y-99828900D01*
X82886667Y-99828900D02*
X83026667Y-99828900D01*
X83026667Y-99828900D02*
X83120000Y-99875566D01*
X83120000Y-99875566D02*
X83166667Y-99922233D01*
X83166667Y-99922233D02*
X83213333Y-100015566D01*
X83213333Y-100015566D02*
X83213333Y-100248900D01*
X83213333Y-100248900D02*
X83166667Y-100342233D01*
X83166667Y-100342233D02*
X83120000Y-100388900D01*
X83120000Y-100388900D02*
X83026667Y-100435566D01*
X83026667Y-100435566D02*
X82746667Y-100435566D01*
X82746667Y-100435566D02*
X82653333Y-100388900D01*
X82653333Y-100388900D02*
X82606667Y-100342233D01*
X134300952Y-121844819D02*
X133729524Y-121844819D01*
X134015238Y-121844819D02*
X134015238Y-120844819D01*
X134015238Y-120844819D02*
X133920000Y-120987676D01*
X133920000Y-120987676D02*
X133824762Y-121082914D01*
X133824762Y-121082914D02*
X133729524Y-121130533D01*
X134729524Y-121844819D02*
X134729524Y-120844819D01*
X134824762Y-121463866D02*
X135110476Y-121844819D01*
X135110476Y-121178152D02*
X134729524Y-121559104D01*
D11*
X134336666Y-119967149D02*
X134170000Y-119729054D01*
X134050952Y-119967149D02*
X134050952Y-119467149D01*
X134050952Y-119467149D02*
X134241428Y-119467149D01*
X134241428Y-119467149D02*
X134289047Y-119490959D01*
X134289047Y-119490959D02*
X134312857Y-119514768D01*
X134312857Y-119514768D02*
X134336666Y-119562387D01*
X134336666Y-119562387D02*
X134336666Y-119633816D01*
X134336666Y-119633816D02*
X134312857Y-119681435D01*
X134312857Y-119681435D02*
X134289047Y-119705244D01*
X134289047Y-119705244D02*
X134241428Y-119729054D01*
X134241428Y-119729054D02*
X134050952Y-119729054D01*
X134812857Y-119967149D02*
X134527143Y-119967149D01*
X134670000Y-119967149D02*
X134670000Y-119467149D01*
X134670000Y-119467149D02*
X134622381Y-119538578D01*
X134622381Y-119538578D02*
X134574762Y-119586197D01*
X134574762Y-119586197D02*
X134527143Y-119610006D01*
D10*
X147412381Y-131847200D02*
X147555238Y-131894819D01*
X147555238Y-131894819D02*
X147793333Y-131894819D01*
X147793333Y-131894819D02*
X147888571Y-131847200D01*
X147888571Y-131847200D02*
X147936190Y-131799580D01*
X147936190Y-131799580D02*
X147983809Y-131704342D01*
X147983809Y-131704342D02*
X147983809Y-131609104D01*
X147983809Y-131609104D02*
X147936190Y-131513866D01*
X147936190Y-131513866D02*
X147888571Y-131466247D01*
X147888571Y-131466247D02*
X147793333Y-131418628D01*
X147793333Y-131418628D02*
X147602857Y-131371009D01*
X147602857Y-131371009D02*
X147507619Y-131323390D01*
X147507619Y-131323390D02*
X147460000Y-131275771D01*
X147460000Y-131275771D02*
X147412381Y-131180533D01*
X147412381Y-131180533D02*
X147412381Y-131085295D01*
X147412381Y-131085295D02*
X147460000Y-130990057D01*
X147460000Y-130990057D02*
X147507619Y-130942438D01*
X147507619Y-130942438D02*
X147602857Y-130894819D01*
X147602857Y-130894819D02*
X147840952Y-130894819D01*
X147840952Y-130894819D02*
X147983809Y-130942438D01*
X148317143Y-130894819D02*
X148555238Y-131894819D01*
X148555238Y-131894819D02*
X148745714Y-131180533D01*
X148745714Y-131180533D02*
X148936190Y-131894819D01*
X148936190Y-131894819D02*
X149174286Y-130894819D01*
X149317143Y-131990057D02*
X150079047Y-131990057D01*
X150317143Y-131894819D02*
X150317143Y-130894819D01*
X150317143Y-130894819D02*
X150698095Y-130894819D01*
X150698095Y-130894819D02*
X150793333Y-130942438D01*
X150793333Y-130942438D02*
X150840952Y-130990057D01*
X150840952Y-130990057D02*
X150888571Y-131085295D01*
X150888571Y-131085295D02*
X150888571Y-131228152D01*
X150888571Y-131228152D02*
X150840952Y-131323390D01*
X150840952Y-131323390D02*
X150793333Y-131371009D01*
X150793333Y-131371009D02*
X150698095Y-131418628D01*
X150698095Y-131418628D02*
X150317143Y-131418628D01*
X151745714Y-131228152D02*
X151745714Y-131894819D01*
X151317143Y-131228152D02*
X151317143Y-131751961D01*
X151317143Y-131751961D02*
X151364762Y-131847200D01*
X151364762Y-131847200D02*
X151460000Y-131894819D01*
X151460000Y-131894819D02*
X151602857Y-131894819D01*
X151602857Y-131894819D02*
X151698095Y-131847200D01*
X151698095Y-131847200D02*
X151745714Y-131799580D01*
X152174286Y-131847200D02*
X152269524Y-131894819D01*
X152269524Y-131894819D02*
X152460000Y-131894819D01*
X152460000Y-131894819D02*
X152555238Y-131847200D01*
X152555238Y-131847200D02*
X152602857Y-131751961D01*
X152602857Y-131751961D02*
X152602857Y-131704342D01*
X152602857Y-131704342D02*
X152555238Y-131609104D01*
X152555238Y-131609104D02*
X152460000Y-131561485D01*
X152460000Y-131561485D02*
X152317143Y-131561485D01*
X152317143Y-131561485D02*
X152221905Y-131513866D01*
X152221905Y-131513866D02*
X152174286Y-131418628D01*
X152174286Y-131418628D02*
X152174286Y-131371009D01*
X152174286Y-131371009D02*
X152221905Y-131275771D01*
X152221905Y-131275771D02*
X152317143Y-131228152D01*
X152317143Y-131228152D02*
X152460000Y-131228152D01*
X152460000Y-131228152D02*
X152555238Y-131275771D01*
X153031429Y-131894819D02*
X153031429Y-130894819D01*
X153460000Y-131894819D02*
X153460000Y-131371009D01*
X153460000Y-131371009D02*
X153412381Y-131275771D01*
X153412381Y-131275771D02*
X153317143Y-131228152D01*
X153317143Y-131228152D02*
X153174286Y-131228152D01*
X153174286Y-131228152D02*
X153079048Y-131275771D01*
X153079048Y-131275771D02*
X153031429Y-131323390D01*
X149126667Y-125447200D02*
X149269524Y-125494819D01*
X149269524Y-125494819D02*
X149507619Y-125494819D01*
X149507619Y-125494819D02*
X149602857Y-125447200D01*
X149602857Y-125447200D02*
X149650476Y-125399580D01*
X149650476Y-125399580D02*
X149698095Y-125304342D01*
X149698095Y-125304342D02*
X149698095Y-125209104D01*
X149698095Y-125209104D02*
X149650476Y-125113866D01*
X149650476Y-125113866D02*
X149602857Y-125066247D01*
X149602857Y-125066247D02*
X149507619Y-125018628D01*
X149507619Y-125018628D02*
X149317143Y-124971009D01*
X149317143Y-124971009D02*
X149221905Y-124923390D01*
X149221905Y-124923390D02*
X149174286Y-124875771D01*
X149174286Y-124875771D02*
X149126667Y-124780533D01*
X149126667Y-124780533D02*
X149126667Y-124685295D01*
X149126667Y-124685295D02*
X149174286Y-124590057D01*
X149174286Y-124590057D02*
X149221905Y-124542438D01*
X149221905Y-124542438D02*
X149317143Y-124494819D01*
X149317143Y-124494819D02*
X149555238Y-124494819D01*
X149555238Y-124494819D02*
X149698095Y-124542438D01*
X150031429Y-124494819D02*
X150269524Y-125494819D01*
X150269524Y-125494819D02*
X150460000Y-124780533D01*
X150460000Y-124780533D02*
X150650476Y-125494819D01*
X150650476Y-125494819D02*
X150888572Y-124494819D01*
X151221905Y-124590057D02*
X151269524Y-124542438D01*
X151269524Y-124542438D02*
X151364762Y-124494819D01*
X151364762Y-124494819D02*
X151602857Y-124494819D01*
X151602857Y-124494819D02*
X151698095Y-124542438D01*
X151698095Y-124542438D02*
X151745714Y-124590057D01*
X151745714Y-124590057D02*
X151793333Y-124685295D01*
X151793333Y-124685295D02*
X151793333Y-124780533D01*
X151793333Y-124780533D02*
X151745714Y-124923390D01*
X151745714Y-124923390D02*
X151174286Y-125494819D01*
X151174286Y-125494819D02*
X151793333Y-125494819D01*
X71777143Y-88610057D02*
X71824762Y-88562438D01*
X71824762Y-88562438D02*
X71920000Y-88514819D01*
X71920000Y-88514819D02*
X72158095Y-88514819D01*
X72158095Y-88514819D02*
X72253333Y-88562438D01*
X72253333Y-88562438D02*
X72300952Y-88610057D01*
X72300952Y-88610057D02*
X72348571Y-88705295D01*
X72348571Y-88705295D02*
X72348571Y-88800533D01*
X72348571Y-88800533D02*
X72300952Y-88943390D01*
X72300952Y-88943390D02*
X71729524Y-89514819D01*
X71729524Y-89514819D02*
X72348571Y-89514819D01*
X72729524Y-88610057D02*
X72777143Y-88562438D01*
X72777143Y-88562438D02*
X72872381Y-88514819D01*
X72872381Y-88514819D02*
X73110476Y-88514819D01*
X73110476Y-88514819D02*
X73205714Y-88562438D01*
X73205714Y-88562438D02*
X73253333Y-88610057D01*
X73253333Y-88610057D02*
X73300952Y-88705295D01*
X73300952Y-88705295D02*
X73300952Y-88800533D01*
X73300952Y-88800533D02*
X73253333Y-88943390D01*
X73253333Y-88943390D02*
X72681905Y-89514819D01*
X72681905Y-89514819D02*
X73300952Y-89514819D01*
X73729524Y-88848152D02*
X73729524Y-89848152D01*
X73729524Y-88895771D02*
X73824762Y-88848152D01*
X73824762Y-88848152D02*
X74015238Y-88848152D01*
X74015238Y-88848152D02*
X74110476Y-88895771D01*
X74110476Y-88895771D02*
X74158095Y-88943390D01*
X74158095Y-88943390D02*
X74205714Y-89038628D01*
X74205714Y-89038628D02*
X74205714Y-89324342D01*
X74205714Y-89324342D02*
X74158095Y-89419580D01*
X74158095Y-89419580D02*
X74110476Y-89467200D01*
X74110476Y-89467200D02*
X74015238Y-89514819D01*
X74015238Y-89514819D02*
X73824762Y-89514819D01*
X73824762Y-89514819D02*
X73729524Y-89467200D01*
X74967619Y-88991009D02*
X74634286Y-88991009D01*
X74634286Y-89514819D02*
X74634286Y-88514819D01*
X74634286Y-88514819D02*
X75110476Y-88514819D01*
D11*
X73548571Y-90919530D02*
X73524762Y-90943340D01*
X73524762Y-90943340D02*
X73453333Y-90967149D01*
X73453333Y-90967149D02*
X73405714Y-90967149D01*
X73405714Y-90967149D02*
X73334286Y-90943340D01*
X73334286Y-90943340D02*
X73286667Y-90895720D01*
X73286667Y-90895720D02*
X73262857Y-90848101D01*
X73262857Y-90848101D02*
X73239048Y-90752863D01*
X73239048Y-90752863D02*
X73239048Y-90681435D01*
X73239048Y-90681435D02*
X73262857Y-90586197D01*
X73262857Y-90586197D02*
X73286667Y-90538578D01*
X73286667Y-90538578D02*
X73334286Y-90490959D01*
X73334286Y-90490959D02*
X73405714Y-90467149D01*
X73405714Y-90467149D02*
X73453333Y-90467149D01*
X73453333Y-90467149D02*
X73524762Y-90490959D01*
X73524762Y-90490959D02*
X73548571Y-90514768D01*
X74024762Y-90967149D02*
X73739048Y-90967149D01*
X73881905Y-90967149D02*
X73881905Y-90467149D01*
X73881905Y-90467149D02*
X73834286Y-90538578D01*
X73834286Y-90538578D02*
X73786667Y-90586197D01*
X73786667Y-90586197D02*
X73739048Y-90610006D01*
X74334285Y-90467149D02*
X74381904Y-90467149D01*
X74381904Y-90467149D02*
X74429523Y-90490959D01*
X74429523Y-90490959D02*
X74453333Y-90514768D01*
X74453333Y-90514768D02*
X74477142Y-90562387D01*
X74477142Y-90562387D02*
X74500952Y-90657625D01*
X74500952Y-90657625D02*
X74500952Y-90776673D01*
X74500952Y-90776673D02*
X74477142Y-90871911D01*
X74477142Y-90871911D02*
X74453333Y-90919530D01*
X74453333Y-90919530D02*
X74429523Y-90943340D01*
X74429523Y-90943340D02*
X74381904Y-90967149D01*
X74381904Y-90967149D02*
X74334285Y-90967149D01*
X74334285Y-90967149D02*
X74286666Y-90943340D01*
X74286666Y-90943340D02*
X74262857Y-90919530D01*
X74262857Y-90919530D02*
X74239047Y-90871911D01*
X74239047Y-90871911D02*
X74215238Y-90776673D01*
X74215238Y-90776673D02*
X74215238Y-90657625D01*
X74215238Y-90657625D02*
X74239047Y-90562387D01*
X74239047Y-90562387D02*
X74262857Y-90514768D01*
X74262857Y-90514768D02*
X74286666Y-90490959D01*
X74286666Y-90490959D02*
X74334285Y-90467149D01*
D10*
X197872381Y-131847200D02*
X198015238Y-131894819D01*
X198015238Y-131894819D02*
X198253333Y-131894819D01*
X198253333Y-131894819D02*
X198348571Y-131847200D01*
X198348571Y-131847200D02*
X198396190Y-131799580D01*
X198396190Y-131799580D02*
X198443809Y-131704342D01*
X198443809Y-131704342D02*
X198443809Y-131609104D01*
X198443809Y-131609104D02*
X198396190Y-131513866D01*
X198396190Y-131513866D02*
X198348571Y-131466247D01*
X198348571Y-131466247D02*
X198253333Y-131418628D01*
X198253333Y-131418628D02*
X198062857Y-131371009D01*
X198062857Y-131371009D02*
X197967619Y-131323390D01*
X197967619Y-131323390D02*
X197920000Y-131275771D01*
X197920000Y-131275771D02*
X197872381Y-131180533D01*
X197872381Y-131180533D02*
X197872381Y-131085295D01*
X197872381Y-131085295D02*
X197920000Y-130990057D01*
X197920000Y-130990057D02*
X197967619Y-130942438D01*
X197967619Y-130942438D02*
X198062857Y-130894819D01*
X198062857Y-130894819D02*
X198300952Y-130894819D01*
X198300952Y-130894819D02*
X198443809Y-130942438D01*
X198777143Y-130894819D02*
X199015238Y-131894819D01*
X199015238Y-131894819D02*
X199205714Y-131180533D01*
X199205714Y-131180533D02*
X199396190Y-131894819D01*
X199396190Y-131894819D02*
X199634286Y-130894819D01*
X199777143Y-131990057D02*
X200539047Y-131990057D01*
X200777143Y-131894819D02*
X200777143Y-130894819D01*
X200777143Y-130894819D02*
X201158095Y-130894819D01*
X201158095Y-130894819D02*
X201253333Y-130942438D01*
X201253333Y-130942438D02*
X201300952Y-130990057D01*
X201300952Y-130990057D02*
X201348571Y-131085295D01*
X201348571Y-131085295D02*
X201348571Y-131228152D01*
X201348571Y-131228152D02*
X201300952Y-131323390D01*
X201300952Y-131323390D02*
X201253333Y-131371009D01*
X201253333Y-131371009D02*
X201158095Y-131418628D01*
X201158095Y-131418628D02*
X200777143Y-131418628D01*
X202205714Y-131228152D02*
X202205714Y-131894819D01*
X201777143Y-131228152D02*
X201777143Y-131751961D01*
X201777143Y-131751961D02*
X201824762Y-131847200D01*
X201824762Y-131847200D02*
X201920000Y-131894819D01*
X201920000Y-131894819D02*
X202062857Y-131894819D01*
X202062857Y-131894819D02*
X202158095Y-131847200D01*
X202158095Y-131847200D02*
X202205714Y-131799580D01*
X202634286Y-131847200D02*
X202729524Y-131894819D01*
X202729524Y-131894819D02*
X202920000Y-131894819D01*
X202920000Y-131894819D02*
X203015238Y-131847200D01*
X203015238Y-131847200D02*
X203062857Y-131751961D01*
X203062857Y-131751961D02*
X203062857Y-131704342D01*
X203062857Y-131704342D02*
X203015238Y-131609104D01*
X203015238Y-131609104D02*
X202920000Y-131561485D01*
X202920000Y-131561485D02*
X202777143Y-131561485D01*
X202777143Y-131561485D02*
X202681905Y-131513866D01*
X202681905Y-131513866D02*
X202634286Y-131418628D01*
X202634286Y-131418628D02*
X202634286Y-131371009D01*
X202634286Y-131371009D02*
X202681905Y-131275771D01*
X202681905Y-131275771D02*
X202777143Y-131228152D01*
X202777143Y-131228152D02*
X202920000Y-131228152D01*
X202920000Y-131228152D02*
X203015238Y-131275771D01*
X203491429Y-131894819D02*
X203491429Y-130894819D01*
X203920000Y-131894819D02*
X203920000Y-131371009D01*
X203920000Y-131371009D02*
X203872381Y-131275771D01*
X203872381Y-131275771D02*
X203777143Y-131228152D01*
X203777143Y-131228152D02*
X203634286Y-131228152D01*
X203634286Y-131228152D02*
X203539048Y-131275771D01*
X203539048Y-131275771D02*
X203491429Y-131323390D01*
X199586667Y-125447200D02*
X199729524Y-125494819D01*
X199729524Y-125494819D02*
X199967619Y-125494819D01*
X199967619Y-125494819D02*
X200062857Y-125447200D01*
X200062857Y-125447200D02*
X200110476Y-125399580D01*
X200110476Y-125399580D02*
X200158095Y-125304342D01*
X200158095Y-125304342D02*
X200158095Y-125209104D01*
X200158095Y-125209104D02*
X200110476Y-125113866D01*
X200110476Y-125113866D02*
X200062857Y-125066247D01*
X200062857Y-125066247D02*
X199967619Y-125018628D01*
X199967619Y-125018628D02*
X199777143Y-124971009D01*
X199777143Y-124971009D02*
X199681905Y-124923390D01*
X199681905Y-124923390D02*
X199634286Y-124875771D01*
X199634286Y-124875771D02*
X199586667Y-124780533D01*
X199586667Y-124780533D02*
X199586667Y-124685295D01*
X199586667Y-124685295D02*
X199634286Y-124590057D01*
X199634286Y-124590057D02*
X199681905Y-124542438D01*
X199681905Y-124542438D02*
X199777143Y-124494819D01*
X199777143Y-124494819D02*
X200015238Y-124494819D01*
X200015238Y-124494819D02*
X200158095Y-124542438D01*
X200491429Y-124494819D02*
X200729524Y-125494819D01*
X200729524Y-125494819D02*
X200920000Y-124780533D01*
X200920000Y-124780533D02*
X201110476Y-125494819D01*
X201110476Y-125494819D02*
X201348572Y-124494819D01*
X202205714Y-124494819D02*
X201729524Y-124494819D01*
X201729524Y-124494819D02*
X201681905Y-124971009D01*
X201681905Y-124971009D02*
X201729524Y-124923390D01*
X201729524Y-124923390D02*
X201824762Y-124875771D01*
X201824762Y-124875771D02*
X202062857Y-124875771D01*
X202062857Y-124875771D02*
X202158095Y-124923390D01*
X202158095Y-124923390D02*
X202205714Y-124971009D01*
X202205714Y-124971009D02*
X202253333Y-125066247D01*
X202253333Y-125066247D02*
X202253333Y-125304342D01*
X202253333Y-125304342D02*
X202205714Y-125399580D01*
X202205714Y-125399580D02*
X202158095Y-125447200D01*
X202158095Y-125447200D02*
X202062857Y-125494819D01*
X202062857Y-125494819D02*
X201824762Y-125494819D01*
X201824762Y-125494819D02*
X201729524Y-125447200D01*
X201729524Y-125447200D02*
X201681905Y-125399580D01*
X130474819Y-93287618D02*
X130474819Y-92668571D01*
X130474819Y-92668571D02*
X130855771Y-93001904D01*
X130855771Y-93001904D02*
X130855771Y-92859047D01*
X130855771Y-92859047D02*
X130903390Y-92763809D01*
X130903390Y-92763809D02*
X130951009Y-92716190D01*
X130951009Y-92716190D02*
X131046247Y-92668571D01*
X131046247Y-92668571D02*
X131284342Y-92668571D01*
X131284342Y-92668571D02*
X131379580Y-92716190D01*
X131379580Y-92716190D02*
X131427200Y-92763809D01*
X131427200Y-92763809D02*
X131474819Y-92859047D01*
X131474819Y-92859047D02*
X131474819Y-93144761D01*
X131474819Y-93144761D02*
X131427200Y-93239999D01*
X131427200Y-93239999D02*
X131379580Y-93287618D01*
X130474819Y-92335237D02*
X130474819Y-91716190D01*
X130474819Y-91716190D02*
X130855771Y-92049523D01*
X130855771Y-92049523D02*
X130855771Y-91906666D01*
X130855771Y-91906666D02*
X130903390Y-91811428D01*
X130903390Y-91811428D02*
X130951009Y-91763809D01*
X130951009Y-91763809D02*
X131046247Y-91716190D01*
X131046247Y-91716190D02*
X131284342Y-91716190D01*
X131284342Y-91716190D02*
X131379580Y-91763809D01*
X131379580Y-91763809D02*
X131427200Y-91811428D01*
X131427200Y-91811428D02*
X131474819Y-91906666D01*
X131474819Y-91906666D02*
X131474819Y-92192380D01*
X131474819Y-92192380D02*
X131427200Y-92287618D01*
X131427200Y-92287618D02*
X131379580Y-92335237D01*
X130474819Y-91097142D02*
X130474819Y-91001904D01*
X130474819Y-91001904D02*
X130522438Y-90906666D01*
X130522438Y-90906666D02*
X130570057Y-90859047D01*
X130570057Y-90859047D02*
X130665295Y-90811428D01*
X130665295Y-90811428D02*
X130855771Y-90763809D01*
X130855771Y-90763809D02*
X131093866Y-90763809D01*
X131093866Y-90763809D02*
X131284342Y-90811428D01*
X131284342Y-90811428D02*
X131379580Y-90859047D01*
X131379580Y-90859047D02*
X131427200Y-90906666D01*
X131427200Y-90906666D02*
X131474819Y-91001904D01*
X131474819Y-91001904D02*
X131474819Y-91097142D01*
X131474819Y-91097142D02*
X131427200Y-91192380D01*
X131427200Y-91192380D02*
X131379580Y-91239999D01*
X131379580Y-91239999D02*
X131284342Y-91287618D01*
X131284342Y-91287618D02*
X131093866Y-91335237D01*
X131093866Y-91335237D02*
X130855771Y-91335237D01*
X130855771Y-91335237D02*
X130665295Y-91287618D01*
X130665295Y-91287618D02*
X130570057Y-91239999D01*
X130570057Y-91239999D02*
X130522438Y-91192380D01*
X130522438Y-91192380D02*
X130474819Y-91097142D01*
X130808152Y-89144761D02*
X131474819Y-89144761D01*
X130808152Y-89573332D02*
X131331961Y-89573332D01*
X131331961Y-89573332D02*
X131427200Y-89525713D01*
X131427200Y-89525713D02*
X131474819Y-89430475D01*
X131474819Y-89430475D02*
X131474819Y-89287618D01*
X131474819Y-89287618D02*
X131427200Y-89192380D01*
X131427200Y-89192380D02*
X131379580Y-89144761D01*
X130951009Y-88335237D02*
X130951009Y-88668570D01*
X131474819Y-88668570D02*
X130474819Y-88668570D01*
X130474819Y-88668570D02*
X130474819Y-88192380D01*
X128279580Y-90906666D02*
X128327200Y-90954285D01*
X128327200Y-90954285D02*
X128374819Y-91097142D01*
X128374819Y-91097142D02*
X128374819Y-91192380D01*
X128374819Y-91192380D02*
X128327200Y-91335237D01*
X128327200Y-91335237D02*
X128231961Y-91430475D01*
X128231961Y-91430475D02*
X128136723Y-91478094D01*
X128136723Y-91478094D02*
X127946247Y-91525713D01*
X127946247Y-91525713D02*
X127803390Y-91525713D01*
X127803390Y-91525713D02*
X127612914Y-91478094D01*
X127612914Y-91478094D02*
X127517676Y-91430475D01*
X127517676Y-91430475D02*
X127422438Y-91335237D01*
X127422438Y-91335237D02*
X127374819Y-91192380D01*
X127374819Y-91192380D02*
X127374819Y-91097142D01*
X127374819Y-91097142D02*
X127422438Y-90954285D01*
X127422438Y-90954285D02*
X127470057Y-90906666D01*
X128374819Y-90430475D02*
X128374819Y-90239999D01*
X128374819Y-90239999D02*
X128327200Y-90144761D01*
X128327200Y-90144761D02*
X128279580Y-90097142D01*
X128279580Y-90097142D02*
X128136723Y-90001904D01*
X128136723Y-90001904D02*
X127946247Y-89954285D01*
X127946247Y-89954285D02*
X127565295Y-89954285D01*
X127565295Y-89954285D02*
X127470057Y-90001904D01*
X127470057Y-90001904D02*
X127422438Y-90049523D01*
X127422438Y-90049523D02*
X127374819Y-90144761D01*
X127374819Y-90144761D02*
X127374819Y-90335237D01*
X127374819Y-90335237D02*
X127422438Y-90430475D01*
X127422438Y-90430475D02*
X127470057Y-90478094D01*
X127470057Y-90478094D02*
X127565295Y-90525713D01*
X127565295Y-90525713D02*
X127803390Y-90525713D01*
X127803390Y-90525713D02*
X127898628Y-90478094D01*
X127898628Y-90478094D02*
X127946247Y-90430475D01*
X127946247Y-90430475D02*
X127993866Y-90335237D01*
X127993866Y-90335237D02*
X127993866Y-90144761D01*
X127993866Y-90144761D02*
X127946247Y-90049523D01*
X127946247Y-90049523D02*
X127898628Y-90001904D01*
X127898628Y-90001904D02*
X127803390Y-89954285D01*
X180394819Y-135782856D02*
X180394819Y-135687618D01*
X180394819Y-135687618D02*
X180442438Y-135592380D01*
X180442438Y-135592380D02*
X180490057Y-135544761D01*
X180490057Y-135544761D02*
X180585295Y-135497142D01*
X180585295Y-135497142D02*
X180775771Y-135449523D01*
X180775771Y-135449523D02*
X181013866Y-135449523D01*
X181013866Y-135449523D02*
X181204342Y-135497142D01*
X181204342Y-135497142D02*
X181299580Y-135544761D01*
X181299580Y-135544761D02*
X181347200Y-135592380D01*
X181347200Y-135592380D02*
X181394819Y-135687618D01*
X181394819Y-135687618D02*
X181394819Y-135782856D01*
X181394819Y-135782856D02*
X181347200Y-135878094D01*
X181347200Y-135878094D02*
X181299580Y-135925713D01*
X181299580Y-135925713D02*
X181204342Y-135973332D01*
X181204342Y-135973332D02*
X181013866Y-136020951D01*
X181013866Y-136020951D02*
X180775771Y-136020951D01*
X180775771Y-136020951D02*
X180585295Y-135973332D01*
X180585295Y-135973332D02*
X180490057Y-135925713D01*
X180490057Y-135925713D02*
X180442438Y-135878094D01*
X180442438Y-135878094D02*
X180394819Y-135782856D01*
X181299580Y-135020951D02*
X181347200Y-134973332D01*
X181347200Y-134973332D02*
X181394819Y-135020951D01*
X181394819Y-135020951D02*
X181347200Y-135068570D01*
X181347200Y-135068570D02*
X181299580Y-135020951D01*
X181299580Y-135020951D02*
X181394819Y-135020951D01*
X181394819Y-134020952D02*
X181394819Y-134592380D01*
X181394819Y-134306666D02*
X180394819Y-134306666D01*
X180394819Y-134306666D02*
X180537676Y-134401904D01*
X180537676Y-134401904D02*
X180632914Y-134497142D01*
X180632914Y-134497142D02*
X180680533Y-134592380D01*
X180728152Y-133163809D02*
X181394819Y-133163809D01*
X180728152Y-133592380D02*
X181251961Y-133592380D01*
X181251961Y-133592380D02*
X181347200Y-133544761D01*
X181347200Y-133544761D02*
X181394819Y-133449523D01*
X181394819Y-133449523D02*
X181394819Y-133306666D01*
X181394819Y-133306666D02*
X181347200Y-133211428D01*
X181347200Y-133211428D02*
X181299580Y-133163809D01*
X180871009Y-132354285D02*
X180871009Y-132687618D01*
X181394819Y-132687618D02*
X180394819Y-132687618D01*
X180394819Y-132687618D02*
X180394819Y-132211428D01*
D11*
X182799530Y-134223333D02*
X182823340Y-134247142D01*
X182823340Y-134247142D02*
X182847149Y-134318571D01*
X182847149Y-134318571D02*
X182847149Y-134366190D01*
X182847149Y-134366190D02*
X182823340Y-134437618D01*
X182823340Y-134437618D02*
X182775720Y-134485237D01*
X182775720Y-134485237D02*
X182728101Y-134509047D01*
X182728101Y-134509047D02*
X182632863Y-134532856D01*
X182632863Y-134532856D02*
X182561435Y-134532856D01*
X182561435Y-134532856D02*
X182466197Y-134509047D01*
X182466197Y-134509047D02*
X182418578Y-134485237D01*
X182418578Y-134485237D02*
X182370959Y-134437618D01*
X182370959Y-134437618D02*
X182347149Y-134366190D01*
X182347149Y-134366190D02*
X182347149Y-134318571D01*
X182347149Y-134318571D02*
X182370959Y-134247142D01*
X182370959Y-134247142D02*
X182394768Y-134223333D01*
X182513816Y-133794761D02*
X182847149Y-133794761D01*
X182323340Y-133913809D02*
X182680482Y-134032856D01*
X182680482Y-134032856D02*
X182680482Y-133723333D01*
D10*
X200550952Y-121594819D02*
X199979524Y-121594819D01*
X200265238Y-121594819D02*
X200265238Y-120594819D01*
X200265238Y-120594819D02*
X200170000Y-120737676D01*
X200170000Y-120737676D02*
X200074762Y-120832914D01*
X200074762Y-120832914D02*
X199979524Y-120880533D01*
X200979524Y-121594819D02*
X200979524Y-120594819D01*
X201074762Y-121213866D02*
X201360476Y-121594819D01*
X201360476Y-120928152D02*
X200979524Y-121309104D01*
D11*
X200586666Y-119717149D02*
X200420000Y-119479054D01*
X200300952Y-119717149D02*
X200300952Y-119217149D01*
X200300952Y-119217149D02*
X200491428Y-119217149D01*
X200491428Y-119217149D02*
X200539047Y-119240959D01*
X200539047Y-119240959D02*
X200562857Y-119264768D01*
X200562857Y-119264768D02*
X200586666Y-119312387D01*
X200586666Y-119312387D02*
X200586666Y-119383816D01*
X200586666Y-119383816D02*
X200562857Y-119431435D01*
X200562857Y-119431435D02*
X200539047Y-119455244D01*
X200539047Y-119455244D02*
X200491428Y-119479054D01*
X200491428Y-119479054D02*
X200300952Y-119479054D01*
X201039047Y-119217149D02*
X200800952Y-119217149D01*
X200800952Y-119217149D02*
X200777143Y-119455244D01*
X200777143Y-119455244D02*
X200800952Y-119431435D01*
X200800952Y-119431435D02*
X200848571Y-119407625D01*
X200848571Y-119407625D02*
X200967619Y-119407625D01*
X200967619Y-119407625D02*
X201015238Y-119431435D01*
X201015238Y-119431435D02*
X201039047Y-119455244D01*
X201039047Y-119455244D02*
X201062857Y-119502863D01*
X201062857Y-119502863D02*
X201062857Y-119621911D01*
X201062857Y-119621911D02*
X201039047Y-119669530D01*
X201039047Y-119669530D02*
X201015238Y-119693340D01*
X201015238Y-119693340D02*
X200967619Y-119717149D01*
X200967619Y-119717149D02*
X200848571Y-119717149D01*
X200848571Y-119717149D02*
X200800952Y-119693340D01*
X200800952Y-119693340D02*
X200777143Y-119669530D01*
D10*
X131874819Y-136232856D02*
X131874819Y-136137618D01*
X131874819Y-136137618D02*
X131922438Y-136042380D01*
X131922438Y-136042380D02*
X131970057Y-135994761D01*
X131970057Y-135994761D02*
X132065295Y-135947142D01*
X132065295Y-135947142D02*
X132255771Y-135899523D01*
X132255771Y-135899523D02*
X132493866Y-135899523D01*
X132493866Y-135899523D02*
X132684342Y-135947142D01*
X132684342Y-135947142D02*
X132779580Y-135994761D01*
X132779580Y-135994761D02*
X132827200Y-136042380D01*
X132827200Y-136042380D02*
X132874819Y-136137618D01*
X132874819Y-136137618D02*
X132874819Y-136232856D01*
X132874819Y-136232856D02*
X132827200Y-136328094D01*
X132827200Y-136328094D02*
X132779580Y-136375713D01*
X132779580Y-136375713D02*
X132684342Y-136423332D01*
X132684342Y-136423332D02*
X132493866Y-136470951D01*
X132493866Y-136470951D02*
X132255771Y-136470951D01*
X132255771Y-136470951D02*
X132065295Y-136423332D01*
X132065295Y-136423332D02*
X131970057Y-136375713D01*
X131970057Y-136375713D02*
X131922438Y-136328094D01*
X131922438Y-136328094D02*
X131874819Y-136232856D01*
X132779580Y-135470951D02*
X132827200Y-135423332D01*
X132827200Y-135423332D02*
X132874819Y-135470951D01*
X132874819Y-135470951D02*
X132827200Y-135518570D01*
X132827200Y-135518570D02*
X132779580Y-135470951D01*
X132779580Y-135470951D02*
X132874819Y-135470951D01*
X132874819Y-134470952D02*
X132874819Y-135042380D01*
X132874819Y-134756666D02*
X131874819Y-134756666D01*
X131874819Y-134756666D02*
X132017676Y-134851904D01*
X132017676Y-134851904D02*
X132112914Y-134947142D01*
X132112914Y-134947142D02*
X132160533Y-135042380D01*
X132208152Y-133613809D02*
X132874819Y-133613809D01*
X132208152Y-134042380D02*
X132731961Y-134042380D01*
X132731961Y-134042380D02*
X132827200Y-133994761D01*
X132827200Y-133994761D02*
X132874819Y-133899523D01*
X132874819Y-133899523D02*
X132874819Y-133756666D01*
X132874819Y-133756666D02*
X132827200Y-133661428D01*
X132827200Y-133661428D02*
X132779580Y-133613809D01*
X132351009Y-132804285D02*
X132351009Y-133137618D01*
X132874819Y-133137618D02*
X131874819Y-133137618D01*
X131874819Y-133137618D02*
X131874819Y-132661428D01*
D11*
X134099530Y-134223333D02*
X134123340Y-134247142D01*
X134123340Y-134247142D02*
X134147149Y-134318571D01*
X134147149Y-134318571D02*
X134147149Y-134366190D01*
X134147149Y-134366190D02*
X134123340Y-134437618D01*
X134123340Y-134437618D02*
X134075720Y-134485237D01*
X134075720Y-134485237D02*
X134028101Y-134509047D01*
X134028101Y-134509047D02*
X133932863Y-134532856D01*
X133932863Y-134532856D02*
X133861435Y-134532856D01*
X133861435Y-134532856D02*
X133766197Y-134509047D01*
X133766197Y-134509047D02*
X133718578Y-134485237D01*
X133718578Y-134485237D02*
X133670959Y-134437618D01*
X133670959Y-134437618D02*
X133647149Y-134366190D01*
X133647149Y-134366190D02*
X133647149Y-134318571D01*
X133647149Y-134318571D02*
X133670959Y-134247142D01*
X133670959Y-134247142D02*
X133694768Y-134223333D01*
X134147149Y-133747142D02*
X134147149Y-134032856D01*
X134147149Y-133889999D02*
X133647149Y-133889999D01*
X133647149Y-133889999D02*
X133718578Y-133937618D01*
X133718578Y-133937618D02*
X133766197Y-133985237D01*
X133766197Y-133985237D02*
X133790006Y-134032856D01*
D10*
X138327200Y-65478095D02*
X138374819Y-65335238D01*
X138374819Y-65335238D02*
X138374819Y-65097143D01*
X138374819Y-65097143D02*
X138327200Y-65001905D01*
X138327200Y-65001905D02*
X138279580Y-64954286D01*
X138279580Y-64954286D02*
X138184342Y-64906667D01*
X138184342Y-64906667D02*
X138089104Y-64906667D01*
X138089104Y-64906667D02*
X137993866Y-64954286D01*
X137993866Y-64954286D02*
X137946247Y-65001905D01*
X137946247Y-65001905D02*
X137898628Y-65097143D01*
X137898628Y-65097143D02*
X137851009Y-65287619D01*
X137851009Y-65287619D02*
X137803390Y-65382857D01*
X137803390Y-65382857D02*
X137755771Y-65430476D01*
X137755771Y-65430476D02*
X137660533Y-65478095D01*
X137660533Y-65478095D02*
X137565295Y-65478095D01*
X137565295Y-65478095D02*
X137470057Y-65430476D01*
X137470057Y-65430476D02*
X137422438Y-65382857D01*
X137422438Y-65382857D02*
X137374819Y-65287619D01*
X137374819Y-65287619D02*
X137374819Y-65049524D01*
X137374819Y-65049524D02*
X137422438Y-64906667D01*
X138327200Y-64049524D02*
X138374819Y-64144762D01*
X138374819Y-64144762D02*
X138374819Y-64335238D01*
X138374819Y-64335238D02*
X138327200Y-64430476D01*
X138327200Y-64430476D02*
X138279580Y-64478095D01*
X138279580Y-64478095D02*
X138184342Y-64525714D01*
X138184342Y-64525714D02*
X137898628Y-64525714D01*
X137898628Y-64525714D02*
X137803390Y-64478095D01*
X137803390Y-64478095D02*
X137755771Y-64430476D01*
X137755771Y-64430476D02*
X137708152Y-64335238D01*
X137708152Y-64335238D02*
X137708152Y-64144762D01*
X137708152Y-64144762D02*
X137755771Y-64049524D01*
X138374819Y-63620952D02*
X137708152Y-63620952D01*
X137898628Y-63620952D02*
X137803390Y-63573333D01*
X137803390Y-63573333D02*
X137755771Y-63525714D01*
X137755771Y-63525714D02*
X137708152Y-63430476D01*
X137708152Y-63430476D02*
X137708152Y-63335238D01*
X138327200Y-62620952D02*
X138374819Y-62716190D01*
X138374819Y-62716190D02*
X138374819Y-62906666D01*
X138374819Y-62906666D02*
X138327200Y-63001904D01*
X138327200Y-63001904D02*
X138231961Y-63049523D01*
X138231961Y-63049523D02*
X137851009Y-63049523D01*
X137851009Y-63049523D02*
X137755771Y-63001904D01*
X137755771Y-63001904D02*
X137708152Y-62906666D01*
X137708152Y-62906666D02*
X137708152Y-62716190D01*
X137708152Y-62716190D02*
X137755771Y-62620952D01*
X137755771Y-62620952D02*
X137851009Y-62573333D01*
X137851009Y-62573333D02*
X137946247Y-62573333D01*
X137946247Y-62573333D02*
X138041485Y-63049523D01*
X137708152Y-62239999D02*
X138374819Y-62049523D01*
X138374819Y-62049523D02*
X137898628Y-61859047D01*
X137898628Y-61859047D02*
X138374819Y-61668571D01*
X138374819Y-61668571D02*
X137708152Y-61478095D01*
X138470057Y-61335238D02*
X138470057Y-60573333D01*
X137374819Y-60478094D02*
X137374819Y-59906666D01*
X138374819Y-60192380D02*
X137374819Y-60192380D01*
X138327200Y-59192380D02*
X138374819Y-59287618D01*
X138374819Y-59287618D02*
X138374819Y-59478094D01*
X138374819Y-59478094D02*
X138327200Y-59573332D01*
X138327200Y-59573332D02*
X138231961Y-59620951D01*
X138231961Y-59620951D02*
X137851009Y-59620951D01*
X137851009Y-59620951D02*
X137755771Y-59573332D01*
X137755771Y-59573332D02*
X137708152Y-59478094D01*
X137708152Y-59478094D02*
X137708152Y-59287618D01*
X137708152Y-59287618D02*
X137755771Y-59192380D01*
X137755771Y-59192380D02*
X137851009Y-59144761D01*
X137851009Y-59144761D02*
X137946247Y-59144761D01*
X137946247Y-59144761D02*
X138041485Y-59620951D01*
X138374819Y-58716189D02*
X137708152Y-58716189D01*
X137898628Y-58716189D02*
X137803390Y-58668570D01*
X137803390Y-58668570D02*
X137755771Y-58620951D01*
X137755771Y-58620951D02*
X137708152Y-58525713D01*
X137708152Y-58525713D02*
X137708152Y-58430475D01*
X138374819Y-58097141D02*
X137708152Y-58097141D01*
X137803390Y-58097141D02*
X137755771Y-58049522D01*
X137755771Y-58049522D02*
X137708152Y-57954284D01*
X137708152Y-57954284D02*
X137708152Y-57811427D01*
X137708152Y-57811427D02*
X137755771Y-57716189D01*
X137755771Y-57716189D02*
X137851009Y-57668570D01*
X137851009Y-57668570D02*
X138374819Y-57668570D01*
X137851009Y-57668570D02*
X137755771Y-57620951D01*
X137755771Y-57620951D02*
X137708152Y-57525713D01*
X137708152Y-57525713D02*
X137708152Y-57382856D01*
X137708152Y-57382856D02*
X137755771Y-57287617D01*
X137755771Y-57287617D02*
X137851009Y-57239998D01*
X137851009Y-57239998D02*
X138374819Y-57239998D01*
X138374819Y-56763808D02*
X137708152Y-56763808D01*
X137374819Y-56763808D02*
X137422438Y-56811427D01*
X137422438Y-56811427D02*
X137470057Y-56763808D01*
X137470057Y-56763808D02*
X137422438Y-56716189D01*
X137422438Y-56716189D02*
X137374819Y-56763808D01*
X137374819Y-56763808D02*
X137470057Y-56763808D01*
X137708152Y-56287618D02*
X138374819Y-56287618D01*
X137803390Y-56287618D02*
X137755771Y-56239999D01*
X137755771Y-56239999D02*
X137708152Y-56144761D01*
X137708152Y-56144761D02*
X137708152Y-56001904D01*
X137708152Y-56001904D02*
X137755771Y-55906666D01*
X137755771Y-55906666D02*
X137851009Y-55859047D01*
X137851009Y-55859047D02*
X138374819Y-55859047D01*
X138374819Y-54954285D02*
X137851009Y-54954285D01*
X137851009Y-54954285D02*
X137755771Y-55001904D01*
X137755771Y-55001904D02*
X137708152Y-55097142D01*
X137708152Y-55097142D02*
X137708152Y-55287618D01*
X137708152Y-55287618D02*
X137755771Y-55382856D01*
X138327200Y-54954285D02*
X138374819Y-55049523D01*
X138374819Y-55049523D02*
X138374819Y-55287618D01*
X138374819Y-55287618D02*
X138327200Y-55382856D01*
X138327200Y-55382856D02*
X138231961Y-55430475D01*
X138231961Y-55430475D02*
X138136723Y-55430475D01*
X138136723Y-55430475D02*
X138041485Y-55382856D01*
X138041485Y-55382856D02*
X137993866Y-55287618D01*
X137993866Y-55287618D02*
X137993866Y-55049523D01*
X137993866Y-55049523D02*
X137946247Y-54954285D01*
X138374819Y-54335237D02*
X138327200Y-54430475D01*
X138327200Y-54430475D02*
X138231961Y-54478094D01*
X138231961Y-54478094D02*
X137374819Y-54478094D01*
X138470057Y-54192380D02*
X138470057Y-53430475D01*
X137374819Y-53001903D02*
X137374819Y-52906665D01*
X137374819Y-52906665D02*
X137422438Y-52811427D01*
X137422438Y-52811427D02*
X137470057Y-52763808D01*
X137470057Y-52763808D02*
X137565295Y-52716189D01*
X137565295Y-52716189D02*
X137755771Y-52668570D01*
X137755771Y-52668570D02*
X137993866Y-52668570D01*
X137993866Y-52668570D02*
X138184342Y-52716189D01*
X138184342Y-52716189D02*
X138279580Y-52763808D01*
X138279580Y-52763808D02*
X138327200Y-52811427D01*
X138327200Y-52811427D02*
X138374819Y-52906665D01*
X138374819Y-52906665D02*
X138374819Y-53001903D01*
X138374819Y-53001903D02*
X138327200Y-53097141D01*
X138327200Y-53097141D02*
X138279580Y-53144760D01*
X138279580Y-53144760D02*
X138184342Y-53192379D01*
X138184342Y-53192379D02*
X137993866Y-53239998D01*
X137993866Y-53239998D02*
X137755771Y-53239998D01*
X137755771Y-53239998D02*
X137565295Y-53192379D01*
X137565295Y-53192379D02*
X137470057Y-53144760D01*
X137470057Y-53144760D02*
X137422438Y-53097141D01*
X137422438Y-53097141D02*
X137374819Y-53001903D01*
X138374819Y-51716189D02*
X138374819Y-52287617D01*
X138374819Y-52001903D02*
X137374819Y-52001903D01*
X137374819Y-52001903D02*
X137517676Y-52097141D01*
X137517676Y-52097141D02*
X137612914Y-52192379D01*
X137612914Y-52192379D02*
X137660533Y-52287617D01*
X138374819Y-51382855D02*
X137708152Y-50859046D01*
X137708152Y-51382855D02*
X138374819Y-50859046D01*
X137374819Y-50287617D02*
X137374819Y-50192379D01*
X137374819Y-50192379D02*
X137422438Y-50097141D01*
X137422438Y-50097141D02*
X137470057Y-50049522D01*
X137470057Y-50049522D02*
X137565295Y-50001903D01*
X137565295Y-50001903D02*
X137755771Y-49954284D01*
X137755771Y-49954284D02*
X137993866Y-49954284D01*
X137993866Y-49954284D02*
X138184342Y-50001903D01*
X138184342Y-50001903D02*
X138279580Y-50049522D01*
X138279580Y-50049522D02*
X138327200Y-50097141D01*
X138327200Y-50097141D02*
X138374819Y-50192379D01*
X138374819Y-50192379D02*
X138374819Y-50287617D01*
X138374819Y-50287617D02*
X138327200Y-50382855D01*
X138327200Y-50382855D02*
X138279580Y-50430474D01*
X138279580Y-50430474D02*
X138184342Y-50478093D01*
X138184342Y-50478093D02*
X137993866Y-50525712D01*
X137993866Y-50525712D02*
X137755771Y-50525712D01*
X137755771Y-50525712D02*
X137565295Y-50478093D01*
X137565295Y-50478093D02*
X137470057Y-50430474D01*
X137470057Y-50430474D02*
X137422438Y-50382855D01*
X137422438Y-50382855D02*
X137374819Y-50287617D01*
X137470057Y-49573331D02*
X137422438Y-49525712D01*
X137422438Y-49525712D02*
X137374819Y-49430474D01*
X137374819Y-49430474D02*
X137374819Y-49192379D01*
X137374819Y-49192379D02*
X137422438Y-49097141D01*
X137422438Y-49097141D02*
X137470057Y-49049522D01*
X137470057Y-49049522D02*
X137565295Y-49001903D01*
X137565295Y-49001903D02*
X137660533Y-49001903D01*
X137660533Y-49001903D02*
X137803390Y-49049522D01*
X137803390Y-49049522D02*
X138374819Y-49620950D01*
X138374819Y-49620950D02*
X138374819Y-49001903D01*
X145336666Y-51044819D02*
X145336666Y-51759104D01*
X145336666Y-51759104D02*
X145289047Y-51901961D01*
X145289047Y-51901961D02*
X145193809Y-51997200D01*
X145193809Y-51997200D02*
X145050952Y-52044819D01*
X145050952Y-52044819D02*
X144955714Y-52044819D01*
X146336666Y-52044819D02*
X145765238Y-52044819D01*
X146050952Y-52044819D02*
X146050952Y-51044819D01*
X146050952Y-51044819D02*
X145955714Y-51187676D01*
X145955714Y-51187676D02*
X145860476Y-51282914D01*
X145860476Y-51282914D02*
X145765238Y-51330533D01*
X216694819Y-135832856D02*
X216694819Y-135737618D01*
X216694819Y-135737618D02*
X216742438Y-135642380D01*
X216742438Y-135642380D02*
X216790057Y-135594761D01*
X216790057Y-135594761D02*
X216885295Y-135547142D01*
X216885295Y-135547142D02*
X217075771Y-135499523D01*
X217075771Y-135499523D02*
X217313866Y-135499523D01*
X217313866Y-135499523D02*
X217504342Y-135547142D01*
X217504342Y-135547142D02*
X217599580Y-135594761D01*
X217599580Y-135594761D02*
X217647200Y-135642380D01*
X217647200Y-135642380D02*
X217694819Y-135737618D01*
X217694819Y-135737618D02*
X217694819Y-135832856D01*
X217694819Y-135832856D02*
X217647200Y-135928094D01*
X217647200Y-135928094D02*
X217599580Y-135975713D01*
X217599580Y-135975713D02*
X217504342Y-136023332D01*
X217504342Y-136023332D02*
X217313866Y-136070951D01*
X217313866Y-136070951D02*
X217075771Y-136070951D01*
X217075771Y-136070951D02*
X216885295Y-136023332D01*
X216885295Y-136023332D02*
X216790057Y-135975713D01*
X216790057Y-135975713D02*
X216742438Y-135928094D01*
X216742438Y-135928094D02*
X216694819Y-135832856D01*
X217599580Y-135070951D02*
X217647200Y-135023332D01*
X217647200Y-135023332D02*
X217694819Y-135070951D01*
X217694819Y-135070951D02*
X217647200Y-135118570D01*
X217647200Y-135118570D02*
X217599580Y-135070951D01*
X217599580Y-135070951D02*
X217694819Y-135070951D01*
X217694819Y-134070952D02*
X217694819Y-134642380D01*
X217694819Y-134356666D02*
X216694819Y-134356666D01*
X216694819Y-134356666D02*
X216837676Y-134451904D01*
X216837676Y-134451904D02*
X216932914Y-134547142D01*
X216932914Y-134547142D02*
X216980533Y-134642380D01*
X217028152Y-133213809D02*
X217694819Y-133213809D01*
X217028152Y-133642380D02*
X217551961Y-133642380D01*
X217551961Y-133642380D02*
X217647200Y-133594761D01*
X217647200Y-133594761D02*
X217694819Y-133499523D01*
X217694819Y-133499523D02*
X217694819Y-133356666D01*
X217694819Y-133356666D02*
X217647200Y-133261428D01*
X217647200Y-133261428D02*
X217599580Y-133213809D01*
X217171009Y-132404285D02*
X217171009Y-132737618D01*
X217694819Y-132737618D02*
X216694819Y-132737618D01*
X216694819Y-132737618D02*
X216694819Y-132261428D01*
D11*
X219099530Y-134273333D02*
X219123340Y-134297142D01*
X219123340Y-134297142D02*
X219147149Y-134368571D01*
X219147149Y-134368571D02*
X219147149Y-134416190D01*
X219147149Y-134416190D02*
X219123340Y-134487618D01*
X219123340Y-134487618D02*
X219075720Y-134535237D01*
X219075720Y-134535237D02*
X219028101Y-134559047D01*
X219028101Y-134559047D02*
X218932863Y-134582856D01*
X218932863Y-134582856D02*
X218861435Y-134582856D01*
X218861435Y-134582856D02*
X218766197Y-134559047D01*
X218766197Y-134559047D02*
X218718578Y-134535237D01*
X218718578Y-134535237D02*
X218670959Y-134487618D01*
X218670959Y-134487618D02*
X218647149Y-134416190D01*
X218647149Y-134416190D02*
X218647149Y-134368571D01*
X218647149Y-134368571D02*
X218670959Y-134297142D01*
X218670959Y-134297142D02*
X218694768Y-134273333D01*
X218647149Y-133844761D02*
X218647149Y-133939999D01*
X218647149Y-133939999D02*
X218670959Y-133987618D01*
X218670959Y-133987618D02*
X218694768Y-134011428D01*
X218694768Y-134011428D02*
X218766197Y-134059047D01*
X218766197Y-134059047D02*
X218861435Y-134082856D01*
X218861435Y-134082856D02*
X219051911Y-134082856D01*
X219051911Y-134082856D02*
X219099530Y-134059047D01*
X219099530Y-134059047D02*
X219123340Y-134035237D01*
X219123340Y-134035237D02*
X219147149Y-133987618D01*
X219147149Y-133987618D02*
X219147149Y-133892380D01*
X219147149Y-133892380D02*
X219123340Y-133844761D01*
X219123340Y-133844761D02*
X219099530Y-133820952D01*
X219099530Y-133820952D02*
X219051911Y-133797142D01*
X219051911Y-133797142D02*
X218932863Y-133797142D01*
X218932863Y-133797142D02*
X218885244Y-133820952D01*
X218885244Y-133820952D02*
X218861435Y-133844761D01*
X218861435Y-133844761D02*
X218837625Y-133892380D01*
X218837625Y-133892380D02*
X218837625Y-133987618D01*
X218837625Y-133987618D02*
X218861435Y-134035237D01*
X218861435Y-134035237D02*
X218885244Y-134059047D01*
X218885244Y-134059047D02*
X218932863Y-134082856D01*
D10*
X165300952Y-121744819D02*
X164729524Y-121744819D01*
X165015238Y-121744819D02*
X165015238Y-120744819D01*
X165015238Y-120744819D02*
X164920000Y-120887676D01*
X164920000Y-120887676D02*
X164824762Y-120982914D01*
X164824762Y-120982914D02*
X164729524Y-121030533D01*
X165729524Y-121744819D02*
X165729524Y-120744819D01*
X165824762Y-121363866D02*
X166110476Y-121744819D01*
X166110476Y-121078152D02*
X165729524Y-121459104D01*
D11*
X165336666Y-119867149D02*
X165170000Y-119629054D01*
X165050952Y-119867149D02*
X165050952Y-119367149D01*
X165050952Y-119367149D02*
X165241428Y-119367149D01*
X165241428Y-119367149D02*
X165289047Y-119390959D01*
X165289047Y-119390959D02*
X165312857Y-119414768D01*
X165312857Y-119414768D02*
X165336666Y-119462387D01*
X165336666Y-119462387D02*
X165336666Y-119533816D01*
X165336666Y-119533816D02*
X165312857Y-119581435D01*
X165312857Y-119581435D02*
X165289047Y-119605244D01*
X165289047Y-119605244D02*
X165241428Y-119629054D01*
X165241428Y-119629054D02*
X165050952Y-119629054D01*
X165503333Y-119367149D02*
X165812857Y-119367149D01*
X165812857Y-119367149D02*
X165646190Y-119557625D01*
X165646190Y-119557625D02*
X165717619Y-119557625D01*
X165717619Y-119557625D02*
X165765238Y-119581435D01*
X165765238Y-119581435D02*
X165789047Y-119605244D01*
X165789047Y-119605244D02*
X165812857Y-119652863D01*
X165812857Y-119652863D02*
X165812857Y-119771911D01*
X165812857Y-119771911D02*
X165789047Y-119819530D01*
X165789047Y-119819530D02*
X165765238Y-119843340D01*
X165765238Y-119843340D02*
X165717619Y-119867149D01*
X165717619Y-119867149D02*
X165574762Y-119867149D01*
X165574762Y-119867149D02*
X165527143Y-119843340D01*
X165527143Y-119843340D02*
X165503333Y-119819530D01*
D10*
X217888095Y-100113866D02*
X217935714Y-100066247D01*
X217935714Y-100066247D02*
X218030952Y-100018628D01*
X218030952Y-100018628D02*
X218221428Y-100113866D01*
X218221428Y-100113866D02*
X218316666Y-100066247D01*
X218316666Y-100066247D02*
X218364285Y-100018628D01*
X217604819Y-75561904D02*
X218414342Y-75561904D01*
X218414342Y-75561904D02*
X218509580Y-75514285D01*
X218509580Y-75514285D02*
X218557200Y-75466666D01*
X218557200Y-75466666D02*
X218604819Y-75371428D01*
X218604819Y-75371428D02*
X218604819Y-75180952D01*
X218604819Y-75180952D02*
X218557200Y-75085714D01*
X218557200Y-75085714D02*
X218509580Y-75038095D01*
X218509580Y-75038095D02*
X218414342Y-74990476D01*
X218414342Y-74990476D02*
X217604819Y-74990476D01*
X218604819Y-73990476D02*
X218604819Y-74561904D01*
X218604819Y-74276190D02*
X217604819Y-74276190D01*
X217604819Y-74276190D02*
X217747676Y-74371428D01*
X217747676Y-74371428D02*
X217842914Y-74466666D01*
X217842914Y-74466666D02*
X217890533Y-74561904D01*
X163214819Y-135832856D02*
X163214819Y-135737618D01*
X163214819Y-135737618D02*
X163262438Y-135642380D01*
X163262438Y-135642380D02*
X163310057Y-135594761D01*
X163310057Y-135594761D02*
X163405295Y-135547142D01*
X163405295Y-135547142D02*
X163595771Y-135499523D01*
X163595771Y-135499523D02*
X163833866Y-135499523D01*
X163833866Y-135499523D02*
X164024342Y-135547142D01*
X164024342Y-135547142D02*
X164119580Y-135594761D01*
X164119580Y-135594761D02*
X164167200Y-135642380D01*
X164167200Y-135642380D02*
X164214819Y-135737618D01*
X164214819Y-135737618D02*
X164214819Y-135832856D01*
X164214819Y-135832856D02*
X164167200Y-135928094D01*
X164167200Y-135928094D02*
X164119580Y-135975713D01*
X164119580Y-135975713D02*
X164024342Y-136023332D01*
X164024342Y-136023332D02*
X163833866Y-136070951D01*
X163833866Y-136070951D02*
X163595771Y-136070951D01*
X163595771Y-136070951D02*
X163405295Y-136023332D01*
X163405295Y-136023332D02*
X163310057Y-135975713D01*
X163310057Y-135975713D02*
X163262438Y-135928094D01*
X163262438Y-135928094D02*
X163214819Y-135832856D01*
X164119580Y-135070951D02*
X164167200Y-135023332D01*
X164167200Y-135023332D02*
X164214819Y-135070951D01*
X164214819Y-135070951D02*
X164167200Y-135118570D01*
X164167200Y-135118570D02*
X164119580Y-135070951D01*
X164119580Y-135070951D02*
X164214819Y-135070951D01*
X164214819Y-134070952D02*
X164214819Y-134642380D01*
X164214819Y-134356666D02*
X163214819Y-134356666D01*
X163214819Y-134356666D02*
X163357676Y-134451904D01*
X163357676Y-134451904D02*
X163452914Y-134547142D01*
X163452914Y-134547142D02*
X163500533Y-134642380D01*
X163548152Y-133213809D02*
X164214819Y-133213809D01*
X163548152Y-133642380D02*
X164071961Y-133642380D01*
X164071961Y-133642380D02*
X164167200Y-133594761D01*
X164167200Y-133594761D02*
X164214819Y-133499523D01*
X164214819Y-133499523D02*
X164214819Y-133356666D01*
X164214819Y-133356666D02*
X164167200Y-133261428D01*
X164167200Y-133261428D02*
X164119580Y-133213809D01*
X163691009Y-132404285D02*
X163691009Y-132737618D01*
X164214819Y-132737618D02*
X163214819Y-132737618D01*
X163214819Y-132737618D02*
X163214819Y-132261428D01*
D11*
X165619530Y-134273333D02*
X165643340Y-134297142D01*
X165643340Y-134297142D02*
X165667149Y-134368571D01*
X165667149Y-134368571D02*
X165667149Y-134416190D01*
X165667149Y-134416190D02*
X165643340Y-134487618D01*
X165643340Y-134487618D02*
X165595720Y-134535237D01*
X165595720Y-134535237D02*
X165548101Y-134559047D01*
X165548101Y-134559047D02*
X165452863Y-134582856D01*
X165452863Y-134582856D02*
X165381435Y-134582856D01*
X165381435Y-134582856D02*
X165286197Y-134559047D01*
X165286197Y-134559047D02*
X165238578Y-134535237D01*
X165238578Y-134535237D02*
X165190959Y-134487618D01*
X165190959Y-134487618D02*
X165167149Y-134416190D01*
X165167149Y-134416190D02*
X165167149Y-134368571D01*
X165167149Y-134368571D02*
X165190959Y-134297142D01*
X165190959Y-134297142D02*
X165214768Y-134273333D01*
X165167149Y-134106666D02*
X165167149Y-133797142D01*
X165167149Y-133797142D02*
X165357625Y-133963809D01*
X165357625Y-133963809D02*
X165357625Y-133892380D01*
X165357625Y-133892380D02*
X165381435Y-133844761D01*
X165381435Y-133844761D02*
X165405244Y-133820952D01*
X165405244Y-133820952D02*
X165452863Y-133797142D01*
X165452863Y-133797142D02*
X165571911Y-133797142D01*
X165571911Y-133797142D02*
X165619530Y-133820952D01*
X165619530Y-133820952D02*
X165643340Y-133844761D01*
X165643340Y-133844761D02*
X165667149Y-133892380D01*
X165667149Y-133892380D02*
X165667149Y-134035237D01*
X165667149Y-134035237D02*
X165643340Y-134082856D01*
X165643340Y-134082856D02*
X165619530Y-134106666D01*
X97459530Y-90163333D02*
X97483340Y-90187142D01*
X97483340Y-90187142D02*
X97507149Y-90258571D01*
X97507149Y-90258571D02*
X97507149Y-90306190D01*
X97507149Y-90306190D02*
X97483340Y-90377618D01*
X97483340Y-90377618D02*
X97435720Y-90425237D01*
X97435720Y-90425237D02*
X97388101Y-90449047D01*
X97388101Y-90449047D02*
X97292863Y-90472856D01*
X97292863Y-90472856D02*
X97221435Y-90472856D01*
X97221435Y-90472856D02*
X97126197Y-90449047D01*
X97126197Y-90449047D02*
X97078578Y-90425237D01*
X97078578Y-90425237D02*
X97030959Y-90377618D01*
X97030959Y-90377618D02*
X97007149Y-90306190D01*
X97007149Y-90306190D02*
X97007149Y-90258571D01*
X97007149Y-90258571D02*
X97030959Y-90187142D01*
X97030959Y-90187142D02*
X97054768Y-90163333D01*
X97007149Y-89996666D02*
X97007149Y-89663333D01*
X97007149Y-89663333D02*
X97507149Y-89877618D01*
D10*
X218800952Y-121344819D02*
X218229524Y-121344819D01*
X218515238Y-121344819D02*
X218515238Y-120344819D01*
X218515238Y-120344819D02*
X218420000Y-120487676D01*
X218420000Y-120487676D02*
X218324762Y-120582914D01*
X218324762Y-120582914D02*
X218229524Y-120630533D01*
X219229524Y-121344819D02*
X219229524Y-120344819D01*
X219324762Y-120963866D02*
X219610476Y-121344819D01*
X219610476Y-120678152D02*
X219229524Y-121059104D01*
D11*
X218836666Y-119467149D02*
X218670000Y-119229054D01*
X218550952Y-119467149D02*
X218550952Y-118967149D01*
X218550952Y-118967149D02*
X218741428Y-118967149D01*
X218741428Y-118967149D02*
X218789047Y-118990959D01*
X218789047Y-118990959D02*
X218812857Y-119014768D01*
X218812857Y-119014768D02*
X218836666Y-119062387D01*
X218836666Y-119062387D02*
X218836666Y-119133816D01*
X218836666Y-119133816D02*
X218812857Y-119181435D01*
X218812857Y-119181435D02*
X218789047Y-119205244D01*
X218789047Y-119205244D02*
X218741428Y-119229054D01*
X218741428Y-119229054D02*
X218550952Y-119229054D01*
X219122381Y-119181435D02*
X219074762Y-119157625D01*
X219074762Y-119157625D02*
X219050952Y-119133816D01*
X219050952Y-119133816D02*
X219027143Y-119086197D01*
X219027143Y-119086197D02*
X219027143Y-119062387D01*
X219027143Y-119062387D02*
X219050952Y-119014768D01*
X219050952Y-119014768D02*
X219074762Y-118990959D01*
X219074762Y-118990959D02*
X219122381Y-118967149D01*
X219122381Y-118967149D02*
X219217619Y-118967149D01*
X219217619Y-118967149D02*
X219265238Y-118990959D01*
X219265238Y-118990959D02*
X219289047Y-119014768D01*
X219289047Y-119014768D02*
X219312857Y-119062387D01*
X219312857Y-119062387D02*
X219312857Y-119086197D01*
X219312857Y-119086197D02*
X219289047Y-119133816D01*
X219289047Y-119133816D02*
X219265238Y-119157625D01*
X219265238Y-119157625D02*
X219217619Y-119181435D01*
X219217619Y-119181435D02*
X219122381Y-119181435D01*
X219122381Y-119181435D02*
X219074762Y-119205244D01*
X219074762Y-119205244D02*
X219050952Y-119229054D01*
X219050952Y-119229054D02*
X219027143Y-119276673D01*
X219027143Y-119276673D02*
X219027143Y-119371911D01*
X219027143Y-119371911D02*
X219050952Y-119419530D01*
X219050952Y-119419530D02*
X219074762Y-119443340D01*
X219074762Y-119443340D02*
X219122381Y-119467149D01*
X219122381Y-119467149D02*
X219217619Y-119467149D01*
X219217619Y-119467149D02*
X219265238Y-119443340D01*
X219265238Y-119443340D02*
X219289047Y-119419530D01*
X219289047Y-119419530D02*
X219312857Y-119371911D01*
X219312857Y-119371911D02*
X219312857Y-119276673D01*
X219312857Y-119276673D02*
X219289047Y-119229054D01*
X219289047Y-119229054D02*
X219265238Y-119205244D01*
X219265238Y-119205244D02*
X219217619Y-119181435D01*
D10*
X215412381Y-131847200D02*
X215555238Y-131894819D01*
X215555238Y-131894819D02*
X215793333Y-131894819D01*
X215793333Y-131894819D02*
X215888571Y-131847200D01*
X215888571Y-131847200D02*
X215936190Y-131799580D01*
X215936190Y-131799580D02*
X215983809Y-131704342D01*
X215983809Y-131704342D02*
X215983809Y-131609104D01*
X215983809Y-131609104D02*
X215936190Y-131513866D01*
X215936190Y-131513866D02*
X215888571Y-131466247D01*
X215888571Y-131466247D02*
X215793333Y-131418628D01*
X215793333Y-131418628D02*
X215602857Y-131371009D01*
X215602857Y-131371009D02*
X215507619Y-131323390D01*
X215507619Y-131323390D02*
X215460000Y-131275771D01*
X215460000Y-131275771D02*
X215412381Y-131180533D01*
X215412381Y-131180533D02*
X215412381Y-131085295D01*
X215412381Y-131085295D02*
X215460000Y-130990057D01*
X215460000Y-130990057D02*
X215507619Y-130942438D01*
X215507619Y-130942438D02*
X215602857Y-130894819D01*
X215602857Y-130894819D02*
X215840952Y-130894819D01*
X215840952Y-130894819D02*
X215983809Y-130942438D01*
X216317143Y-130894819D02*
X216555238Y-131894819D01*
X216555238Y-131894819D02*
X216745714Y-131180533D01*
X216745714Y-131180533D02*
X216936190Y-131894819D01*
X216936190Y-131894819D02*
X217174286Y-130894819D01*
X217317143Y-131990057D02*
X218079047Y-131990057D01*
X218317143Y-131894819D02*
X218317143Y-130894819D01*
X218317143Y-130894819D02*
X218698095Y-130894819D01*
X218698095Y-130894819D02*
X218793333Y-130942438D01*
X218793333Y-130942438D02*
X218840952Y-130990057D01*
X218840952Y-130990057D02*
X218888571Y-131085295D01*
X218888571Y-131085295D02*
X218888571Y-131228152D01*
X218888571Y-131228152D02*
X218840952Y-131323390D01*
X218840952Y-131323390D02*
X218793333Y-131371009D01*
X218793333Y-131371009D02*
X218698095Y-131418628D01*
X218698095Y-131418628D02*
X218317143Y-131418628D01*
X219745714Y-131228152D02*
X219745714Y-131894819D01*
X219317143Y-131228152D02*
X219317143Y-131751961D01*
X219317143Y-131751961D02*
X219364762Y-131847200D01*
X219364762Y-131847200D02*
X219460000Y-131894819D01*
X219460000Y-131894819D02*
X219602857Y-131894819D01*
X219602857Y-131894819D02*
X219698095Y-131847200D01*
X219698095Y-131847200D02*
X219745714Y-131799580D01*
X220174286Y-131847200D02*
X220269524Y-131894819D01*
X220269524Y-131894819D02*
X220460000Y-131894819D01*
X220460000Y-131894819D02*
X220555238Y-131847200D01*
X220555238Y-131847200D02*
X220602857Y-131751961D01*
X220602857Y-131751961D02*
X220602857Y-131704342D01*
X220602857Y-131704342D02*
X220555238Y-131609104D01*
X220555238Y-131609104D02*
X220460000Y-131561485D01*
X220460000Y-131561485D02*
X220317143Y-131561485D01*
X220317143Y-131561485D02*
X220221905Y-131513866D01*
X220221905Y-131513866D02*
X220174286Y-131418628D01*
X220174286Y-131418628D02*
X220174286Y-131371009D01*
X220174286Y-131371009D02*
X220221905Y-131275771D01*
X220221905Y-131275771D02*
X220317143Y-131228152D01*
X220317143Y-131228152D02*
X220460000Y-131228152D01*
X220460000Y-131228152D02*
X220555238Y-131275771D01*
X221031429Y-131894819D02*
X221031429Y-130894819D01*
X221460000Y-131894819D02*
X221460000Y-131371009D01*
X221460000Y-131371009D02*
X221412381Y-131275771D01*
X221412381Y-131275771D02*
X221317143Y-131228152D01*
X221317143Y-131228152D02*
X221174286Y-131228152D01*
X221174286Y-131228152D02*
X221079048Y-131275771D01*
X221079048Y-131275771D02*
X221031429Y-131323390D01*
X217126667Y-125447200D02*
X217269524Y-125494819D01*
X217269524Y-125494819D02*
X217507619Y-125494819D01*
X217507619Y-125494819D02*
X217602857Y-125447200D01*
X217602857Y-125447200D02*
X217650476Y-125399580D01*
X217650476Y-125399580D02*
X217698095Y-125304342D01*
X217698095Y-125304342D02*
X217698095Y-125209104D01*
X217698095Y-125209104D02*
X217650476Y-125113866D01*
X217650476Y-125113866D02*
X217602857Y-125066247D01*
X217602857Y-125066247D02*
X217507619Y-125018628D01*
X217507619Y-125018628D02*
X217317143Y-124971009D01*
X217317143Y-124971009D02*
X217221905Y-124923390D01*
X217221905Y-124923390D02*
X217174286Y-124875771D01*
X217174286Y-124875771D02*
X217126667Y-124780533D01*
X217126667Y-124780533D02*
X217126667Y-124685295D01*
X217126667Y-124685295D02*
X217174286Y-124590057D01*
X217174286Y-124590057D02*
X217221905Y-124542438D01*
X217221905Y-124542438D02*
X217317143Y-124494819D01*
X217317143Y-124494819D02*
X217555238Y-124494819D01*
X217555238Y-124494819D02*
X217698095Y-124542438D01*
X218031429Y-124494819D02*
X218269524Y-125494819D01*
X218269524Y-125494819D02*
X218460000Y-124780533D01*
X218460000Y-124780533D02*
X218650476Y-125494819D01*
X218650476Y-125494819D02*
X218888572Y-124494819D01*
X219698095Y-124494819D02*
X219507619Y-124494819D01*
X219507619Y-124494819D02*
X219412381Y-124542438D01*
X219412381Y-124542438D02*
X219364762Y-124590057D01*
X219364762Y-124590057D02*
X219269524Y-124732914D01*
X219269524Y-124732914D02*
X219221905Y-124923390D01*
X219221905Y-124923390D02*
X219221905Y-125304342D01*
X219221905Y-125304342D02*
X219269524Y-125399580D01*
X219269524Y-125399580D02*
X219317143Y-125447200D01*
X219317143Y-125447200D02*
X219412381Y-125494819D01*
X219412381Y-125494819D02*
X219602857Y-125494819D01*
X219602857Y-125494819D02*
X219698095Y-125447200D01*
X219698095Y-125447200D02*
X219745714Y-125399580D01*
X219745714Y-125399580D02*
X219793333Y-125304342D01*
X219793333Y-125304342D02*
X219793333Y-125066247D01*
X219793333Y-125066247D02*
X219745714Y-124971009D01*
X219745714Y-124971009D02*
X219698095Y-124923390D01*
X219698095Y-124923390D02*
X219602857Y-124875771D01*
X219602857Y-124875771D02*
X219412381Y-124875771D01*
X219412381Y-124875771D02*
X219317143Y-124923390D01*
X219317143Y-124923390D02*
X219269524Y-124971009D01*
X219269524Y-124971009D02*
X219221905Y-125066247D01*
X199194819Y-135832856D02*
X199194819Y-135737618D01*
X199194819Y-135737618D02*
X199242438Y-135642380D01*
X199242438Y-135642380D02*
X199290057Y-135594761D01*
X199290057Y-135594761D02*
X199385295Y-135547142D01*
X199385295Y-135547142D02*
X199575771Y-135499523D01*
X199575771Y-135499523D02*
X199813866Y-135499523D01*
X199813866Y-135499523D02*
X200004342Y-135547142D01*
X200004342Y-135547142D02*
X200099580Y-135594761D01*
X200099580Y-135594761D02*
X200147200Y-135642380D01*
X200147200Y-135642380D02*
X200194819Y-135737618D01*
X200194819Y-135737618D02*
X200194819Y-135832856D01*
X200194819Y-135832856D02*
X200147200Y-135928094D01*
X200147200Y-135928094D02*
X200099580Y-135975713D01*
X200099580Y-135975713D02*
X200004342Y-136023332D01*
X200004342Y-136023332D02*
X199813866Y-136070951D01*
X199813866Y-136070951D02*
X199575771Y-136070951D01*
X199575771Y-136070951D02*
X199385295Y-136023332D01*
X199385295Y-136023332D02*
X199290057Y-135975713D01*
X199290057Y-135975713D02*
X199242438Y-135928094D01*
X199242438Y-135928094D02*
X199194819Y-135832856D01*
X200099580Y-135070951D02*
X200147200Y-135023332D01*
X200147200Y-135023332D02*
X200194819Y-135070951D01*
X200194819Y-135070951D02*
X200147200Y-135118570D01*
X200147200Y-135118570D02*
X200099580Y-135070951D01*
X200099580Y-135070951D02*
X200194819Y-135070951D01*
X200194819Y-134070952D02*
X200194819Y-134642380D01*
X200194819Y-134356666D02*
X199194819Y-134356666D01*
X199194819Y-134356666D02*
X199337676Y-134451904D01*
X199337676Y-134451904D02*
X199432914Y-134547142D01*
X199432914Y-134547142D02*
X199480533Y-134642380D01*
X199528152Y-133213809D02*
X200194819Y-133213809D01*
X199528152Y-133642380D02*
X200051961Y-133642380D01*
X200051961Y-133642380D02*
X200147200Y-133594761D01*
X200147200Y-133594761D02*
X200194819Y-133499523D01*
X200194819Y-133499523D02*
X200194819Y-133356666D01*
X200194819Y-133356666D02*
X200147200Y-133261428D01*
X200147200Y-133261428D02*
X200099580Y-133213809D01*
X199671009Y-132404285D02*
X199671009Y-132737618D01*
X200194819Y-132737618D02*
X199194819Y-132737618D01*
X199194819Y-132737618D02*
X199194819Y-132261428D01*
D11*
X201599530Y-134273333D02*
X201623340Y-134297142D01*
X201623340Y-134297142D02*
X201647149Y-134368571D01*
X201647149Y-134368571D02*
X201647149Y-134416190D01*
X201647149Y-134416190D02*
X201623340Y-134487618D01*
X201623340Y-134487618D02*
X201575720Y-134535237D01*
X201575720Y-134535237D02*
X201528101Y-134559047D01*
X201528101Y-134559047D02*
X201432863Y-134582856D01*
X201432863Y-134582856D02*
X201361435Y-134582856D01*
X201361435Y-134582856D02*
X201266197Y-134559047D01*
X201266197Y-134559047D02*
X201218578Y-134535237D01*
X201218578Y-134535237D02*
X201170959Y-134487618D01*
X201170959Y-134487618D02*
X201147149Y-134416190D01*
X201147149Y-134416190D02*
X201147149Y-134368571D01*
X201147149Y-134368571D02*
X201170959Y-134297142D01*
X201170959Y-134297142D02*
X201194768Y-134273333D01*
X201147149Y-133820952D02*
X201147149Y-134059047D01*
X201147149Y-134059047D02*
X201385244Y-134082856D01*
X201385244Y-134082856D02*
X201361435Y-134059047D01*
X201361435Y-134059047D02*
X201337625Y-134011428D01*
X201337625Y-134011428D02*
X201337625Y-133892380D01*
X201337625Y-133892380D02*
X201361435Y-133844761D01*
X201361435Y-133844761D02*
X201385244Y-133820952D01*
X201385244Y-133820952D02*
X201432863Y-133797142D01*
X201432863Y-133797142D02*
X201551911Y-133797142D01*
X201551911Y-133797142D02*
X201599530Y-133820952D01*
X201599530Y-133820952D02*
X201623340Y-133844761D01*
X201623340Y-133844761D02*
X201647149Y-133892380D01*
X201647149Y-133892380D02*
X201647149Y-134011428D01*
X201647149Y-134011428D02*
X201623340Y-134059047D01*
X201623340Y-134059047D02*
X201599530Y-134082856D01*
D13*
%TO.C,D1*%
X117117500Y-65590000D02*
X119722500Y-65590000D01*
X117117500Y-69890000D02*
X117117500Y-65590000D01*
X119722500Y-65590000D02*
X119722500Y-69890000D01*
X119722500Y-69890000D02*
X117117500Y-69890000D01*
D14*
X118520000Y-72040000D02*
G75*
G02*
X118320000Y-72040000I-100000J0D01*
G01*
X118320000Y-72040000D02*
G75*
G02*
X118520000Y-72040000I100000J0D01*
G01*
D15*
%TO.C,U2*%
X154110000Y-51740000D02*
X155380000Y-50470000D01*
X154110000Y-98730000D02*
X154110000Y-51740000D01*
X155380000Y-50470000D02*
X159190000Y-50470000D01*
X159190000Y-50470000D02*
X159190000Y-98730000D01*
X159190000Y-98730000D02*
X154110000Y-98730000D01*
%TO.C,C11*%
X72470000Y-96115000D02*
X74470000Y-96115000D01*
X72470000Y-97365000D02*
X72470000Y-96115000D01*
X74470000Y-96115000D02*
X74470000Y-97365000D01*
X74470000Y-97365000D02*
X72470000Y-97365000D01*
%TO.C,U4*%
X100720000Y-79840000D02*
X100720000Y-84240000D01*
X100720000Y-84240000D02*
X110720000Y-84240000D01*
X102320000Y-79840000D02*
X102320000Y-76040000D01*
X103870000Y-84240000D02*
X103870000Y-82970000D01*
X104020000Y-79840000D02*
X104020000Y-79740000D01*
X105720000Y-79840000D02*
X105720000Y-76040000D01*
X107420000Y-79840000D02*
X107420000Y-79740000D01*
X107570000Y-84240000D02*
X107570000Y-82970000D01*
X109120000Y-79840000D02*
X109120000Y-76040000D01*
X110720000Y-79840000D02*
X100720000Y-79840000D01*
X110720000Y-82970000D02*
X100720000Y-82970000D01*
X110720000Y-84240000D02*
X110720000Y-79840000D01*
%TO.C,C2*%
X150295000Y-133190000D02*
X151545000Y-133190000D01*
X150295000Y-135190000D02*
X150295000Y-133190000D01*
X151545000Y-133190000D02*
X151545000Y-135190000D01*
X151545000Y-135190000D02*
X150295000Y-135190000D01*
%TO.C,J2*%
X83420000Y-51240000D02*
X93920000Y-51240000D01*
X83420000Y-54740000D02*
X93920000Y-54740000D01*
X83420000Y-55740000D02*
X93920000Y-55740000D01*
X83420000Y-57040000D02*
X93920000Y-57040000D01*
X83420000Y-57090000D02*
X83420000Y-51240000D01*
X85370000Y-59040000D02*
X83420000Y-57090000D01*
X87438000Y-54027000D02*
X85206000Y-56258000D01*
X87633000Y-54222000D02*
X85402000Y-56453000D01*
X92438000Y-54027000D02*
X90206000Y-56258000D01*
X92633000Y-54222000D02*
X90402000Y-56453000D01*
X93920000Y-51240000D02*
X93920000Y-59040000D01*
X93920000Y-59040000D02*
X85370000Y-59040000D01*
X88020000Y-55240000D02*
G75*
G02*
X84820000Y-55240000I-1600000J0D01*
G01*
X84820000Y-55240000D02*
G75*
G02*
X88020000Y-55240000I1600000J0D01*
G01*
X93020000Y-55240000D02*
G75*
G02*
X89820000Y-55240000I-1600000J0D01*
G01*
X89820000Y-55240000D02*
G75*
G02*
X93020000Y-55240000I1600000J0D01*
G01*
%TO.C,R6*%
X87920000Y-109615000D02*
X89920000Y-109615000D01*
X87920000Y-110865000D02*
X87920000Y-109615000D01*
X89920000Y-109615000D02*
X89920000Y-110865000D01*
X89920000Y-110865000D02*
X87920000Y-110865000D01*
%TO.C,R2*%
X149420000Y-119115000D02*
X151420000Y-119115000D01*
X149420000Y-120365000D02*
X149420000Y-119115000D01*
X151420000Y-119115000D02*
X151420000Y-120365000D01*
X151420000Y-120365000D02*
X149420000Y-120365000D01*
%TO.C,U5*%
X102660000Y-128420000D02*
X112185000Y-128420000D01*
X102660000Y-130960000D02*
X102660000Y-128420000D01*
X112185000Y-128420000D02*
X112820000Y-129055000D01*
X112820000Y-129055000D02*
X112820000Y-130960000D01*
X112820000Y-130960000D02*
X102660000Y-130960000D01*
D13*
%TO.C,L1*%
X117770000Y-74090000D02*
X128070000Y-74090000D01*
X117770000Y-84390000D02*
X117770000Y-74090000D01*
X128070000Y-74090000D02*
X128070000Y-84390000D01*
X128070000Y-84390000D02*
X117770000Y-84390000D01*
D15*
%TO.C,SW4*%
X179420000Y-124090000D02*
X185420000Y-124090000D01*
X179420000Y-130390000D02*
X179420000Y-124090000D01*
X185420000Y-124090000D02*
X185420000Y-130390000D01*
X185420000Y-130390000D02*
X179420000Y-130390000D01*
X183920000Y-127240000D02*
G75*
G02*
X180920000Y-127240000I-1500000J0D01*
G01*
X180920000Y-127240000D02*
G75*
G02*
X183920000Y-127240000I1500000J0D01*
G01*
%TO.C,Y2*%
X77170000Y-90740000D02*
X77270000Y-90640000D01*
X77170000Y-93740000D02*
X77170000Y-90740000D01*
X77270000Y-90640000D02*
X78570000Y-90640000D01*
X77270000Y-93840000D02*
X77170000Y-93740000D01*
X78170000Y-93840000D02*
X78670000Y-93340000D01*
X78570000Y-90640000D02*
X78670000Y-90740000D01*
X78570000Y-93840000D02*
X77270000Y-93840000D01*
X78670000Y-90740000D02*
X78670000Y-93740000D01*
X78670000Y-93740000D02*
X78570000Y-93840000D01*
%TO.C,R7*%
X87295000Y-98240000D02*
X88545000Y-98240000D01*
X87295000Y-100240000D02*
X87295000Y-98240000D01*
X88545000Y-98240000D02*
X88545000Y-100240000D01*
X88545000Y-100240000D02*
X87295000Y-100240000D01*
%TO.C,SW1*%
X130940000Y-124090000D02*
X136940000Y-124090000D01*
X130940000Y-130390000D02*
X130940000Y-124090000D01*
X136940000Y-124090000D02*
X136940000Y-130390000D01*
X136940000Y-130390000D02*
X130940000Y-130390000D01*
X135440000Y-127240000D02*
G75*
G02*
X132440000Y-127240000I-1500000J0D01*
G01*
X132440000Y-127240000D02*
G75*
G02*
X135440000Y-127240000I1500000J0D01*
G01*
%TO.C,SW3*%
X162610000Y-124040000D02*
X168610000Y-124040000D01*
X162610000Y-130340000D02*
X162610000Y-124040000D01*
X168610000Y-124040000D02*
X168610000Y-130340000D01*
X168610000Y-130340000D02*
X162610000Y-130340000D01*
X167110000Y-127190000D02*
G75*
G02*
X164110000Y-127190000I-1500000J0D01*
G01*
X164110000Y-127190000D02*
G75*
G02*
X167110000Y-127190000I1500000J0D01*
G01*
%TO.C,C8*%
X102770000Y-61490000D02*
X102770000Y-69990000D01*
X102770000Y-61490000D02*
X103770000Y-60490000D01*
X102770000Y-69990000D02*
X103770000Y-70990000D01*
X103461675Y-64040000D02*
X104461675Y-64040000D01*
X103770000Y-60490000D02*
X113270000Y-60490000D01*
X103770000Y-70990000D02*
X113270000Y-70990000D01*
X103961675Y-63540000D02*
X103961675Y-64540000D01*
X113270000Y-60490000D02*
X113270000Y-70990000D01*
X113020000Y-65740000D02*
G75*
G02*
X103020000Y-65740000I-5000000J0D01*
G01*
X103020000Y-65740000D02*
G75*
G02*
X113020000Y-65740000I5000000J0D01*
G01*
%TO.C,R4*%
X180420000Y-119115000D02*
X182420000Y-119115000D01*
X180420000Y-120365000D02*
X180420000Y-119115000D01*
X182420000Y-119115000D02*
X182420000Y-120365000D01*
X182420000Y-120365000D02*
X180420000Y-120365000D01*
%TO.C,BT1*%
X70062000Y-130884100D02*
X67546600Y-133590000D01*
X74020000Y-106740000D02*
X74020000Y-109190000D01*
X75620000Y-108240000D02*
X75620000Y-124440000D01*
X78220000Y-108240000D02*
X75620000Y-108240000D01*
X78220000Y-124440000D02*
X78220000Y-108240000D01*
X79420000Y-106340000D02*
X74420000Y-106340000D01*
X79820000Y-109190000D02*
X79820000Y-106740000D01*
X83778000Y-130896800D02*
X86348800Y-133581900D01*
X74020000Y-106740000D02*
G75*
G02*
X74420000Y-106340000I399999J1D01*
G01*
X74020000Y-109190000D02*
G75*
G02*
X73419999Y-110039998I-902080J0D01*
G01*
X76920000Y-129770000D02*
G75*
G02*
X75620000Y-117240000I-2573J6332171D01*
G01*
X76920000Y-137289508D02*
G75*
G02*
X73420000Y-110040000I-4J13849528D01*
G01*
X77095833Y-125735448D02*
G75*
G02*
X75620000Y-121540000I-175833J2295448D01*
G01*
X78220000Y-113420000D02*
G75*
G02*
X75620000Y-133460000I-1300000J-10020000D01*
G01*
X78220000Y-117240000D02*
G75*
G02*
X76920000Y-129770000I-1297426J-6197829D01*
G01*
X78220000Y-121540000D02*
G75*
G02*
X76744167Y-125735448I-1300000J-1900000D01*
G01*
X78220000Y-124440000D02*
G75*
G02*
X75620000Y-124440000I-1300000J0D01*
G01*
X78220000Y-133460000D02*
G75*
G02*
X75620000Y-113420000I-1300000J10020000D01*
G01*
X79420000Y-106340000D02*
G75*
G02*
X79820000Y-106740000I1J-399999D01*
G01*
X80420000Y-110040000D02*
G75*
G02*
X76920000Y-137289508I-3499995J-13399980D01*
G01*
X80420000Y-110040000D02*
G75*
G02*
X79819998Y-109190000I302080J850000D01*
G01*
%TO.C,U3*%
X80470000Y-98515000D02*
X81445000Y-97540000D01*
X80470000Y-102440000D02*
X80470000Y-98515000D01*
X81445000Y-97540000D02*
X84370000Y-97540000D01*
X84370000Y-97540000D02*
X84370000Y-102440000D01*
X84370000Y-102440000D02*
X80470000Y-102440000D01*
%TO.C,R1*%
X133420000Y-119115000D02*
X135420000Y-119115000D01*
X133420000Y-120365000D02*
X133420000Y-119115000D01*
X135420000Y-119115000D02*
X135420000Y-120365000D01*
X135420000Y-120365000D02*
X133420000Y-120365000D01*
%TO.C,SW2*%
X147460000Y-124090000D02*
X153460000Y-124090000D01*
X147460000Y-130390000D02*
X147460000Y-124090000D01*
X153460000Y-124090000D02*
X153460000Y-130390000D01*
X153460000Y-130390000D02*
X147460000Y-130390000D01*
X151960000Y-127240000D02*
G75*
G02*
X148960000Y-127240000I-1500000J0D01*
G01*
X148960000Y-127240000D02*
G75*
G02*
X151960000Y-127240000I1500000J0D01*
G01*
%TO.C,C10*%
X72420000Y-90115000D02*
X74420000Y-90115000D01*
X72420000Y-91365000D02*
X72420000Y-90115000D01*
X74420000Y-90115000D02*
X74420000Y-91365000D01*
X74420000Y-91365000D02*
X72420000Y-91365000D01*
%TO.C,SW5*%
X197920000Y-124090000D02*
X203920000Y-124090000D01*
X197920000Y-130390000D02*
X197920000Y-124090000D01*
X203920000Y-124090000D02*
X203920000Y-130390000D01*
X203920000Y-130390000D02*
X197920000Y-130390000D01*
X202420000Y-127240000D02*
G75*
G02*
X199420000Y-127240000I-1500000J0D01*
G01*
X199420000Y-127240000D02*
G75*
G02*
X202420000Y-127240000I1500000J0D01*
G01*
%TO.C,C9*%
X125770000Y-87090000D02*
X125770000Y-93390000D01*
X125770000Y-93390000D02*
X126770000Y-94390000D01*
X126770000Y-94390000D02*
X130070000Y-94390000D01*
X130070000Y-87090000D02*
X125770000Y-87090000D01*
X130070000Y-94390000D02*
X130070000Y-87090000D01*
%TO.C,C4*%
X181815000Y-133190000D02*
X183065000Y-133190000D01*
X181815000Y-135190000D02*
X181815000Y-133190000D01*
X183065000Y-133190000D02*
X183065000Y-135190000D01*
X183065000Y-135190000D02*
X181815000Y-135190000D01*
%TO.C,R5*%
X199670000Y-118865000D02*
X201670000Y-118865000D01*
X199670000Y-120115000D02*
X199670000Y-118865000D01*
X201670000Y-118865000D02*
X201670000Y-120115000D01*
X201670000Y-120115000D02*
X199670000Y-120115000D01*
%TO.C,C1*%
X133295000Y-133190000D02*
X134545000Y-133190000D01*
X133295000Y-135190000D02*
X133295000Y-133190000D01*
X134545000Y-133190000D02*
X134545000Y-135190000D01*
X134545000Y-135190000D02*
X133295000Y-135190000D01*
%TO.C,J1*%
X140420000Y-50440000D02*
X148970000Y-50440000D01*
X140420000Y-58240000D02*
X140420000Y-50440000D01*
X141707000Y-55258000D02*
X143938000Y-53027000D01*
X141902000Y-55453000D02*
X144134000Y-53222000D01*
X146707000Y-55258000D02*
X148938000Y-53027000D01*
X146902000Y-55453000D02*
X149134000Y-53222000D01*
X148970000Y-50440000D02*
X150920000Y-52390000D01*
X150920000Y-52390000D02*
X150920000Y-58240000D01*
X150920000Y-52440000D02*
X140420000Y-52440000D01*
X150920000Y-53740000D02*
X140420000Y-53740000D01*
X150920000Y-54740000D02*
X140420000Y-54740000D01*
X150920000Y-58240000D02*
X140420000Y-58240000D01*
X144520000Y-54240000D02*
G75*
G02*
X141320000Y-54240000I-1600000J0D01*
G01*
X141320000Y-54240000D02*
G75*
G02*
X144520000Y-54240000I1600000J0D01*
G01*
X149520000Y-54240000D02*
G75*
G02*
X146320000Y-54240000I-1600000J0D01*
G01*
X146320000Y-54240000D02*
G75*
G02*
X149520000Y-54240000I1600000J0D01*
G01*
%TO.C,C6*%
X218295000Y-133190000D02*
X219545000Y-133190000D01*
X218295000Y-135190000D02*
X218295000Y-133190000D01*
X219545000Y-133190000D02*
X219545000Y-135190000D01*
X219545000Y-135190000D02*
X218295000Y-135190000D01*
%TO.C,R3*%
X164420000Y-119015000D02*
X166420000Y-119015000D01*
X164420000Y-120265000D02*
X164420000Y-119015000D01*
X166420000Y-119015000D02*
X166420000Y-120265000D01*
X166420000Y-120265000D02*
X164420000Y-120265000D01*
%TO.C,U1*%
X215610000Y-51940000D02*
X216880000Y-50670000D01*
X215610000Y-98930000D02*
X215610000Y-51940000D01*
X216880000Y-50670000D02*
X220690000Y-50670000D01*
X220690000Y-50670000D02*
X220690000Y-98930000D01*
X220690000Y-98930000D02*
X215610000Y-98930000D01*
%TO.C,C3*%
X164815000Y-133190000D02*
X166065000Y-133190000D01*
X164815000Y-135190000D02*
X164815000Y-133190000D01*
X166065000Y-133190000D02*
X166065000Y-135190000D01*
X166065000Y-135190000D02*
X164815000Y-135190000D01*
%TO.C,C7*%
X97905000Y-91080000D02*
X96655000Y-91080000D01*
X97905000Y-89080000D02*
X97905000Y-91080000D01*
X96655000Y-91080000D02*
X96655000Y-89080000D01*
X96655000Y-89080000D02*
X97905000Y-89080000D01*
%TO.C,R8*%
X217920000Y-118615000D02*
X219920000Y-118615000D01*
X217920000Y-119865000D02*
X217920000Y-118615000D01*
X219920000Y-118615000D02*
X219920000Y-119865000D01*
X219920000Y-119865000D02*
X217920000Y-119865000D01*
%TO.C,SW6*%
X215460000Y-124090000D02*
X221460000Y-124090000D01*
X215460000Y-130390000D02*
X215460000Y-124090000D01*
X221460000Y-124090000D02*
X221460000Y-130390000D01*
X221460000Y-130390000D02*
X215460000Y-130390000D01*
X219960000Y-127240000D02*
G75*
G02*
X216960000Y-127240000I-1500000J0D01*
G01*
X216960000Y-127240000D02*
G75*
G02*
X219960000Y-127240000I1500000J0D01*
G01*
%TO.C,C5*%
X200795000Y-133190000D02*
X202045000Y-133190000D01*
X200795000Y-135190000D02*
X200795000Y-133190000D01*
X202045000Y-133190000D02*
X202045000Y-135190000D01*
X202045000Y-135190000D02*
X200795000Y-135190000D01*
%TD*%
M02*
