%TF.GenerationSoftware,KiCad,Pcbnew,9.0.1*%
%TF.CreationDate,2025-05-21T15:05:29-07:00*%
%TF.ProjectId,pcb,7063622e-6b69-4636-9164-5f7063625858,Rev 1 first mill*%
%TF.SameCoordinates,Original*%
%TF.FileFunction,Paste,Top*%
%TF.FilePolarity,Positive*%
%FSLAX46Y46*%
G04 Gerber Fmt 4.6, Leading zero omitted, Abs format (unit mm)*
G04 Created by KiCad (PCBNEW 9.0.1) date 2025-05-21 15:05:29*
%MOMM*%
%LPD*%
G01*
G04 APERTURE LIST*
G04 Aperture macros list*
%AMRoundRect*
0 Rectangle with rounded corners*
0 $1 Rounding radius*
0 $2 $3 $4 $5 $6 $7 $8 $9 X,Y pos of 4 corners*
0 Add a 4 corners polygon primitive as box body*
4,1,4,$2,$3,$4,$5,$6,$7,$8,$9,$2,$3,0*
0 Add four circle primitives for the rounded corners*
1,1,$1+$1,$2,$3*
1,1,$1+$1,$4,$5*
1,1,$1+$1,$6,$7*
1,1,$1+$1,$8,$9*
0 Add four rect primitives between the rounded corners*
20,1,$1+$1,$2,$3,$4,$5,0*
20,1,$1+$1,$4,$5,$6,$7,0*
20,1,$1+$1,$6,$7,$8,$9,0*
20,1,$1+$1,$8,$9,$2,$3,0*%
G04 Aperture macros list end*
%ADD10RoundRect,0.193750X0.581250X-0.971250X0.581250X0.971250X-0.581250X0.971250X-0.581250X-0.971250X0*%
%ADD11RoundRect,0.250000X0.250000X0.475000X-0.250000X0.475000X-0.250000X-0.475000X0.250000X-0.475000X0*%
%ADD12RoundRect,0.250000X-0.475000X0.250000X-0.475000X-0.250000X0.475000X-0.250000X0.475000X0.250000X0*%
%ADD13RoundRect,0.250000X-0.350000X-0.450000X0.350000X-0.450000X0.350000X0.450000X-0.350000X0.450000X0*%
%ADD14R,4.100000X3.500000*%
%ADD15R,3.800000X1.450000*%
%ADD16R,3.800000X1.400000*%
%ADD17R,1.800000X1.000000*%
%ADD18RoundRect,0.250000X-0.450000X0.350000X-0.450000X-0.350000X0.450000X-0.350000X0.450000X0.350000X0*%
%ADD19R,3.000000X1.400000*%
%ADD20R,3.500000X1.450000*%
%ADD21R,3.300000X1.450000*%
%ADD22R,3.300000X1.400000*%
%ADD23RoundRect,0.250000X-1.950000X-1.000000X1.950000X-1.000000X1.950000X1.000000X-1.950000X1.000000X0*%
%ADD24RoundRect,0.150000X-0.825000X-0.150000X0.825000X-0.150000X0.825000X0.150000X-0.825000X0.150000X0*%
%ADD25RoundRect,0.250001X1.044999X-0.872499X1.044999X0.872499X-1.044999X0.872499X-1.044999X-0.872499X0*%
%ADD26RoundRect,0.250000X0.475000X-0.250000X0.475000X0.250000X-0.475000X0.250000X-0.475000X-0.250000X0*%
G04 APERTURE END LIST*
D10*
%TO.C,D1*%
X118420000Y-69875000D03*
X118420000Y-65605000D03*
%TD*%
D11*
%TO.C,C11*%
X74420000Y-96740000D03*
X72520000Y-96740000D03*
%TD*%
D12*
%TO.C,C2*%
X150920000Y-133240000D03*
X150920000Y-135140000D03*
%TD*%
D13*
%TO.C,R6*%
X87920000Y-110240000D03*
X89920000Y-110240000D03*
%TD*%
%TO.C,R2*%
X149420000Y-119740000D03*
X151420000Y-119740000D03*
%TD*%
D14*
%TO.C,L1*%
X118170000Y-79240000D03*
X127670000Y-79240000D03*
%TD*%
D15*
%TO.C,SW4*%
X177320000Y-124965000D03*
D16*
X187520000Y-124990000D03*
D15*
X177320000Y-129465000D03*
X187520000Y-129465000D03*
%TD*%
D17*
%TO.C,Y2*%
X77920000Y-93490000D03*
X77920000Y-90990000D03*
%TD*%
D18*
%TO.C,R7*%
X87920000Y-98240000D03*
X87920000Y-100240000D03*
%TD*%
D16*
%TO.C,SW1*%
X128840000Y-124990000D03*
X139040000Y-124990000D03*
D15*
X128840000Y-129465000D03*
X139040000Y-129465000D03*
%TD*%
D19*
%TO.C,SW3*%
X160610000Y-124940000D03*
D20*
X170860000Y-124965000D03*
D21*
X160760000Y-129415000D03*
D22*
X170460000Y-129440000D03*
%TD*%
D23*
%TO.C,C8*%
X103820000Y-65740000D03*
X112220000Y-65740000D03*
%TD*%
D13*
%TO.C,R4*%
X180420000Y-119740000D03*
X182420000Y-119740000D03*
%TD*%
D24*
%TO.C,U3*%
X79945000Y-98085000D03*
X79945000Y-99355000D03*
X79945000Y-100625000D03*
X79945000Y-101895000D03*
X84895000Y-101895000D03*
X84895000Y-100625000D03*
X84895000Y-99355000D03*
X84895000Y-98085000D03*
%TD*%
D13*
%TO.C,R1*%
X133420000Y-119740000D03*
X135420000Y-119740000D03*
%TD*%
D16*
%TO.C,SW2*%
X145360000Y-124990000D03*
D21*
X155310000Y-124965000D03*
D15*
X145360000Y-129465000D03*
D21*
X155310000Y-129465000D03*
%TD*%
D11*
%TO.C,C10*%
X74370000Y-90740000D03*
X72470000Y-90740000D03*
%TD*%
D16*
%TO.C,SW5*%
X195820000Y-124990000D03*
X206020000Y-124990000D03*
D15*
X195820000Y-129465000D03*
X206020000Y-129465000D03*
%TD*%
D25*
%TO.C,C9*%
X127920000Y-93947500D03*
X127920000Y-87532500D03*
%TD*%
D12*
%TO.C,C4*%
X182440000Y-133240000D03*
X182440000Y-135140000D03*
%TD*%
D13*
%TO.C,R5*%
X199670000Y-119490000D03*
X201670000Y-119490000D03*
%TD*%
D12*
%TO.C,C1*%
X133920000Y-133240000D03*
X133920000Y-135140000D03*
%TD*%
%TO.C,C6*%
X218920000Y-133240000D03*
X218920000Y-135140000D03*
%TD*%
D13*
%TO.C,R3*%
X164420000Y-119640000D03*
X166420000Y-119640000D03*
%TD*%
D12*
%TO.C,C3*%
X165440000Y-133240000D03*
X165440000Y-135140000D03*
%TD*%
D26*
%TO.C,C7*%
X97280000Y-91030000D03*
X97280000Y-89130000D03*
%TD*%
D13*
%TO.C,R8*%
X217920000Y-119240000D03*
X219920000Y-119240000D03*
%TD*%
D15*
%TO.C,SW6*%
X213360000Y-124965000D03*
D16*
X223560000Y-124990000D03*
D15*
X213360000Y-129465000D03*
D16*
X223560000Y-129490000D03*
%TD*%
D12*
%TO.C,C5*%
X201420000Y-133240000D03*
X201420000Y-135140000D03*
%TD*%
M02*
