%TF.GenerationSoftware,KiCad,Pcbnew,9.0.1*%
%TF.CreationDate,2025-05-21T15:04:39-07:00*%
%TF.ProjectId,pcb,7063622e-6b69-4636-9164-5f7063625858,Rev 1 first mill*%
%TF.SameCoordinates,Original*%
%TF.FileFunction,Soldermask,Bot*%
%TF.FilePolarity,Negative*%
%FSLAX46Y46*%
G04 Gerber Fmt 4.6, Leading zero omitted, Abs format (unit mm)*
G04 Created by KiCad (PCBNEW 9.0.1) date 2025-05-21 15:04:39*
%MOMM*%
%LPD*%
G01*
G04 APERTURE LIST*
G04 Aperture macros list*
%AMRoundRect*
0 Rectangle with rounded corners*
0 $1 Rounding radius*
0 $2 $3 $4 $5 $6 $7 $8 $9 X,Y pos of 4 corners*
0 Add a 4 corners polygon primitive as box body*
4,1,4,$2,$3,$4,$5,$6,$7,$8,$9,$2,$3,0*
0 Add four circle primitives for the rounded corners*
1,1,$1+$1,$2,$3*
1,1,$1+$1,$4,$5*
1,1,$1+$1,$6,$7*
1,1,$1+$1,$8,$9*
0 Add four rect primitives between the rounded corners*
20,1,$1+$1,$2,$3,$4,$5,0*
20,1,$1+$1,$4,$5,$6,$7,0*
20,1,$1+$1,$6,$7,$8,$9,0*
20,1,$1+$1,$8,$9,$2,$3,0*%
G04 Aperture macros list end*
%ADD10R,1.700000X1.700000*%
%ADD11C,1.700000*%
%ADD12R,1.800000X1.800000*%
%ADD13C,1.800000*%
%ADD14RoundRect,0.250001X-1.149999X-1.149999X1.149999X-1.149999X1.149999X1.149999X-1.149999X1.149999X0*%
%ADD15C,2.800000*%
%ADD16R,3.000000X3.000000*%
%ADD17C,3.000000*%
%ADD18C,1.524000*%
%ADD19RoundRect,0.250001X1.149999X1.149999X-1.149999X1.149999X-1.149999X-1.149999X1.149999X-1.149999X0*%
G04 APERTURE END LIST*
D10*
%TO.C,U2*%
X155380000Y-51740000D03*
D11*
X157920000Y-51740000D03*
X155380000Y-54280000D03*
X157920000Y-54280000D03*
X155380000Y-56820000D03*
X157920000Y-56820000D03*
X155380000Y-59360000D03*
X157920000Y-59360000D03*
X155380000Y-61900000D03*
X157920000Y-61900000D03*
X155380000Y-64440000D03*
X157920000Y-64440000D03*
X155380000Y-66980000D03*
X157920000Y-66980000D03*
X155380000Y-69520000D03*
X157920000Y-69520000D03*
X155380000Y-72060000D03*
X157920000Y-72060000D03*
X155380000Y-74600000D03*
X157920000Y-74600000D03*
X155380000Y-77140000D03*
X157920000Y-77140000D03*
X155380000Y-79680000D03*
X157920000Y-79680000D03*
X155380000Y-82220000D03*
X157920000Y-82220000D03*
X155380000Y-84760000D03*
X157920000Y-84760000D03*
X155380000Y-87300000D03*
X157920000Y-87300000D03*
X155380000Y-89840000D03*
X157920000Y-89840000D03*
X155380000Y-92380000D03*
X157920000Y-92380000D03*
X155380000Y-94920000D03*
X157920000Y-94920000D03*
X155380000Y-97460000D03*
X157920000Y-97460000D03*
%TD*%
D12*
%TO.C,U4*%
X109120000Y-76040000D03*
D13*
X107420000Y-79740000D03*
X105720000Y-76040000D03*
X104020000Y-79740000D03*
X102320000Y-76040000D03*
%TD*%
D14*
%TO.C,J2*%
X86420000Y-55240000D03*
D15*
X91420000Y-55240000D03*
%TD*%
D10*
%TO.C,U5*%
X111550000Y-129690000D03*
D11*
X109010000Y-129690000D03*
X106470000Y-129690000D03*
X103930000Y-129690000D03*
%TD*%
D16*
%TO.C,BT1*%
X76920000Y-108240000D03*
D17*
X76920000Y-128730000D03*
%TD*%
D18*
%TO.C,U6*%
X91920000Y-85240000D03*
X91920000Y-82700000D03*
X91920000Y-80160000D03*
X91920000Y-77620000D03*
X91920000Y-75080000D03*
X91920000Y-72540000D03*
X91920000Y-70000000D03*
X91920000Y-67460000D03*
X74140000Y-67460000D03*
X74140000Y-70000000D03*
X74140000Y-72540000D03*
X74140000Y-75080000D03*
X74140000Y-77620000D03*
X74140000Y-80160000D03*
X74140000Y-82700000D03*
X74140000Y-85240000D03*
%TD*%
D19*
%TO.C,J1*%
X147920000Y-54240000D03*
D15*
X142920000Y-54240000D03*
%TD*%
D10*
%TO.C,U1*%
X216880000Y-51940000D03*
D11*
X219420000Y-51940000D03*
X216880000Y-54480000D03*
X219420000Y-54480000D03*
X216880000Y-57020000D03*
X219420000Y-57020000D03*
X216880000Y-59560000D03*
X219420000Y-59560000D03*
X216880000Y-62100000D03*
X219420000Y-62100000D03*
X216880000Y-64640000D03*
X219420000Y-64640000D03*
X216880000Y-67180000D03*
X219420000Y-67180000D03*
X216880000Y-69720000D03*
X219420000Y-69720000D03*
X216880000Y-72260000D03*
X219420000Y-72260000D03*
X216880000Y-74800000D03*
X219420000Y-74800000D03*
X216880000Y-77340000D03*
X219420000Y-77340000D03*
X216880000Y-79880000D03*
X219420000Y-79880000D03*
X216880000Y-82420000D03*
X219420000Y-82420000D03*
X216880000Y-84960000D03*
X219420000Y-84960000D03*
X216880000Y-87500000D03*
X219420000Y-87500000D03*
X216880000Y-90040000D03*
X219420000Y-90040000D03*
X216880000Y-92580000D03*
X219420000Y-92580000D03*
X216880000Y-95120000D03*
X219420000Y-95120000D03*
X216880000Y-97660000D03*
X219420000Y-97660000D03*
%TD*%
M02*
